<svg width="60" height="26" viewBox="0 0 60 26" fill="none" xmlns="http://www.w3.org/2000/svg">
<path fill-rule="evenodd" clip-rule="evenodd" d="M28.9286 0H39.6429V3.28517H32.4481V6.17618H38.0772V9.33342H32.4481V13.8125H28.9286V0Z" fill="#030D54"/>
<path fill-rule="evenodd" clip-rule="evenodd" d="M46.6045 9.00418V7.87965C46.6045 6.9683 45.725 6.28977 44.5719 6.28977C43.2037 6.28977 42.3241 7.10401 42.3241 8.46117C42.3241 9.77973 43.2037 10.6134 44.5719 10.6134C45.725 10.6134 46.6045 9.91543 46.6045 9.00418ZM50.3571 3.36209V13.638H46.7413V12.591H46.7022C46.0963 13.3665 44.9627 13.8125 43.7118 13.8125C40.7408 13.8125 38.5714 11.5828 38.5714 8.50005C38.5714 5.41731 40.7408 3.1875 43.7118 3.1875C44.8651 3.1875 45.9987 3.61406 46.7022 4.27343H46.7413V3.36209H50.3571Z" fill="#030D54"/>
<path fill-rule="evenodd" clip-rule="evenodd" d="M57.3378 6.54321V9.70209C57.3378 10.3111 57.6299 10.5774 58.2529 10.5774H60V13.8125H57.6104C54.8454 13.8125 53.5992 12.5375 53.5992 10.1017V6.54321H51.4286V3.72676H53.5992V1.0625H57.3378V3.72676H60V6.54321H57.3378Z" fill="#030D54"/>
<path fill-rule="evenodd" clip-rule="evenodd" d="M0 11.6875H3.73525V22.1061H10.7143V25.5H0V11.6875Z" fill="#030D54"/>
<path fill-rule="evenodd" clip-rule="evenodd" d="M11.7858 25.5H16.0715V11.6875H11.7858V25.5Z" fill="#030D54"/>
<path fill-rule="evenodd" clip-rule="evenodd" d="M24.1045 20.6917V19.5671C24.1045 18.6558 23.2249 17.9773 22.0718 17.9773C20.7036 17.9773 19.8241 18.7914 19.8241 20.1487C19.8241 21.4671 20.7036 22.3009 22.0718 22.3009C23.2249 22.3009 24.1045 21.6028 24.1045 20.6917ZM27.8571 15.0495V25.3255H24.2412V24.2785H24.2021C23.5962 25.054 22.4626 25.5 21.2117 25.5C18.2408 25.5 16.0714 23.2702 16.0714 20.1875C16.0714 17.1047 18.2408 14.875 21.2117 14.875C22.365 14.875 23.4986 15.3016 24.2021 15.9608H24.2412V15.0495H27.8571Z" fill="#030D54"/>
<path fill-rule="evenodd" clip-rule="evenodd" d="M28.9286 15.1675H32.4026V16.0838H32.4409C33.1318 15.2845 34.2259 14.875 35.5119 14.875C36.8554 14.875 37.9877 15.3624 38.7554 16.2397H38.7938C39.6576 15.382 40.9051 14.875 42.3253 14.875C45.0123 14.875 47.1429 16.6882 47.1429 19.2421V25.5H43.5537V19.7879C43.5537 18.6961 42.8053 17.9943 41.6536 17.9943C40.5213 17.9943 39.7343 18.7157 39.7343 19.7879V25.5H36.3372V19.7879C36.3372 18.6961 35.6078 17.9943 34.4563 17.9943C33.3046 17.9943 32.5178 18.7157 32.5178 19.7879V25.5H28.9286V15.1675Z" fill="#030D54"/>
<path fill-rule="evenodd" clip-rule="evenodd" d="M56.2473 20.6917V19.5671C56.2473 18.6558 55.3678 17.9773 54.2147 17.9773C52.8465 17.9773 51.967 18.7914 51.967 20.1487C51.967 21.4671 52.8465 22.3009 54.2147 22.3009C55.3678 22.3009 56.2473 21.6028 56.2473 20.6917ZM59.9999 15.0495V25.3255H56.3841V24.2785H56.345C55.7391 25.054 54.6055 25.5 53.3546 25.5C50.3838 25.5 48.2142 23.2702 48.2142 20.1875C48.2142 17.1047 50.3838 14.875 53.3546 14.875C54.5078 14.875 55.6415 15.3016 56.345 15.9608H56.3841V15.0495H59.9999Z" fill="#030D54"/>
</svg>
