<svg width="346" height="81" viewBox="0 0 346 81" fill="none" xmlns="http://www.w3.org/2000/svg">
<path fill-rule="evenodd" clip-rule="evenodd" d="M33.9072 77.2645C27.829 70.9349 29.0083 56.5956 36.2906 49.2894C46.3477 39.1984 65.5013 45.079 75.3785 54.1124C82.4491 60.58 88.5999 72.1669 84.9121 77.7474C83.1465 80.4196 80.0217 80 59.1706 79.8002C39.2339 79.6089 36.5053 79.9707 33.9072 77.2645Z" fill="#030D54"/>
<path fill-rule="evenodd" clip-rule="evenodd" d="M140.315 80.4125C140.964 55.4914 134.87 18.3934 127.348 18.3934C119.827 18.3934 140.315 80.4125 140.315 80.4125Z" fill="#030D54"/>
<path fill-rule="evenodd" clip-rule="evenodd" d="M140.525 80.0082C146.62 63.299 149.732 0.289513 142.211 0.289513C134.69 0.289513 140.525 80.0082 140.525 80.0082Z" fill="#030D54"/>
<path fill-rule="evenodd" clip-rule="evenodd" d="M140.48 79.8755C147.742 67.6978 159.153 41.7862 153.447 40.795C145.098 39.3447 140.48 79.8755 140.48 79.8755ZM140.593 80.5143C136.964 69.1858 125.941 45.9643 120.365 51.0611C113.883 56.9872 140.593 80.5143 140.593 80.5143Z" fill="#030D54"/>
<path fill-rule="evenodd" clip-rule="evenodd" d="M160.979 41.5048C159.595 49.3872 161.831 55.6991 164.158 62.0178C165.865 66.6518 168.949 73.4427 174.626 80.654C171.763 39.496 168.618 30.1895 166.146 30.1085C163.937 30.0352 161.713 37.3167 160.979 41.5048Z" fill="#FF7264"/>
<path fill-rule="evenodd" clip-rule="evenodd" d="M174.981 80.0932C172.93 79.6844 175.753 59.402 179.134 45.7878C180.122 41.8057 180.851 39.6357 181.433 39.6935C182.568 39.8054 182.961 48.3458 182.336 55.4715C181.237 67.9741 176.624 80.4203 174.981 80.0932Z" fill="#FF7264"/>
<path fill-rule="evenodd" clip-rule="evenodd" d="M175.298 80.6671C174.224 81.8497 154.113 67.9046 155.323 58.9799C155.385 58.5194 155.586 57.0444 156.408 56.7736C158.087 56.2182 160.778 61.1986 164.744 67.0298C171.682 77.2304 175.784 80.131 175.298 80.6671ZM185.867 73.5221C186.468 76.4736 178.882 81.2164 177.651 80.0924C176.751 79.2693 179.256 75.3149 179.373 75.1321C180.325 73.6463 181.69 71.5164 183.481 71.6452C184.491 71.7178 185.66 72.51 185.867 73.5221Z" fill="#FF7264"/>
<path fill-rule="evenodd" clip-rule="evenodd" d="M109.649 79.8197C111.338 78.0593 111.011 74.0741 108.987 72.0429C106.191 69.238 100.867 70.8726 98.1217 73.3836C96.1561 75.1811 94.4462 78.4018 95.4718 79.9531C95.9622 80.696 96.8311 80.6783 102.627 80.6235C108.169 80.5703 108.927 80.5718 109.649 79.8197Z" fill="#BABABA"/>
</svg>
