<svg width="79" height="54" xmlns="http://www.w3.org/2000/svg" xmlns:xlink="http://www.w3.org/1999/xlink"><defs><linearGradient x1="50%" y1="100%" x2="50%" y2="0%" id="b"><stop stop-color="#FFF" stop-opacity="0" offset="0%"/><stop stop-color="#FFF" offset="100%"/></linearGradient><path d="M46.752 25.196s-34.973-2.118-30.86 22.483c0 0-.831 4.349 3.107 6.321 0 0 .062-1.822 3.589-1.2 1.256.208 2.531.27 3.801.183a7.902 7.902 0 0 0 4.644-1.927s9.833-4.078 13.654-20.206c0 0 2.83-3.519 2.717-4.424l-5.903 2.531s2.02 4.274.416 7.827c0 0-.191-7.672-1.325-7.506-.229.038-3.066 1.48-3.066 1.48s3.469 7.443.851 12.856c0 0 .993-9.174-1.935-12.317l-4.154 2.435s4.054 7.688 1.304 13.964c0 0 .706-9.624-2.18-13.372l-3.764 2.948s3.809 7.58 1.487 12.784c0 0-.303-11.204-2.302-12.05 0 0-3.294 2.918-3.796 4.11 0 0 2.608 5.505.988 8.407 0 0-.992-7.464-1.807-7.506 0 0-3.281 4.945-3.622 8.34 0 0 .141-5.046 2.829-8.81 0 0-3.174.545-5.026 2.613 0 0 .51-3.498 5.836-3.802 0 0 2.713-3.753 3.435-3.982 0 0-5.292-.442-8.503.984 0 0 2.825-3.298 9.475-1.797l3.718-3.048s-6.97-.955-9.928.1c0 0 3.402-2.919 10.93-.788l4.054-2.41s-5.945-1.284-9.484-.834c0 0 3.739-2.022 10.672.17l2.908-1.304s-4.354-.86-5.63-.997c-1.274-.137-1.34-.488-1.34-.488a15.048 15.048 0 0 1 8.178.913s6.14-2.293 6.032-2.68z" id="a"/></defs><g fill="none" fill-rule="evenodd"><g fill-rule="nonzero"><use fill="#2CCCBB" xlink:href="#a"/><use fill-opacity=".33" fill="url(#b)" xlink:href="#a"/></g><g><ellipse fill="#FF3F64" transform="rotate(60 2.415 30.48)" cx="2.415" cy="30.481" rx="1.673" ry="1.661"/><ellipse fill="#4629D3" transform="rotate(60 26.936 10.822)" cx="26.936" cy="10.822" rx="1.673" ry="1.661"/><ellipse fill="#4629D3" transform="rotate(60 77.186 33.022)" cx="77.186" cy="33.022" rx="1.673" ry="1.661"/><ellipse stroke="#63FFD4" stroke-width=".5" transform="rotate(60 76.846 47.51)" cx="76.846" cy="47.511" rx="1.423" ry="1.411"/><ellipse stroke="#63FFD4" stroke-width=".5" transform="rotate(60 8.36 51.024)" cx="8.361" cy="51.024" rx="1.423" ry="1.411"/><ellipse fill="#FF7264" transform="rotate(60 54.338 19.393)" cx="54.338" cy="19.393" rx="1.673" ry="1.661"/><ellipse stroke="#FF3F64" stroke-width=".5" transform="rotate(60 53.183 2.4)" cx="53.183" cy="2.399" rx="1.423" ry="1.411"/><path fill="#FFC217" d="M72.766 11.485l-.903-1.631 1.897.32 1.336-1.309.286 1.82 1.728.822-1.72.804-.267 1.817-1.35-1.323-1.893.301z"/></g></g></svg>