<svg width="79" height="53" xmlns="http://www.w3.org/2000/svg" xmlns:xlink="http://www.w3.org/1999/xlink"><defs><path d="M32.094 10.548c0 2.94-7.186 5.324-16.047 5.324S0 13.488 0 10.548V5.324c0 2.94 7.186 5.324 16.047 5.324s16.047-2.384 16.047-5.324" id="a"/><path d="M32.094 10.548c0 2.94-7.186 5.324-16.047 5.324S0 13.488 0 10.548V5.324c0 2.94 7.186 5.324 16.047 5.324s16.047-2.384 16.047-5.324" id="c"/><path d="M32.094 10.548c0 2.94-7.186 5.324-16.047 5.324S0 13.488 0 10.548V5.324c0 2.94 7.186 5.324 16.047 5.324s16.047-2.384 16.047-5.324" id="e"/><path d="M31.316 6.868c-2.086 2.137-8.135 3.682-15.269 3.682C7.186 10.55 0 8.166 0 5.226V.002c0 2.94 7.186 5.324 16.047 5.324 7.134 0 13.183-1.546 15.27-3.682v5.224z" id="g"/></defs><g fill="none" fill-rule="evenodd"><g transform="rotate(-48 57.132 8.55)"><path d="M32.094 5.324c0 2.94-7.186 5.324-16.047 5.324S0 8.264 0 5.324 7.186 0 16.047 0s16.047 2.384 16.047 5.324z" fill="#FCFC51"/><path d="M26.677 5.263c0 1.816-4.728 3.288-10.557 3.288-5.83 0-10.557-1.472-10.557-3.288 0-1.817 4.727-3.29 10.557-3.29s10.557 1.473 10.557 3.29z" fill="#FFC217"/><path d="M26.562 5.798c.077-.148.115-.47.115-.624 0-1.687-4.728-3.186-10.557-3.186-5.83 0-10.557 1.5-10.557 3.186 0 .154.085.476.162.624.76-1.089 5.1-2.227 10.395-2.227s9.682 1.138 10.442 2.227z" fill-opacity=".15" fill="#111"/><mask id="b" fill="#fff"><use xlink:href="#a"/></mask><path d="M32.094 5.324v5.224c0 .17-.024.337-.07.502V5.826c.046-.165.07-.333.07-.502" fill="#949494" mask="url(#b)"/><mask id="d" fill="#fff"><use xlink:href="#c"/></mask><path d="M32.024 5.826v5.224a2.21 2.21 0 0 1-.218.507V6.333c.096-.166.17-.335.218-.507" fill="#FCCE57" mask="url(#d)"/><mask id="f" fill="#fff"><use xlink:href="#e"/></mask><path d="M31.806 6.333v5.224c-.125.216-.29.427-.49.633V6.966c.2-.205.365-.417.49-.633" fill="#FCFC51" mask="url(#f)"/><path d="M31.316 6.966v5.224c-2.086 2.137-8.135 3.682-15.269 3.682C7.186 15.872 0 13.488 0 10.548V5.324c0 2.94 7.186 5.324 16.047 5.324 7.134 0 13.183-1.545 15.27-3.682" fill="#FCCE57" mask="url(#f)"/><path d="M31.316 12.19c-2.086 2.137-8.135 3.682-15.269 3.682C7.186 15.872 0 13.488 0 10.548V5.324c0 2.94 7.186 5.324 16.047 5.324 7.134 0 13.183-1.545 15.27-3.682v5.224z" fill="#FCCE57" mask="url(#f)"/><g mask="url(#f)"><g transform="translate(0 5.262)"><mask id="h" fill="#fff"><use xlink:href="#g"/></mask><use fill="#FDB65A" xlink:href="#g"/><path fill="#FCFC51" mask="url(#h)" transform="rotate(11 16.616 7.017)" d="M11.445-.018L21.723.03l.064 14.02-10.279-.047z"/></g></g></g><ellipse fill="#FF3F64" transform="rotate(60 2.415 30.362)" cx="2.415" cy="30.362" rx="1.668" ry="1.659"/><ellipse fill="#4629D3" transform="rotate(60 26.936 10.78)" cx="26.936" cy="10.78" rx="1.668" ry="1.659"/><ellipse fill="#4629D3" transform="rotate(60 77.186 32.893)" cx="77.186" cy="32.893" rx="1.668" ry="1.659"/><ellipse stroke="#63FFD4" stroke-width=".5" transform="rotate(60 76.846 47.325)" cx="76.846" cy="47.325" rx="1.418" ry="1.409"/><ellipse fill="#FF7264" transform="rotate(60 54.338 19.317)" cx="54.338" cy="19.317" rx="1.668" ry="1.659"/><ellipse stroke="#FF3F64" stroke-width=".5" transform="rotate(60 53.183 2.39)" cx="53.183" cy="2.39" rx="1.418" ry="1.409"/><path fill="#FFC217" d="M72.766 11.44l-.903-1.625 1.897.32 1.336-1.304.286 1.812 1.728.819-1.72.801-.267 1.81-1.35-1.318-1.893.3z"/></g></svg>