<svg width="112" height="99" viewBox="0 0 112 99" fill="none" xmlns="http://www.w3.org/2000/svg">
<path fill-rule="evenodd" clip-rule="evenodd" d="M13.2526 0.285889H16.1524V17.8721C16.1524 19.8454 16.0453 22.0543 14.6467 23.5863C13.961 24.3164 13.1205 24.7855 12.1296 24.9842C12.0795 24.9426 9.43945 22.2553 9.43945 22.2553C10.223 22.2461 11.0431 22.3062 11.7857 21.9966C12.305 21.7932 12.6718 21.4328 12.8859 20.9175C13.1547 20.4045 13.2526 19.2215 13.2526 17.5347V0.285889Z" fill="black"/>
<path fill-rule="evenodd" clip-rule="evenodd" d="M35.6152 2.79355C33.2963 2.79355 31.392 3.52833 29.8999 5.0002C28.4079 6.47207 27.6608 8.35061 27.6608 10.6358C27.6608 12.854 28.4102 14.6956 29.9068 16.1675C31.4034 17.6393 33.2803 18.3741 35.5286 18.3741C37.7906 18.3741 39.6744 17.6232 41.1869 16.1236C42.6994 14.624 43.4557 12.7547 43.4557 10.518C43.4557 8.33906 42.6994 6.50904 41.1869 5.02331C39.6744 3.53757 37.8202 2.79355 35.6152 2.79355ZM35.499 0C38.6311 0 41.2393 1.00512 43.3213 3.01537C45.4033 5.02562 46.4443 7.54651 46.4443 10.5781C46.4443 13.6073 45.3919 16.1166 43.2917 18.1015C41.1892 20.0886 38.54 21.0822 35.3418 21.0822C32.2872 21.0822 29.7428 20.0886 27.7086 18.1015C25.6767 16.1166 24.6562 13.6281 24.6562 10.6358C24.6562 7.565 25.6836 5.02562 27.7314 3.01537C29.7792 1.00512 32.3692 0 35.499 0Z" fill="black"/>
<path fill-rule="evenodd" clip-rule="evenodd" d="M69.6934 0.288574H72.5931V20.8416H69.6934V11.8972H57.8415V20.8416H54.9395V0.288574H57.8415V9.23764H69.6934V0.288574Z" fill="black"/>
<path fill-rule="evenodd" clip-rule="evenodd" d="M99.546 0.288574H102.302V20.8416H99.8056L85.6462 5.0115V20.8416H82.9219V0.288574H85.2704L99.546 16.2527V0.288574Z" fill="black"/>
<path fill-rule="evenodd" clip-rule="evenodd" d="M1.36523 44.3822V65.0508H13.8503V62.3843H4.29004V44.3822H1.36523Z" fill="black"/>
<path fill-rule="evenodd" clip-rule="evenodd" d="M23.6191 44.3822V65.0508H36.7649V62.3843H26.544V55.9584H36.1954V53.292H26.544V47.0487H36.4961V44.3822H23.6191Z" fill="black"/>
<path fill-rule="evenodd" clip-rule="evenodd" d="M73.3354 44.3822L67.775 58.6272L62.0963 44.3822H59.3218L53.6772 58.6272L48.0576 44.3822H45.1328L53.3765 65.2333H53.9437L60.6954 48.3218L67.3924 65.2333H67.9596L76.2306 44.3822H73.3354Z" fill="black"/>
<path fill-rule="evenodd" clip-rule="evenodd" d="M85.0566 65.0509H87.9861V44.3846H85.0566V65.0509Z" fill="black"/>
<path fill-rule="evenodd" clip-rule="evenodd" d="M104.468 56.4405L102.249 55.0749C100.86 54.2131 99.9806 53.3535 99.3496 52.554C98.6913 51.7268 98.3633 50.7101 98.3633 49.6242C98.3633 47.9975 98.9191 46.6735 100.033 45.6591C101.147 44.6448 102.63 44.1526 104.411 44.1526C106.286 44.1526 107.671 44.6378 109.09 45.606V48.9656C107.623 47.533 106.042 46.8144 104.35 46.8144C103.397 46.8144 102.616 47.0386 102.003 47.4868C101.391 47.9328 101.085 48.5197 101.085 49.2175C101.085 49.8367 101.233 50.3497 101.682 50.8904C102.135 51.4311 102.937 52.0619 103.94 52.658L106.249 53.9936C108.735 55.5001 109.894 57.4156 109.894 59.7424C109.894 61.4014 109.329 62.767 108.233 63.7999C107.14 64.835 105.737 65.3896 103.987 65.3572C101.978 65.3179 100.179 64.7518 98.4886 63.4533V59.6962C100.063 61.7203 101.887 62.6884 103.956 62.6884C104.871 62.6884 105.632 62.4735 106.238 61.9583C106.846 61.443 107.176 60.796 107.176 60.0197C107.176 58.7604 106.256 57.5681 104.468 56.4405Z" fill="black"/>
<path fill-rule="evenodd" clip-rule="evenodd" d="M3.43052 90.2557C3.43052 90.5006 3.52619 90.7849 3.72209 91.1083C3.91799 91.4318 4.14122 91.7114 4.4009 91.9448C4.78587 91.7068 5.09111 91.4619 5.31662 91.2169C5.54441 90.972 5.6583 90.6832 5.6583 90.3528C5.6583 90.0478 5.55352 89.7936 5.34167 89.5903C5.12983 89.3869 4.85876 89.2852 4.52619 89.2852C4.23462 89.2852 3.97494 89.3754 3.75853 89.5579C3.53986 89.7381 3.43052 89.9715 3.43052 90.2557ZM2.13439 96.0323C2.13439 96.3904 2.26879 96.6931 2.53986 96.9404C2.81321 97.1853 3.13439 97.3078 3.50797 97.3078C4.14122 97.3078 4.80865 96.9981 5.5148 96.3766L3.61958 94.2231C3.15489 94.5211 2.79271 94.8146 2.52847 95.1011C2.26423 95.3853 2.13439 95.6949 2.13439 96.0323ZM4.55808 87.6586C5.4009 87.6586 6.10477 87.8989 6.66514 88.3841C7.2255 88.867 7.50568 89.4863 7.50568 90.2395C7.50568 90.7849 7.33939 91.2909 7.00454 91.7599C6.66969 92.2313 6.15716 92.698 5.46924 93.1556L6.98632 94.9347C7.43279 94.4819 7.84281 93.888 8.21866 93.1556H10.2232C9.69702 94.4403 9.02276 95.4916 8.20272 96.3142L10.4214 98.8559H7.66286L6.64463 97.6775C6.08655 98.1465 5.54896 98.4862 5.0296 98.6895C4.51024 98.8952 3.89065 98.9991 3.16856 98.9991C2.2779 98.9991 1.52847 98.7265 0.915716 98.1812C0.305239 97.6359 0 96.9681 0 96.1779C0 95.5193 0.220956 94.9301 0.660591 94.4102C1.10023 93.888 1.72665 93.4074 2.5353 92.9638C2.15034 92.4739 1.87016 92.028 1.6902 91.6305C1.51253 91.2331 1.42141 90.8264 1.42141 90.4152C1.42141 89.5995 1.71526 88.9364 2.30523 88.4234C2.89293 87.9127 3.64236 87.6586 4.55808 87.6586Z" fill="black"/>
<path fill-rule="evenodd" clip-rule="evenodd" d="M21.5837 92.467C22.1532 92.467 22.5951 92.333 22.9163 92.0696C23.2352 91.8061 23.3947 91.4156 23.3947 90.8958C23.3947 89.8652 22.7409 89.3499 21.4357 89.3499H19.9801V92.467H21.5837ZM22.1122 87.6586C23.1464 87.6586 23.9846 87.9636 24.6293 88.569C25.2739 89.1743 25.5974 89.9553 25.5974 90.9119C25.5974 91.8801 25.2717 92.6611 24.6179 93.2618C23.9641 93.8603 23.1031 94.156 22.0348 94.156H19.9801V98.8559H17.8457V87.6586H22.1122Z" fill="black"/>
<path fill-rule="evenodd" clip-rule="evenodd" d="M30.9944 94.4866H34.5571L32.6937 90.0548L30.9944 94.4866ZM33.778 87.6587L38.6504 98.856H36.3999L35.2541 96.1295H30.3475L29.2815 98.856H27.0469L31.5958 87.6587H33.778Z" fill="black"/>
<path fill-rule="evenodd" clip-rule="evenodd" d="M44.9878 92.4348C45.5482 92.4348 45.9855 92.2915 46.3044 92.0096C46.6233 91.7254 46.7828 91.3395 46.7828 90.8474C46.7828 90.3344 46.6256 89.9508 46.309 89.6967C45.9923 89.4448 45.5413 89.3154 44.9582 89.3154H43.6302V92.4348H44.9878ZM45.4707 87.6587C46.5094 87.6587 47.3545 87.9498 48.006 88.5321C48.6598 89.1144 48.9855 89.8746 48.9855 90.8081C48.9855 91.4435 48.8261 91.9981 48.5003 92.4717C48.1769 92.9431 47.6962 93.3151 47.0584 93.5878C47.4115 93.7795 47.7258 94.043 47.9992 94.3734C48.2725 94.7038 48.6142 95.2653 49.0197 96.0486C49.6917 97.4049 50.1928 98.3407 50.5208 98.8537H48.1427C47.9764 98.6088 47.7577 98.216 47.4775 97.6776C46.8671 96.4853 46.4183 95.6812 46.1336 95.2676C45.8511 94.854 45.5778 94.5605 45.3135 94.3872C45.0493 94.2139 44.7486 94.1238 44.4046 94.1238H43.6302V98.8537H41.498V87.6587H45.4707Z" fill="black"/>
<path fill-rule="evenodd" clip-rule="evenodd" d="M62.1676 87.6586V89.3499H58.2474V98.8559H56.1152V89.3499H52.1973V87.6586H62.1676Z" fill="black"/>
<path fill-rule="evenodd" clip-rule="evenodd" d="M67.5345 87.6586L74.0926 95.4731V87.6586H76.1769V98.8559H74.3432L67.7487 90.9119V98.8559H65.6621V87.6586H67.5345Z" fill="black"/>
<path fill-rule="evenodd" clip-rule="evenodd" d="M87.7769 87.6586V89.3499H82.777V92.2914H87.5628V93.9804H82.777V97.1622H87.8885V98.8559H80.6426V87.6586H87.7769Z" fill="black"/>
<path fill-rule="evenodd" clip-rule="evenodd" d="M95.4979 92.4348C96.0559 92.4348 96.4933 92.2915 96.8122 92.0096C97.1311 91.7254 97.2905 91.3395 97.2905 90.8474C97.2905 90.3344 97.1334 89.9508 96.8167 89.6967C96.5001 89.4448 96.0491 89.3154 95.466 89.3154H94.138V92.4348H95.4979ZM95.9785 87.6587C97.0172 87.6587 97.8623 87.9498 98.5161 88.5321C99.1675 89.1144 99.4955 89.8746 99.4955 90.8081C99.4955 91.4435 99.3338 91.9981 99.0081 92.4717C98.6846 92.9431 98.204 93.3151 97.5662 93.5878C97.9192 93.7795 98.2336 94.043 98.5069 94.3734C98.7803 94.7038 99.122 95.2653 99.5274 96.0486C100.199 97.4049 100.701 98.3407 101.029 98.8537H98.6504C98.4864 98.6088 98.2655 98.216 97.9853 97.6776C97.3748 96.4853 96.9284 95.6812 96.6436 95.2676C96.3589 94.854 96.0855 94.5605 95.8213 94.3872C95.5571 94.2139 95.2564 94.1238 94.9124 94.1238H94.138V98.8537H92.0059V87.6587H95.9785Z" fill="black"/>
<path fill-rule="evenodd" clip-rule="evenodd" d="M107.43 87.5139C108.505 87.5139 109.539 87.7866 110.532 88.3319V90.2566C109.391 89.5565 108.377 89.2053 107.491 89.2053C106.956 89.2053 106.535 89.3093 106.234 89.5219C105.931 89.7344 105.778 90.014 105.778 90.3675C105.778 90.7904 106.058 91.1809 106.623 91.5367C106.783 91.6453 107.389 91.9434 108.448 92.4356C109.355 92.8676 110.008 93.3483 110.409 93.8774C110.808 94.4065 111.008 95.0419 111.008 95.7837C111.008 96.7472 110.667 97.5213 109.986 98.1128C109.302 98.7043 108.421 99.0001 107.334 99.0001C106.628 99.0001 106.022 98.9215 105.512 98.7621C105.006 98.6049 104.437 98.3346 103.803 97.9487V95.8183C104.983 96.8096 106.095 97.3064 107.136 97.3064C107.66 97.3064 108.079 97.1908 108.402 96.9621C108.721 96.7333 108.883 96.4283 108.883 96.0494C108.883 95.5318 108.605 95.109 108.047 94.7832C107.582 94.5267 106.986 94.2194 106.252 93.8612C105.384 93.4592 104.733 92.9924 104.304 92.4587C103.874 91.9249 103.662 91.3057 103.662 90.6009C103.662 89.6605 104.006 88.9095 104.696 88.3504C105.386 87.7935 106.298 87.5139 107.43 87.5139Z" fill="black"/>
</svg>
