<svg width="18" height="18" viewBox="0 0 18 18" fill="none" xmlns="http://www.w3.org/2000/svg">
<path fill-rule="evenodd" clip-rule="evenodd" d="M17.9634 6.19797C17.8718 5.93114 17.6316 5.74424 17.3498 5.74366H11.9713L9.57987 0.75388C9.35995 0.29428 8.6378 0.29428 8.41788 0.75388L6.03093 5.74366H0.650169C0.291339 5.74366 0 6.04751 0 6.42306C0 6.637 0.0944882 6.82801 0.24297 6.9526L0.244094 6.95378L4.6243 10.6165L2.95332 16.7253C2.93757 16.7811 2.92857 16.8452 2.92857 16.9116C2.92857 17.2866 3.21935 17.591 3.57874 17.591C3.70641 17.591 3.82508 17.5528 3.92576 17.4864L3.92295 17.4881L9 14.1722L14.0754 17.4881C14.1732 17.5522 14.2925 17.5904 14.4201 17.5904C14.4207 17.5904 14.4207 17.5904 14.4213 17.5904C14.7801 17.5904 15.0709 17.2866 15.0709 16.9116C15.0709 16.8452 15.0619 16.7811 15.045 16.7206L15.0461 16.7253L13.374 10.6165L17.7548 6.95554C17.9049 6.82977 18 6.63876 18 6.42365C18 6.34313 17.9865 6.26555 17.9618 6.19385L17.9634 6.19797Z" fill="#FFC217"/>
</svg>
