<svg width="79" height="56" xmlns="http://www.w3.org/2000/svg" xmlns:xlink="http://www.w3.org/1999/xlink"><defs><linearGradient x1="50.176%" y1="58.928%" x2="50%" y2="59.034%" id="b"><stop stop-color="#FFF" offset="0%"/><stop stop-color="#FFF" stop-opacity="0" offset="100%"/></linearGradient><linearGradient x1="64.85%" y1="42.878%" x2="-10.22%" y2="71.536%" id="c"><stop stop-color="#FFF" stop-opacity="0" offset="0%"/><stop stop-color="#FFF" offset="100%"/></linearGradient><path id="a" d="M34.371 50.047l-9.864 5.483 1.938-11.516-7.916-8.107 11.006-1.736 4.972-10.493 4.865 10.442 10.988 1.622-8 8.19 1.82 11.496z"/></defs><g fill="none" fill-rule="evenodd"><ellipse fill="#FF3F64" transform="rotate(60 2.415 30.503)" cx="2.415" cy="30.503" rx="1.674" ry="1.661"/><ellipse fill="#4629D3" transform="rotate(60 26.936 10.83)" cx="26.936" cy="10.83" rx="1.674" ry="1.661"/><ellipse fill="#4629D3" transform="rotate(60 77.186 33.046)" cx="77.186" cy="33.046" rx="1.674" ry="1.661"/><ellipse stroke="#63FFD4" stroke-width=".5" transform="rotate(60 76.846 47.545)" cx="76.846" cy="47.545" rx="1.424" ry="1.411"/><ellipse stroke="#63FFD4" stroke-width=".5" transform="rotate(60 8.36 51.06)" cx="8.361" cy="51.061" rx="1.424" ry="1.411"/><ellipse fill="#FF7264" transform="rotate(60 54.338 19.407)" cx="54.338" cy="19.407" rx="1.674" ry="1.661"/><ellipse stroke="#FF3F64" stroke-width=".5" transform="rotate(60 53.183 2.4)" cx="53.183" cy="2.401" rx="1.424" ry="1.411"/><path fill="#FFC217" d="M72.766 11.493l-.903-1.632 1.897.32 1.336-1.31.286 1.822 1.728.822-1.72.805-.267 1.818-1.35-1.323-1.893.3z"/><g transform="rotate(-94 34.445 39.604)"><use fill="#4629D3" xlink:href="#a"/><use fill-opacity=".2" fill="url(#b)" xlink:href="#a"/><use fill-opacity=".33" fill="url(#c)" xlink:href="#a"/></g></g></svg>