<svg width="98" height="48" viewBox="0 0 98 48" fill="none" xmlns="http://www.w3.org/2000/svg">
<g clip-path="url(#clip0)">
<path d="M48.7491 20.3204C49.3416 14.5028 52.4687 11.0552 52.4687 7.6906C52.4687 5.25413 51.5635 3.16573 48.7491 -1.52588e-05C45.9183 3.14916 45.0296 5.23756 45.0296 7.6906C44.9966 11.0387 48.1566 14.4862 48.7491 20.3204ZM42.6431 19.5746C41.1454 20.9005 38.2488 20.0552 38.2488 16.8398C38.2488 15.0331 40.125 13.4751 41.9354 13.4751C45.5233 13.4751 47.1527 17.3204 47.2514 19.0939C47.3172 20.5027 46.6918 22.7237 44.3712 22.7569C45.4575 22.2099 45.836 20.9005 45.7208 19.9558C45.6056 18.8453 44.8814 17.3867 43.3344 17.3867C42.4785 17.3867 41.8202 17.9503 41.8202 18.5469C41.8038 19.0939 42.1329 19.558 42.6431 19.5746ZM54.8386 19.5746C56.3363 20.9005 59.233 20.0552 59.233 16.8398C59.233 15.0331 57.3567 13.4751 55.5463 13.4751C51.9585 13.4751 50.3291 17.3204 50.2303 19.0939C50.1645 20.5027 50.7899 22.7237 53.1105 22.7569C52.0243 22.2099 51.6457 20.9005 51.761 19.9558C51.8762 18.8453 52.6003 17.3867 54.1474 17.3867C55.0032 17.3867 55.6616 17.9503 55.6616 18.5469C55.6616 19.0939 55.3324 19.558 54.8386 19.5746Z" fill="#DA291C"/>
<path d="M23.3213 47.7348H20.655V28.8895H23.3213V47.7348ZM16.4582 47.7348H13.792V39.5138H2.66623V47.7348H0V28.8895H2.66623V37.1105H13.8084V28.8895H16.4747L16.4582 47.7348ZM89.977 37.9724L97.9592 47.7182H94.7169L88.3476 39.9282L81.896 47.7182H78.6208L86.7018 37.9724L79.2133 28.8729H82.4885L88.3805 36.0663L94.2232 28.8895H97.4654L89.977 37.9724Z" fill="black"/>
<path d="M69.4866 28.6409C75.6584 28.6409 79.559 33.0663 79.559 38.3039C79.559 43.3923 75.7736 47.9669 69.4372 47.9669C63.3147 47.9669 59.4471 43.4088 59.4471 38.3039C59.4471 33.0829 63.4299 28.6409 69.4866 28.6409ZM69.4866 45.4972C73.6834 45.4972 76.794 42.4309 76.794 38.3204C76.794 34.1768 73.6834 31.1437 69.4866 31.1437C65.3062 31.1437 62.212 34.1934 62.212 38.3204C62.2285 42.4309 65.3062 45.4972 69.4866 45.4972ZM56.9783 42.9613C55.6617 44.5359 53.6538 45.4972 51.3003 45.4972C47.1199 45.4972 44.0257 42.4309 44.0257 38.3204C44.0257 34.1768 47.1363 31.1437 51.3003 31.1437C53.5879 31.1437 55.5465 32.0387 56.8631 33.5304L58.2785 31.1437C56.5504 29.6022 54.1804 28.6409 51.3167 28.6409C45.2601 28.6409 41.2772 33.0829 41.2772 38.3039C41.2772 43.4088 45.1613 47.9669 51.2673 47.9669C54.2627 47.9669 56.6821 46.9392 58.4102 45.3315L56.9783 42.9613ZM37.8704 32.4033C36.3727 31.1105 34.5458 30.8453 33.295 30.8453C31.4023 30.8453 29.7236 31.6906 29.7236 33.2983C29.7236 36.9116 39.2858 36.9282 39.2858 42.9282C39.2858 46.8398 35.3193 48.1326 32.291 47.9834C30.2338 47.884 28.6702 47.4696 27.0244 46.3757V43.6906C28.6702 44.7514 30.1844 45.3315 31.929 45.4641C33.871 45.6133 36.6854 45.1657 36.6854 42.8453C36.6854 38.9503 27.0409 38.8343 27.0409 33.663C27.0409 30.5967 29.74 28.6243 33.0152 28.6243C35.1218 28.6243 36.5373 29.0884 37.9033 29.8508V32.4033H37.8704Z" fill="black"/>
</g>
<defs>
<clipPath id="clip0">
<rect width="97.9592" height="48" fill="white"/>
</clipPath>
</defs>
</svg>
