<svg width="64" height="64" xmlns="http://www.w3.org/2000/svg" xmlns:xlink="http://www.w3.org/1999/xlink"><defs><linearGradient x1="50%" y1="0%" x2="50%" y2="100%" id="c"><stop stop-color="#FFF" stop-opacity="0" offset="0%"/><stop stop-color="#FFF" offset="100%"/></linearGradient><path d="M36.95 47.959H11.009C4.929 47.959 0 43.029 0 36.949V11.01C0 4.93 4.929 0 11.009 0h25.94c6.08 0 11.01 4.929 11.01 11.01v25.94c0 6.08-4.93 11.009-11.01 11.009" id="b"/><filter x="-25%" y="-25%" width="150%" height="150%" filterUnits="objectBoundingBox" id="a"><feOffset in="SourceAlpha" result="shadowOffsetOuter1"/><feGaussianBlur stdDeviation="4" in="shadowOffsetOuter1" result="shadowBlurOuter1"/><feColorMatrix values="0 0 0 0 0 0 0 0 0 0 0 0 0 0 0 0 0 0 0.05 0" in="shadowBlurOuter1" result="shadowMatrixOuter1"/><feOffset dy="2" in="SourceAlpha" result="shadowOffsetOuter2"/><feGaussianBlur stdDeviation="2" in="shadowOffsetOuter2" result="shadowBlurOuter2"/><feColorMatrix values="0 0 0 0 0 0 0 0 0 0 0 0 0 0 0 0 0 0 0.05 0" in="shadowBlurOuter2" result="shadowMatrixOuter2"/><feOffset in="SourceAlpha" result="shadowOffsetOuter3"/><feGaussianBlur stdDeviation=".5" in="shadowOffsetOuter3" result="shadowBlurOuter3"/><feColorMatrix values="0 0 0 0 0 0 0 0 0 0 0 0 0 0 0 0 0 0 0.05 0" in="shadowBlurOuter3" result="shadowMatrixOuter3"/><feMerge><feMergeNode in="shadowMatrixOuter1"/><feMergeNode in="shadowMatrixOuter2"/><feMergeNode in="shadowMatrixOuter3"/></feMerge></filter></defs><g fill="none" fill-rule="evenodd"><g transform="translate(8 8)"><use fill="#000" filter="url(#a)" xlink:href="#b"/><use fill="#FCFC51" xlink:href="#b"/><use fill-opacity=".2" fill="url(#c)" xlink:href="#b"/></g><path d="M46.205 35.9c.242-.663.42-1.828-.453-2.46-.108-.729-.583-1.03-1.026-1.284l-.001-.002c-.35-.961-.743-1.172-1.758-1.302-.396-.937-1.288-1.413-2.5-1.267-.437-.383-1.367-1.097-2.513-.76-.948-.396-1.946-.68-2.867-.122-1.064-.33-1.675-.268-2.332.114-.51-.13-1.287-.27-2.038-.042-.341-.483-.532-.731-1.72-.9-.966-.137-.734-1.657-1.067-2.79-.27-.919-.845-1.218-1.023-1.374.158-1.166-.17-1.596-.526-1.995-.376-3.184-.879-4.513-1.362-5.284a4.08 4.08 0 0 0-1.055-1.128c-.016-.84-.454-2.323-1.3-2.165-.644-.886-1.481-1.283-2.1-1.283-.636 0-1.197.567-1.03 1.31.07.318.235.681.292.819-.445-.13-1.443-.372-1.635.138-.07.185.064.645 1.294 1.717-.568.458-.57 1.146-.358 1.45-.76.46-1.456 1.02-1.936 1.451-.301.27.014.698-.059.873-.138.332-.11.791.112.969.651.52 2.107.7 3.002.524.05.306.149.498.494.779a6.573 6.573 0 0 0-.341.81c-.167.499-.06.864.09 1.052-.418.587-.163 1.229.128 1.562-.264.666-.58.87-.67 1.692-.07.647.265 1.175.436 1.357-.129.385-.267.786-.26 1.128.009.392.164.74.502.934-.03.06-.435.817-.524 1.343-.082.488.077.88.205 1.063-.201.537-.214 1.06-.112 1.43.109.393.27.709.717.99-.088.71-.118 1.673.31 2.545.297.607 1.057 1.182 1.167 1.421.188.408.087 1.11.742 1.565-.003.047-.194 1.055.966 1.743.304.18.491.35.446.867-.037.418-.104 1.198.538 1.894-.075.63-.097 1.202.756 1.858-.285 1.417.583 1.992 1.04 2.178v.629c0 .379-.122.411-.373.54-.414.214-.75.45-.75.904 0 .287.254.55.564.593.16.022 1.04-.001 1.276-.001.562 0 .8-.388.8-.953v-1.779c.057-.022.111-.048.163-.078.577-.33.841-.852.774-1.856.6-.58.384-1.266.338-1.482.282-.219.307-.425.307-.425s.266.247.288.659c.022.414-.078.544-.078.95 0 .346.081.66.234.906.165.28.41.509.704.652v1.37c0 .379-.123.411-.375.54-.414.214-.75.45-.75.904 0 .287.254.55.564.593.16.022 1.04-.001 1.277-.001.562 0 .8-.388.8-.953v-2.484c.146-.079.87-.514.87-1.32 0-.571-.104-.624-.104-.94 0-.345.265-.5.265-1.102 0-.5-.278-.76-.27-1.03.012-.45.475-.552.54-1.23.056-.588-.188-.95-.325-1.096.964.745 1.767-.698 2.35-.975-.004.672.02 2.202.595 2.834.085.093.13.214.122.34-.029.431-.068 1.219-.002 1.765.09.751.343 1.265.83 1.565-.015.427.128 1.407.85 1.77.054.028.108.052.162.074v.746c0 .379-.123.411-.374.54-.414.214-.75.45-.75.904 0 .287.254.55.564.593.16.022 1.04-.001 1.276-.001.562 0 .8-.388.8-.953v-1.79c.821-.415 1.024-1.256 1.056-1.571.18-.04.483-.184.685-.562a1.67 1.67 0 0 0 .989 1.476v1.364c0 .379-.123.411-.375.54-.413.214-.75.45-.75.904 0 .287.254.55.564.593.16.022 1.04-.001 1.277-.001.562 0 .8-.388.8-.953v-2.528c.493-.288.831-.819.838-1.424a1.665 1.665 0 0 0-.132-.673.644.644 0 0 1 .04-.571c.098-.17.202-.35.208-.622.014-.624-.377-.924-.377-1.298 0-.61.386-.699.484-1.412.061-.444-.019-.746-.228-1.304-.17-.455.123-.688.253-1.077.126-.379.003-.883-.138-1.246.36-.38 1.44-1.56.973-2.975" fill="#030D54"/><path d="M20.97 18.518c-.037.045-.122.028-.236-.012-.113-.04-.322-.136-.502-.113-.18.023-.275.147-.322.16-.024.008-.068-.009-.086-.051-.08-.189.114-.374.227-.426.31-.142.623-.035.84.211.071.08.117.186.08.231" fill="#FFF"/><path d="M45.507 34.686c-.077-.493-.531-.45-.623-1.109-.084-.607-.779-.544-.967-1.073-.236-.663-.197-.629-1.159-.797-.76-.134-.492-1.037-1.459-1.239-.66-.138-.925.239-1.35-.168-.384-.37-1.004-.761-1.855-.604-.891.166-1.285-.91-2.657-.18-.52.277-1.249-.505-2.25.068-.532.304-1.321-.235-2.451.079-.825.228-.497-.826-1.777-.91-1.83-.121-1.502-2.295-1.864-3.392-.256-.776-.59-.7-.928-1.173-.3-.418 0-.878-.135-1.418-.11-.435-.44-.372-.541-1.215-.272-2.278-.688-3.834-1.217-4.658-.344-.537-.86-.977-1.187-1.065.14-1.169-.356-1.89-.55-1.816-.089.034-.046.578-.046.578s-.538-1.544-1.8-1.846c-.238-.056-.333.06-.306.202.122.643.603 1.81 1.388 2.8-.895 0-1.876.612-1.875 1.105 0 .273 1.36-.478 1.537-.093.113.242-.37.587-.202.81.202.27 1.369-.304 1.487 0 .124.322-.744.54-.744.81 0 .325.744.405.744.675 0 .427-1.014.135-1.014.405s.877.412.81.743c-.067.337-.675.135-1.216.405-.238.119-.274.443 0 .608.338.202.435.419.32.743-.154.436-.252.607-.387 1.012-.096.286 0 .405.135.405.279 0 .338.203 0 .608-.218.26-.282.48-.135.675.202.27.27.405.27.607 0 .755-.946 1.434-.608 2.296.172.44.717.3.262 1.245-.202.418-.238.84.076.983.412.187.395.448.024 1.275-.716 1.6.172 1.063-.16 2.168-.202.675 0 1.08.203 1.215.406.27.54.405.473 1.08-.055.554-.043 1.397.228 1.85.58.964 1.15.98 1.395 2.2.135.676.353.395.54.676.136.202.068.405.068.675 0 1.015 1.217.675 1.42 2.093.058.406-.136.742.067 1.283.119.316.542.596.473 1.012-.067.405-.067.743.203.945.23.172.67.539.54 1.013-.202.743.203 1.283.812 1.283.453 0 1.014-.203.946-.945-.039-.426-.014-.718.27-.945.338-.27-.093-.747.068-1.148.135-.338.428-.378.554-.695.207-.52-.076-.746-.135-1.042-.106-.53.15-.716.324-1.2.176-.489-.05-1.059-.117-1.487-.052-.26-.097-.554-.132-.87-.107-.95.044-1.865.275-1.884.231-.02.498.813.628 1.88.035.285.096.553.15.792.254-.066.465-.145.937.127.179.103.54.325.925.162.762-.324 1.182-1.192 1.74-.398.396.562.937-.88 1.89-1.007-.016-.964.122-1.519.337-1.537.27-.023.557.798.68 2.245l.035.426c.087.762.017 1.701.426 2.125.67.694-.156 2.935.676 3.416.646.373.141.971.608 1.593.406.54 1.146.456 1.42-.068.349-.67-.01-.907.743-1.375.687-.426.251-1.468.293-2.052.045-.636.738-.463.924-.907.157-.377-.25-.974.338-1.552.613-.602.886-1.17.737-1.765l-.01-.031-.034-.113c-.006-.017-.011-.033-.018-.049a.464.464 0 0 1-.027-.104 1.483 1.483 0 0 1-.061-.432c.007-.247.12-.462.25-.668 1.177-1.878.949-3.352.6-4.786-.031-.131-.038-.265.01-.296.048-.03.128-.011.29.152.16.163.302.426.412.722.121.33.243.731.296 1.19.054.46.062.973-.03 1.511a3.71 3.71 0 0 1-.344 1.047 2.88 2.88 0 0 1-.141.246c.607-.316 1.49-1.717 1.18-2.65-.233-.701.211-.623.075-1.502" fill="#63FFD4"/><path d="M38.8 39.6c-.091.026-.226-.14-.389-.413-.164-.274-.362-.654-.582-1.073-.22-.418-.26-.48-.39-.771-.132-.292-.19-.497-.115-.556.073-.058.267.044.508.278.563.63.898 1.303 1.032 1.958.053.333.025.55-.064.576M40.615 32.102c-.561-.326-1.008-.576-.905-.753.103-.177.682-.107 1.244.22.562.325.894.782.791.96-.103.177-.568-.102-1.13-.427M36.576 30.882c-.57-.06-1.028-.18-1.009-.36.02-.18.509-.35 1.078-.29.57.06 1.003.328.984.507-.019.18-.484.203-1.053.143M24.736 38.735c.324.676.523 1.23.346 1.314-.176.084-.66-.333-.985-1.008-.324-.676-.365-1.354-.189-1.439.177-.084.504.457.828 1.133M38.518 41.686c.14.54.22.966.016 1.018-.203.052-.48-.343-.62-.884-.14-.54-.088-1.021.115-1.074.203-.052.35.4.49.94M38.929 32.295c-.041.173-.42.233-.844.132-.426-.1-.737-.323-.696-.496.041-.174.42-.233.845-.133s.736.323.695.497M23.115 31.775c-.183.04-.53-.442-.648-1.078-.088-.475-.098-1.063.11-1.109.21-.045.493.51.578 1.015.078.458.144 1.132-.04 1.172M24.006 29.484c-.073.028-.209-.076-.293-.223a1.875 1.875 0 0 1-.242-.667c-.047-.237-.071-.437-.045-.636.028-.217.093-.366.187-.385.09-.019.198.093.292.276.085.164.16.385.201.622.05.281.066.538.051.682-.017.164-.055.294-.151.33M23.045 35.306c-.183.052-.51-.54-.73-1.322-.221-.782-.251-1.457-.068-1.508.183-.052.51.54.73 1.322.22.781.25 1.457.068 1.508M22.481 27.074c.045.555 0 1.017-.168 1.03-.168.014-.375-.425-.42-.98-.045-.556.088-1.017.257-1.03.167-.014.286.425.331.98M22.882 23.835c.045.555-.02 1.016-.189 1.03-.168.013-.374-.426-.42-.98-.044-.556.089-1.017.257-1.03.168-.014.307.425.352.98" fill="#030D54"/></g></svg>