<svg width="198" height="73" viewBox="0 0 198 73" fill="none" xmlns="http://www.w3.org/2000/svg">
<path fill-rule="evenodd" clip-rule="evenodd" d="M82.7082 33.5048C81.3242 41.3872 83.5609 47.6991 85.8879 54.0178C87.5947 58.6518 90.6786 65.4427 96.356 72.654C93.493 31.496 90.3473 22.1895 87.8759 22.1085C85.6662 22.0352 83.4427 29.3167 82.7082 33.5048Z" fill="#4629D3"/>
<path fill-rule="evenodd" clip-rule="evenodd" d="M96.7104 72.0932C94.6599 71.6844 97.4827 51.402 100.863 37.7878C101.852 33.8057 102.58 31.6357 103.162 31.6935C104.298 31.8054 104.691 40.3458 104.065 47.4715C102.967 59.9741 98.3531 72.4203 96.7104 72.0932Z" fill="#4629D3"/>
<path fill-rule="evenodd" clip-rule="evenodd" d="M97.027 72.6671C95.9535 73.8497 75.8423 59.9046 77.0525 50.9799C77.1143 50.5194 77.3151 49.0444 78.1376 48.7736C79.8166 48.2182 82.5074 53.1986 86.4733 59.0298C93.411 69.2304 97.5136 72.131 97.027 72.6671ZM107.596 65.5221C108.198 68.4736 100.611 73.2164 99.3803 72.0924C98.4805 71.2693 100.985 67.3149 101.103 67.1321C102.054 65.6463 103.42 63.5164 105.211 63.6452C106.221 63.7178 107.389 64.51 107.596 65.5221Z" fill="#4629D3"/>
<path fill-rule="evenodd" clip-rule="evenodd" d="M143.723 70.4282C143.723 59.97 114.704 58.1602 119.872 49.9144C124.248 42.933 131.996 55.5458 134.778 51.7242C137.561 47.9033 118.032 37.5962 124.642 32.4177C130.803 27.5908 134.717 51.6494 140.94 45.0876C145.821 39.9406 117.485 21.1502 125.437 15.3236C131.201 11.1 136.851 34.6378 140.344 29.2C142.928 25.1778 124.715 2.20388 135.772 0.843081C144.36 -0.213776 137.363 23.368 144.716 23.7699C153.649 24.2582 152.662 -0.969777 160.816 3.86014C168.964 8.68697 146.903 27.3902 150.679 30.8092C156.231 35.8351 166.634 17.3817 169.361 27.3902C170.952 33.2222 162.173 36.2671 151.871 39.8588C143.09 42.9207 142.187 53.3411 154.654 48.9093C162.008 46.2941 169.163 33.6242 174.331 37.8477C180.905 43.2207 163.201 51.5236 154.654 53.5347C147.234 55.2805 145.904 60.6535 156.642 61.3778C165.586 61.9811 162.604 68.6177 155.051 67.6125C146.105 66.4214 143.723 77.0648 143.723 70.4282Z" fill="#FF7264"/>
<path fill-rule="evenodd" clip-rule="evenodd" d="M181.032 72.4506C180.981 70.478 179.252 69.01 177.593 67.9732C175.932 66.9364 174.056 65.905 173.343 64.0682C173.03 63.2636 173.025 62.2392 173.648 61.6467C174.375 60.954 175.58 61.1839 176.434 61.7092C177.288 62.2353 178 63.006 178.93 63.377C179.22 63.4927 179.548 63.566 179.841 63.4573C180.526 63.2019 180.535 62.1967 180.212 61.5341C179.534 60.1401 178.085 59.3432 176.955 58.2918C175.489 56.915 174.538 55.0791 174.259 53.0885C174.074 51.7323 174.424 50.0375 175.708 49.6047C176.908 49.202 178.132 50.1702 178.869 51.2093C179.492 52.0872 179.968 53.0596 180.28 54.089C180.553 54.9916 180.773 56.0407 181.581 56.5129C182.494 57.0475 183.744 56.4743 184.252 55.5378C184.76 54.602 184.687 53.4526 184.437 52.415C184.029 50.7291 183.196 49.175 182.019 47.8999C180.813 46.5992 179.206 45.5246 178.693 43.819C178.288 42.4713 178.677 40.9933 179.358 39.7651C180.281 38.1035 182.077 36.6594 183.911 37.0945C185.212 37.403 186.164 38.6034 186.552 39.8963C186.942 41.19 186.862 42.5755 186.741 43.9216C186.564 45.8893 186.305 47.8488 185.966 49.7953C185.804 50.731 185.732 51.9244 186.551 52.3903C187.206 52.7637 188.094 52.3487 188.446 51.676C188.799 51.0041 188.727 50.1817 188.512 49.4527C188.3 48.7392 187.961 47.9747 188.238 47.2843C188.482 46.6779 189.143 46.3416 189.784 46.2536C191.869 45.9697 193.87 48.2246 193.367 50.2921C192.733 52.8995 189.431 53.7349 187.843 55.8857C187.712 56.0631 187.588 56.2753 187.632 56.4913C187.719 56.9117 188.303 56.9495 188.71 56.8268C189.992 56.4373 191.03 55.4815 192.263 54.953C193.496 54.4246 195.221 54.5164 195.826 55.7245C196.317 56.7049 195.779 57.9508 194.914 58.615C194.049 59.2792 192.945 59.5099 191.886 59.749C190.827 59.9897 189.724 60.2844 188.932 61.0357C188.656 61.2973 188.415 61.6452 188.437 62.0263C188.464 62.5015 188.887 62.8594 189.324 63.0353C190.332 63.4418 191.471 63.1927 192.52 62.9119C193.569 62.6303 194.678 62.3217 195.721 62.6218C196.766 62.9227 197.641 64.106 197.203 65.1104C197 65.5748 196.575 65.8942 196.152 66.1673C194.733 67.083 193.06 67.731 191.387 67.5319C190.4 67.4147 189.472 67.0105 188.512 66.7466C187.409 66.4433 186.263 66.3247 185.121 66.3956C184.789 66.4165 184.429 66.4681 184.199 66.7119C183.736 67.2033 184.205 68.0773 184.842 68.2903C185.479 68.5032 186.169 68.3149 186.838 68.2671C187.508 68.2177 188.303 68.3959 188.571 69.0177C188.911 69.8077 188.107 70.6771 187.272 70.846C186.437 71.0157 185.577 70.765 184.726 70.7866C183.714 70.8177 182.75 71.2264 182.025 71.9322C181.854 72.0996 181.676 72.294 181.439 72.3179C181.203 72.3433 180.95 72.0556 181.099 71.8689" fill="#030D54"/>
<path d="M21.4963 57.4108C23.3336 63.0499 16.6283 70.8282 9.83577 71.3544C9.2017 71.4037 5.00723 71.6629 2.28325 68.6729C-1.36519 64.6684 -0.500214 56.8978 3.87267 53.2543C9.51293 48.5556 19.6721 51.8148 21.4963 57.4108Z" fill="#BABABA"/>
<path d="M26.0468 63.1201C24.0233 65.1513 23.6951 69.1373 25.3849 70.8961C26.0992 71.6401 26.8491 71.6474 32.2294 71.6998L32.4076 71.7015L32.6066 71.7034C38.2224 71.7566 39.0777 71.7647 39.5617 71.0304C40.5873 69.479 38.8781 66.2583 36.9126 64.4609C34.167 61.9499 28.8426 60.3152 26.0468 63.1201Z" fill="#BABABA"/>
<path d="M67.4957 67.1169C65.6615 66.5082 63.4086 67.9593 63.3885 69.2622C63.3708 70.3986 65.0575 71.1885 65.2429 71.2734C66.7474 71.9568 69.0806 71.845 69.6158 70.603C70.1031 69.4713 69.0064 67.6176 67.4957 67.1169Z" fill="#BABABA"/>
</svg>
