<svg width="132" height="101" viewBox="0 0 132 101" fill="none" xmlns="http://www.w3.org/2000/svg">
<path d="M7.81445 95.7016V79.4434H10.1291V85.5213L10.6344 85.247C11.8279 84.6045 12.6989 84.3302 13.7071 84.3302C16.4356 84.3302 18.5675 86.6473 18.5675 90.1098C18.5675 93.5963 16.5728 95.8893 13.6133 95.8893C12.6268 95.8893 11.6186 95.5693 10.5165 94.9726L9.91982 94.6526L9.53 95.7065H7.81445V95.7016ZM10.1291 92.6988C10.1291 92.86 10.1532 92.9274 10.312 93.0188C10.9544 93.3845 12.1695 93.7527 13.2018 93.7527C14.9895 93.7527 16.2046 92.9274 16.2046 90.1074C16.2046 87.4462 15.0353 86.5078 13.2234 86.5078C12.1455 86.5078 10.9304 86.8976 10.312 87.2417C10.1748 87.3114 10.1291 87.3788 10.1291 87.54V92.6988Z" fill="black"/>
<path d="M27.6705 84.7634C27.762 84.5565 27.8077 84.5107 28.0387 84.5107H30.1248L23.313 101L21.1812 100.54L23.2673 95.7715L18.3828 84.5107H20.493C20.7216 84.5107 20.7914 84.5348 20.8828 84.7634L23.1085 89.9679C23.6138 91.1613 24.1167 92.4678 24.3693 93.3148C24.622 92.5112 25.1032 91.2503 25.6301 89.9438L27.6705 84.7634Z" fill="black"/>
<path d="M43.9581 87.808H42.9909C42.9211 86.896 42.5674 86.2271 41.9298 85.8012C41.2921 85.3729 40.2864 85.1612 38.9125 85.1612C36.5713 85.1612 35.4019 85.8758 35.4019 87.3051C35.4019 88.3277 36.1237 88.9388 37.5674 89.1337L40.9938 89.5957C43.2507 89.9037 44.3768 90.8854 44.3768 92.5384C44.3768 94.6823 42.6612 95.7554 39.2277 95.7554C35.8639 95.7554 34.1122 94.5235 33.9727 92.0572H34.9399C35.0386 92.8969 35.2912 93.5153 35.6978 93.9075C36.398 94.5788 37.6588 94.9157 39.4803 94.9157C42.1006 94.9157 43.4119 94.1241 43.4119 92.5408C43.4119 91.434 42.6901 90.7819 41.2464 90.587L37.464 90.0818C35.4452 89.8147 34.437 88.9124 34.437 87.37C34.437 86.5856 34.7306 85.9264 35.3201 85.3946C36.1045 84.68 37.3172 84.3239 38.9558 84.3239C42.1222 84.3191 43.7897 85.4836 43.9581 87.808Z" fill="black"/>
<path d="M45.3691 90.036C45.3691 88.4527 45.9009 87.1221 46.9668 86.0418C48.1025 84.894 49.5943 84.319 51.4446 84.319C53.295 84.319 54.7867 84.894 55.9224 86.0418C56.9883 87.1221 57.5201 88.4527 57.5201 90.036C57.5201 91.6192 56.9883 92.9498 55.9224 94.0301C54.7867 95.1803 53.295 95.7529 51.4446 95.7529C49.5943 95.7529 48.1025 95.1779 46.9668 94.0301C45.9009 92.9522 45.3691 91.6192 45.3691 90.036ZM46.334 90.036C46.334 91.3665 46.7623 92.4878 47.6164 93.3997C48.5548 94.4079 49.8301 94.9132 51.4422 94.9132C53.0543 94.9132 54.3296 94.4079 55.268 93.3997C56.1221 92.4878 56.5505 91.369 56.5505 90.036C56.5505 88.7054 56.1221 87.5841 55.268 86.6722C54.3296 85.664 53.0543 85.1587 51.4422 85.1587C49.8301 85.1587 48.5548 85.664 47.6164 86.6722C46.7623 87.5841 46.334 88.7054 46.334 90.036Z" fill="black"/>
<path d="M60.3732 95.4187V85.4982H57.8516V84.6584H60.3732V83.0391C60.3732 82.1151 60.5488 81.4414 60.8977 81.0203C61.3188 80.5295 62.0551 80.2841 63.1042 80.2841C63.3977 80.2841 63.9511 80.325 64.7644 80.4092V81.2489C64.3024 81.1647 63.7899 81.1238 63.2293 81.1238C61.9685 81.1238 61.3381 81.6628 61.3381 82.7431V84.656H64.4492V85.4958H61.3381V95.4163H60.3732V95.4187Z" fill="black"/>
<path d="M64.832 90.036C64.832 88.4527 65.3638 87.1221 66.4297 86.0418C67.5654 84.894 69.0572 84.319 70.9075 84.319C72.7578 84.319 74.2497 84.894 75.3854 86.0418C76.4513 87.1221 76.983 88.4527 76.983 90.036C76.983 91.6192 76.4513 92.9498 75.3854 94.0301C74.2497 95.1803 72.7578 95.7529 70.9075 95.7529C69.0572 95.7529 67.5654 95.1779 66.4297 94.0301C65.3638 92.9522 64.832 91.6192 64.832 90.036ZM65.7993 90.036C65.7993 91.3665 66.2276 92.4878 67.0818 93.3997C68.0202 94.4079 69.2954 94.9132 70.9075 94.9132C72.5196 94.9132 73.7949 94.4079 74.7333 93.3997C75.5874 92.4878 76.0158 91.369 76.0158 90.036C76.0158 88.7054 75.5874 87.5841 74.7333 86.6722C73.7949 85.664 72.5196 85.1587 70.9075 85.1587C69.2954 85.1587 68.0202 85.664 67.0818 86.6722C66.2252 87.5841 65.7993 88.7054 65.7993 90.036Z" fill="black"/>
<path d="M79.7544 80.4092H78.7871V95.4163H79.7544V80.4092Z" fill="black"/>
<path d="M81.5625 90.036C81.5625 88.4527 82.0942 87.1221 83.1601 86.0418C84.2958 84.894 85.7877 84.319 87.638 84.319C89.4883 84.319 90.9801 84.894 92.1158 86.0418C93.1817 87.1221 93.7135 88.4527 93.7135 90.036C93.7135 91.6192 93.1817 92.9498 92.1158 94.0301C90.9801 95.1803 89.4883 95.7529 87.638 95.7529C85.7877 95.7529 84.2958 95.1779 83.1601 94.0301C82.0942 92.9522 81.5625 91.6192 81.5625 90.036ZM82.5298 90.036C82.5298 91.3665 82.9581 92.4878 83.8123 93.3997C84.7507 94.4079 86.0259 94.9132 87.638 94.9132C89.2501 94.9132 90.5253 94.4079 91.4637 93.3997C92.3179 92.4878 92.7462 91.369 92.7462 90.036C92.7462 88.7054 92.3203 87.5841 91.4637 86.6722C90.5253 85.664 89.2501 85.1587 87.638 85.1587C86.0259 85.1587 84.7507 85.664 83.8123 86.6722C82.9581 87.5841 82.5298 88.7054 82.5298 90.036Z" fill="black"/>
<path d="M105.755 86.841V84.6538H106.723V94.8895C106.723 98.3231 104.759 100.039 100.837 100.039C99.1144 100.039 97.8102 99.7643 96.9272 99.2181C95.9888 98.6431 95.4354 97.7119 95.267 96.4222H96.2342C96.4869 98.2725 98.022 99.1965 100.837 99.1965C104.117 99.1965 105.755 97.7745 105.755 94.9304V92.7023H105.714C104.802 94.4251 103.121 95.2865 100.669 95.2865C98.7077 95.2865 97.2087 94.7187 96.1693 93.583C95.2742 92.6013 94.8242 91.3212 94.8242 89.7356C94.8242 88.2077 95.2862 86.9541 96.2126 85.9724C97.264 84.8655 98.7559 84.3121 100.69 84.3121C103.171 84.3121 104.846 85.1471 105.714 86.8145L105.755 86.841ZM100.688 85.1615C99.3141 85.1615 98.1808 85.5272 97.2833 86.2539C96.2896 87.0816 95.7915 88.2293 95.7915 89.7019C95.7915 91.2298 96.2246 92.404 97.0957 93.2221C97.9643 94.0425 99.1986 94.4516 100.796 94.4516C102.266 94.4516 103.445 94.0666 104.328 93.2942C105.281 92.4545 105.758 91.249 105.758 89.6778C105.758 88.263 105.31 87.1562 104.413 86.3574C103.513 85.5609 102.271 85.1615 100.688 85.1615Z" fill="black"/>
<path d="M113.049 95.4188L107.604 84.6561H108.696L113.53 94.3456L117.964 84.6561H119.057L113.13 97.31C112.808 97.9837 112.486 98.4577 112.163 98.7392C111.728 99.1026 111.126 99.2854 110.356 99.2854H109.011V98.4457H110.168C110.784 98.4457 111.222 98.3326 111.482 98.1088C111.74 97.8851 112.081 97.3509 112.5 96.5112L113.049 95.4188Z" fill="black"/>
<path d="M64.2365 98.8138C64.2365 99.0688 64.0103 99.2758 63.7312 99.2758H51.099C50.8199 99.2758 50.5938 99.0688 50.5938 98.8138C50.5938 98.5587 50.8199 98.3518 51.099 98.3518H63.7312C64.0079 98.3518 64.2365 98.5587 64.2365 98.8138Z" fill="#009EE2"/>
<path d="M78.5901 98.8138C78.5901 99.0688 78.3639 99.2758 78.0848 99.2758H65.4526C65.1735 99.2758 64.9473 99.0688 64.9473 98.8138C64.9473 98.5587 65.1735 98.3518 65.4526 98.3518H78.0848C78.3639 98.3518 78.5901 98.5587 78.5901 98.8138Z" fill="#E5007E"/>
<path d="M92.9475 98.8138C92.9475 99.0688 92.7213 99.2758 92.4422 99.2758H79.81C79.5309 99.2758 79.3047 99.0688 79.3047 98.8138C79.3047 98.5587 79.5309 98.3518 79.81 98.3518H92.4422C92.7213 98.3518 92.9475 98.5587 92.9475 98.8138Z" fill="#FFEC00"/>
<path d="M87.1865 20.5719C80.0029 13.3883 68.3556 13.3883 61.1705 20.5719C57.5787 24.1637 48.1626 33.5799 48.1626 33.5799L45.4412 36.3012L41.8133 39.9291C38.3126 43.4298 32.6155 43.4298 29.1148 39.9291C25.6141 36.4284 25.6141 30.7313 29.1148 27.2306C32.6155 23.7299 38.3126 23.7299 41.8133 27.2306L46.2654 31.6828L52.9241 25.024C51.1875 23.2874 49.5608 21.6607 48.472 20.5719C41.2884 13.3883 29.6411 13.3883 22.4561 20.5719C15.2725 27.7555 15.2725 39.4042 22.4561 46.5878C29.6396 53.7714 41.287 53.7714 48.472 46.5878C52.0638 42.996 61.48 33.5799 61.48 33.5799L63.0734 31.9864L67.8292 27.2306C71.3299 23.7299 77.0271 23.7299 80.5278 27.2306C84.0285 30.7313 84.0285 36.4284 80.5278 39.9291C77.0271 43.4298 71.3299 43.4298 67.8292 39.9291L63.3771 35.477L56.7184 42.1357C58.455 43.8723 60.0817 45.499 61.1705 46.5878C68.3541 53.7714 80.0014 53.7714 87.1865 46.5878C94.3701 39.4028 94.3701 27.7555 87.1865 20.5719Z" fill="black"/>
<path d="M105.549 48.6177V68.108H96.1328V15.7682H103.286L104.6 19.0534L107.74 17.5207C111.171 15.8419 113.214 15.1854 115.915 15.1854C124.749 15.1854 131.537 22.5584 131.537 33.5811C131.537 44.7498 125.041 51.9767 115.989 51.9767C113.142 51.9767 110.368 51.0282 107.594 49.6401L105.549 48.6177ZM105.549 40.3685C105.549 41.171 105.695 41.4631 106.279 41.7552C108.032 42.5577 111.023 43.2879 113.58 43.2879C118.982 43.2879 121.901 40.9527 121.901 33.5796C121.901 26.4264 119.054 24.016 113.58 24.016C110.807 24.016 108.032 24.7462 106.279 25.6224C105.549 25.9868 105.549 26.2789 105.549 27.0091V40.3685Z" fill="black"/>
<path d="M15.4039 50.2967C13.6514 51.173 10.3676 51.9755 8.17696 51.9755C5.69567 51.9755 3.57734 51.0992 2.19065 49.7125C0.73022 48.1798 0 46.1352 0 43.2881V0H9.41762V44.092L15.4039 45.3327V50.2967Z" fill="black"/>
</svg>
