<svg width="1440" height="750"  preserveAspectRatio="none" xmlns="http://www.w3.org/2000/svg" xmlns:xlink="http://www.w3.org/1999/xlink"><defs><linearGradient x1="50%" y1="0%" x2="50%" y2="100%" id="b"><stop stop-color="#FFF" offset="0%"/><stop stop-color="#FFF" stop-opacity="0" offset="100%"/></linearGradient><path d="M1631 545.914c-92.486-181.076-166.15-272.513-220.99-274.31-82.262-2.697-194.9 40.739-258.548-2.697-63.647-43.435-167.099-47.501-228.452-29.41-61.353 18.092-150.563-17.054-202.586-68.746-52.024-51.693-113.762-58.434-200.554-38.63-86.791 19.804-131.86-16.733-165.892-73.704-34.03-56.972-69.086-63.883-131.459-53.36-62.373 10.524-87.038 62.144-172.462 62.144-56.949 0-64.635-14.119-23.057-42.356L17.662 260.84 1631 545.914z" id="a"/></defs><g fill="none" fill-rule="evenodd"><path d="M1290.51 74.362c-.979 1.104-3.314.7-6.378-.145-1.53-.44-3.286-.948-5.179-1.517-1.912-.533-3.969-1.11-6.15-1.644-2.19-.508-4.286-.924-6.232-1.31a455.952 455.952 0 0 1-5.307-.987c-3.115-.629-5.381-1.322-5.754-2.749-.362-1.35 1.406-3.262 5.021-4.593 1.795-.674 4.033-1.123 6.551-1.273a30.12 30.12 0 0 1 8.144.76 30.098 30.098 0 0 1 7.609 3c2.179 1.27 3.972 2.682 5.271 4.094 2.623 2.82 3.337 5.321 2.404 6.364zm-98.2 27.044c-2.516-1.597 2.068-12.55 10.236-24.46 8.168-11.911 16.83-20.271 19.345-18.673 2.516 1.598-2.068 12.548-10.236 24.46-8.168 11.91-16.829 20.27-19.345 18.673zm-20.937 24.243c-.19-1.533 2.824-3.162 7.285-5.463.557-.296 1.14-.594 1.747-.891.607-.302 1.217-.67 1.858-1.002 1.297-.642 2.618-1.45 4.03-2.218 2.78-1.64 5.758-3.498 8.768-5.638 2.984-2.175 5.697-4.412 8.142-6.53 1.18-1.098 2.368-2.096 3.392-3.122.522-.506 1.066-.968 1.546-1.448.477-.483.946-.942 1.405-1.378 3.612-3.508 6.123-5.856 7.492-5.169.658.335.894 1.383.72 3.055-.076.841-.272 1.828-.636 2.91-.353 1.088-.765 2.344-1.415 3.615a69.081 69.081 0 0 1-1.013 2.016c-.369.694-.818 1.368-1.264 2.087-.874 1.454-1.985 2.868-3.166 4.36a51.137 51.137 0 0 1-9.016 8.405 50.918 50.918 0 0 1-10.805 5.859c-1.782.639-3.468 1.237-5.112 1.596-.817.189-1.594.397-2.362.521-.77.119-1.51.222-2.215.307-1.401.204-2.708.185-3.84.167a12.451 12.451 0 0 1-2.925-.347c-1.618-.383-2.519-.952-2.616-1.692zm127.364-21.354c-1.219.905-4.112-.947-8.375-3.584a57.367 57.367 0 0 1-1.664-1.035c-.571-.362-1.208-.684-1.827-1.057-1.221-.77-2.612-1.454-4.01-2.24-2.872-1.462-6.052-2.947-9.5-4.259-3.465-1.265-6.844-2.224-9.98-3-1.574-.322-3.075-.717-4.505-.936-.714-.124-1.407-.297-2.078-.398a58.673 58.673 0 0 1-1.94-.307c-4.963-.802-8.371-1.3-8.683-2.775-.145-.707.538-1.516 1.982-2.382.36-.216.768-.436 1.222-.659.455-.207.959-.383 1.504-.574 1.093-.362 2.36-.788 3.788-1.007a73.97 73.97 0 0 1 2.253-.37c.79-.11 1.61-.134 2.465-.19 1.716-.142 3.54-.041 5.471.067a48.397 48.397 0 0 1 12.228 2.736 48.18 48.18 0 0 1 11.015 5.926c1.523 1.18 2.96 2.296 4.156 3.522.606.6 1.206 1.154 1.724 1.752.516.603.998 1.186 1.45 1.75.926 1.096 1.594 2.244 2.174 3.229.283.5.546.96.749 1.414.193.463.351.894.479 1.293.507 1.593.483 2.647-.098 3.084zm4.08-48.247c.818-2.878 11.01-2.394 22.763 1.082 11.756 3.475 20.622 8.624 19.805 11.502-.82 2.876-11.01 2.392-22.765-1.083-11.754-3.474-20.621-8.623-19.804-11.501zm-107.623-21.864c-.33-1.425 2.87-3.635 8.59-5.524 2.854-.95 6.335-1.76 10.253-2.352a83.106 83.106 0 0 1 12.85-.803c4.571.093 8.915.564 12.814 1.26 3.897.728 7.35 1.662 10.171 2.713 5.656 2.09 8.785 4.413 8.409 5.826-.386 1.476-4.126 1.802-9.798 1.708a477.835 477.835 0 0 1-9.85-.318c-3.68-.118-7.7-.261-11.92-.348-4.223-.064-8.245-.063-11.926-.074-3.677.021-7.016.012-9.855-.032-5.672-.108-9.399-.567-9.738-2.056zm-43.995 69.2c-2.292-1.71 2.523-12.744 10.752-24.641 8.23-11.899 16.76-20.157 19.05-18.448 2.293 1.71-2.522 12.741-10.752 24.64-8.23 11.898-16.759 20.158-19.05 18.448zm114.745 39.41c-1.01 1.002-3.632.233-6.987-1.993-3.352-2.22-7.403-5.927-11.143-10.634-3.737-4.71-6.425-9.493-7.823-13.256-1.404-3.767-1.552-6.49-.344-7.242 1.225-.763 3.559.557 6.438 3.15 2.88 2.6 6.336 6.454 9.875 10.915 3.54 4.456 6.509 8.695 8.386 12.088 1.871 3.388 2.624 5.959 1.598 6.972zm60.012 15.083c-1.148.915-4.558-1.363-9.353-5.47-4.797-4.11-11.044-9.998-17.942-16.483-6.908-6.477-13.175-12.341-17.585-16.871-4.4-4.53-6.895-7.794-6.067-9.008.805-1.182 4.82-.063 10.528 3.07 5.7 3.126 13.04 8.343 20.263 15.116 7.215 6.784 12.893 13.788 16.385 19.295 3.501 5.512 4.887 9.463 3.771 10.35zm8.909-31.092c-1.487.32-3.28-1.859-5.416-5.26a213.987 213.987 0 0 1-3.527-5.929l-4.205-7.099-4.377-6.995a214.53 214.53 0 0 1-3.65-5.856c-2.042-3.456-3.149-6.046-2.175-7.205.932-1.115 3.87-.527 7.65 1.91 1.89 1.208 3.937 2.91 5.989 5.02a45.9 45.9 0 0 1 5.812 7.574 45.674 45.674 0 0 1 4.054 8.629c.93 2.785 1.496 5.374 1.695 7.597.418 4.457-.423 7.313-1.85 7.614zm18.603 14.01c-1.402-.078-2.509-2.82-3.453-7.063-.941-4.254-1.783-10.014-2.602-16.375-.827-6.357-1.479-12.143-1.652-16.505-.168-4.352.202-7.297 1.534-7.753 1.302-.447 3.34 1.74 5.328 5.85 1.988 4.098 3.85 10.143 4.745 17.03.888 6.886.627 13.225-.249 17.72-.873 4.507-2.283 7.172-3.651 7.096zm-41.729 59.285c-.81-1.257 1.012-3.922 4.18-7.498a250.95 250.95 0 0 1 5.624-6.063l6.825-7.26 6.712-7.363a248.594 248.594 0 0 1 5.613-6.074c3.322-3.435 5.846-5.464 7.179-4.772 1.284.662 1.1 4.004-.78 8.774-.93 2.384-2.324 5.087-4.125 7.937a64.37 64.37 0 0 1-6.711 8.665 64.753 64.753 0 0 1-8.137 7.373c-2.708 2.025-5.307 3.632-7.625 4.756-4.633 2.265-7.977 2.736-8.755 1.525zm-25.22 20.18c-1.468-.025-2.856-2.647-3.222-7.082-.193-2.21-.065-4.846.415-7.73a41.925 41.925 0 0 1 2.744-9.1 42.43 42.43 0 0 1 4.806-8.248c1.793-2.342 3.648-4.265 5.413-5.667 3.527-2.83 6.427-3.68 7.467-2.67 1.093 1.056.245 3.701-1.377 7.288a341.73 341.73 0 0 1-2.895 6.112c-1.059 2.268-2.216 4.725-3.365 7.332-1.126 2.621-2.134 5.138-3.07 7.457-.9 2.328-1.747 4.452-2.495 6.275-1.52 3.632-2.88 6.065-4.42 6.033zm49.753 41.225c-.759 1.21-3.682.952-7.648-1.072-1.982-1-4.173-2.48-6.414-4.374a45.91 45.91 0 0 1-6.526-6.974 46.567 46.567 0 0 1-4.912-8.242c-1.213-2.7-2.047-5.246-2.483-7.462-.89-4.436-.382-7.391.958-7.828 1.397-.463 3.35 1.555 5.775 4.76a256.16 256.16 0 0 1 4.055 5.598c1.505 2.077 3.128 4.34 4.874 6.683 1.765 2.33 3.486 4.513 5.06 6.533a260.32 260.32 0 0 1 4.248 5.448c2.406 3.222 3.81 5.67 3.013 6.93zm20.453-.774c-1.459-.234-2.269-3.118-3.051-7.372l-1.272-7.347c-.501-2.72-1.055-5.676-1.727-8.762-.7-3.08-1.452-5.99-2.152-8.665-.734-2.688-1.398-5.117-1.962-7.188-1.097-4.182-1.587-7.14-.367-7.984 1.153-.808 3.887.75 6.909 4.518 1.516 1.872 3.03 4.314 4.41 7.186a48.987 48.987 0 0 1 3.344 9.807 49.232 49.232 0 0 1 1.134 10.313c-.03 3.194-.362 6.057-.938 8.407-1.134 4.717-2.943 7.313-4.328 7.087zm-85.606 39.963c-1.087-2.694 8.545-9.057 21.513-14.212 12.969-5.155 24.362-7.15 25.45-4.456 1.087 2.693-8.545 9.056-21.514 14.211-12.968 5.155-24.362 7.15-25.45 4.457zm66.833 47.988c-1.283.51-3.85-2.318-6.189-7.839-.576-1.377-1.158-2.912-1.635-4.604-.541-1.68-.935-3.517-1.339-5.46a65.684 65.684 0 0 1-1.07-12.857 65.465 65.465 0 0 1 1.578-12.792c.482-1.923.948-3.74 1.552-5.391a39.862 39.862 0 0 1 1.818-4.525c2.556-5.406 5.231-8.11 6.493-7.54 1.353.603 1.123 4.254.522 9.68-.145 1.362-.337 2.83-.48 4.411-.205 1.567-.317 3.252-.506 5.002-.283 3.52-.538 7.358-.635 11.399-.063 4.043.039 7.89.183 11.42.12 1.756.165 3.445.307 5.02.08 1.587.214 3.062.306 4.429.385 5.45.47 9.11-.905 9.647zm24.897 21.525c-1.53.011-2.862-3.688-4.154-9.548-1.289-5.867-2.623-13.895-4.097-22.753-1.486-8.853-2.836-16.879-3.525-22.843-.683-5.956-.624-9.876.828-10.342 1.411-.454 3.967 2.682 6.617 8.334 2.65 5.642 5.3 13.828 6.862 23.133 1.55 9.307 1.703 17.891 1.027 24.063-.671 6.183-2.072 9.948-3.558 9.956zm-55.77 5.671c-.12-1.397 1.765-2.858 5.021-3.915 3.247-1.057 7.87-1.664 12.943-1.362 5.074.304 9.581 1.456 12.666 2.892 3.093 1.437 4.772 3.11 4.473 4.482-.303 1.392-2.481 2.234-5.688 2.657-3.214.42-7.464.46-12.118.178-4.654-.274-8.867-.819-12.002-1.618-3.126-.803-5.177-1.897-5.296-3.314zm9.995 36.852c-1.06-.965-.535-3.61 1.708-6.903 1.113-1.647 2.678-3.405 4.62-5.137a38.124 38.124 0 0 1 6.943-4.803 38.132 38.132 0 0 1 7.844-3.106c2.518-.653 4.847-.976 6.831-.985 3.978-.034 6.463 1.001 6.671 2.422.222 1.474-1.75 3.063-4.777 4.84-1.521.881-3.304 1.855-5.269 2.872-1.948 1.027-4.079 2.148-6.314 3.324l-6.271 3.406a129.841 129.841 0 0 1-5.315 2.788c-3.157 1.531-5.572 2.288-6.67 1.282zm-48.789 19.138c.587-1.459 5.815-.485 13.932.9a3594 3594 0 0 0 3.18.545c1.102.193 2.263.315 3.45.501 2.366.405 4.919.645 7.58.99 5.345.54 11.21.955 17.38 1.023 6.17.009 12.036-.333 17.384-.805 2.663-.312 5.217-.519 7.584-.894 1.188-.171 2.35-.28 3.453-.46l3.181-.501c8.124-1.285 13.355-2.194 13.936-.729.274.7-.691 1.841-2.722 3.322-.51.37-1.083.762-1.721 1.172-.642.396-1.36.773-2.135 1.184-1.553.8-3.331 1.733-5.383 2.502l-3.22 1.241c-1.129.415-2.326.747-3.562 1.13-2.465.797-5.162 1.375-8.006 1.993a100.335 100.335 0 0 1-18.814 1.762c-6.72-.07-13.102-.842-18.805-1.998-2.841-.653-5.534-1.265-7.997-2.094-1.233-.398-2.43-.745-3.556-1.174l-3.215-1.282c-2.048-.793-3.822-1.75-5.372-2.57-.771-.418-1.488-.806-2.129-1.21a37.256 37.256 0 0 1-1.715-1.193c-2.025-1.507-2.985-2.659-2.708-3.355zm14.695 31.764c.201-2.837 12.505-4.361 27.484-3.408 14.977.954 26.957 4.027 26.756 6.863-.2 2.835-12.506 4.362-27.483 3.408-14.978-.954-26.957-4.026-26.757-6.863zm-34.029-46.082c-.541-1.381 1.607-3.8 5.81-6.25 4.184-2.45 10.46-4.826 17.682-6.02 7.223-1.184 13.913-.944 18.64.04 4.746.977 7.53 2.583 7.441 4.067-.09 1.532-2.963 2.67-7.38 3.673-4.43 1-10.408 1.953-16.992 3.03-6.581 1.09-12.55 2.104-17.064 2.577-4.502.464-7.58.308-8.137-1.117zm124.904 18.566c-1.41.258-2.944-1.228-4.463-3.639-1.52-2.423-3.067-5.767-4.518-9.541-1.46-3.77-2.566-7.298-3.08-10.143-.506-2.836-.384-5.012.803-5.843 1.168-.818 3.222-.076 5.48 2.041 2.253 2.103 4.653 5.614 6.33 9.954 1.674 4.343 2.275 8.609 2.046 11.75-.222 3.155-1.212 5.171-2.598 5.421zm-86.708-55.472c-1.304-.674-1.194-3.682-.28-8.013.922-4.341 2.59-10.033 4.55-16.267 1.952-6.236 3.834-11.863 5.556-15.95 1.724-4.078 3.351-6.61 4.808-6.416 1.422.187 2.397 3.12 2.501 7.784.109 4.65-.73 11.02-2.831 17.734-2.11 6.71-5.058 12.417-7.805 16.172-2.75 3.767-5.225 5.615-6.499 4.956zm-21.63-11.62c-1.44.067-2.92-2.339-3.785-6.452-.869-4.097-1.027-9.9.118-16.125 1.155-6.225 3.371-11.585 5.646-15.094 2.276-3.525 4.515-5.236 5.834-4.653 1.356.598 1.577 3.31 1.217 7.178-.369 3.88-1.255 8.947-2.29 14.513-1.02 5.57-2.003 10.62-3.043 14.373-1.044 3.742-2.218 6.193-3.698 6.26zm-6.667-126.573c1.995-2 6.411-.53 9.862 3.287 3.452 3.815 4.633 8.53 2.638 10.53s-6.41.53-9.862-3.287c-3.45-3.815-4.633-8.53-2.638-10.53zm1.895-15.986c-2.864-.098-4.778-12.837-3.905-28.433.863-15.598 4.179-28.031 7.035-27.795 2.87.236 4.206 12.941 3.35 28.401-.865 15.46-3.603 27.927-6.48 27.827zm-37.119-24.925c-1.285-6.103-2.91-14.38-5.168-23.393a363.256 363.256 0 0 0-3.788-13.782c-1.237-4.18-3.79-11.537-3.4-13.535l1.473-7.554 5.025 7.113c1.933 2.735 4.067 6.312 6.029 10.58 1.957 4.265 3.742 9.218 5.096 14.58 2.455 9.788 2.967 18.994 2.326 25.557-.617 6.587-2.158 10.526-3.607 10.483-1.518-.039-2.678-3.958-3.986-10.05zm35.756 73.157c-.452 1.331-3.94 1.649-9.18.387-2.616-.618-5.628-1.688-8.836-3.18a61.64 61.64 0 0 1-9.84-5.896 60.79 60.79 0 0 1-8.488-7.655c-2.346-2.613-4.223-5.157-5.55-7.453-2.678-4.591-3.324-7.965-2.143-8.756 1.239-.837 4.028.962 7.883 3.988 1.902 1.523 4.14 3.318 6.618 5.304 2.48 1.955 5.188 4.08 8.088 6.243 2.917 2.14 5.747 4.107 8.348 5.907l7.02 4.777c4.029 2.804 6.56 4.937 6.08 6.334zm-28.483 50.202c-1.445.304-3.276-1.349-4.594-4.6-.665-1.617-1.145-3.623-1.378-5.884a28.819 28.819 0 0 1 .298-7.365 29.231 29.231 0 0 1 2.208-7.068c.984-2.073 2.117-3.826 3.295-5.159 2.347-2.683 4.64-3.695 5.907-2.972 1.316.747 1.456 2.99 1.141 5.966a80.922 80.922 0 0 1-.742 5.017l-1.033 5.888-1.013 5.892a81.802 81.802 0 0 1-.992 4.978c-.707 2.914-1.598 4.996-3.097 5.307zm2.43 36.2c-1.214-.92-.481-3.882 1.078-8.052a348.33 348.33 0 0 1 2.824-7.147c1.044-2.658 2.19-5.546 3.33-8.603 1.116-3.064 2.12-6.003 3.051-8.7a346.923 346.923 0 0 1 2.492-7.26c1.52-4.183 2.892-6.926 4.435-6.896 1.476.026 2.852 2.932 3.244 7.796.208 2.425.105 5.318-.336 8.496a52.277 52.277 0 0 1-2.583 10.113 52.959 52.959 0 0 1-4.618 9.411c-1.739 2.732-3.553 5.034-5.301 6.787-3.488 3.526-6.456 4.937-7.615 4.054zm-20.731 47.89c-1.222-.706-1.153-3.64.538-7.706.836-2.031 2.117-4.298 3.789-6.64a44.993 44.993 0 0 1 6.256-6.916c2.479-2.195 5.078-4 7.563-5.405 2.503-1.38 4.883-2.375 6.976-2.953 4.189-1.178 7.063-.867 7.593.457.558 1.377-1.22 3.484-4.11 6.132a207.215 207.215 0 0 1-5.073 4.43c-1.874 1.631-3.924 3.416-6.077 5.288l-5.95 5.435c-1.82 1.705-3.509 3.24-4.983 4.533-2.961 2.57-5.249 4.084-6.522 3.345zm-23.514 26.413c.746-1.29 3.318-1.3 6.81-1.073 1.724.12 3.734.258 5.953.41 2.197.102 4.568.192 7.063.179 2.496-.045 4.862-.19 7.057-.34l5.944-.545c3.49-.307 6.059-.355 6.829.918.735 1.192-.625 3.618-4.129 5.966a20.08 20.08 0 0 1-2.99 1.664c-1.109.552-2.352.978-3.678 1.41a33.7 33.7 0 0 1-8.938 1.36 33.623 33.623 0 0 1-8.96-1.155c-1.333-.405-2.585-.8-3.705-1.327a20.168 20.168 0 0 1-3.02-1.595c-3.543-2.268-4.947-4.662-4.236-5.872zm45.387 26.027c-2.157-2.08-1.385-6.485 1.725-9.837 3.109-3.353 7.379-4.383 9.535-2.302 2.155 2.08 1.383 6.484-1.726 9.836-3.11 3.354-7.38 4.384-9.534 2.303zm-82.033 4.987c.512-1.393 3.787-1.526 8.622-1.261 2.42.146 5.252.335 8.36.556 3.114.186 6.507.385 10.076.506 3.567.095 6.967.104 10.087.108 3.116-.033 5.955-.049 8.378-.047 4.842.027 8.104.36 8.528 1.78.408 1.352-2.203 3.578-7.126 5.503-2.454.97-5.483 1.795-8.912 2.389-3.431.556-7.264.86-11.283.75a60.437 60.437 0 0 1-11.214-1.434c-3.387-.802-6.36-1.808-8.747-2.926-4.794-2.22-7.26-4.602-6.769-5.924zm-33.905-439.751c-.643-1.263 1.539-3.888 5.998-6.675 2.222-1.397 5.023-2.775 8.252-4.023a65.146 65.146 0 0 1 10.839-3.018 65.038 65.038 0 0 1 11.207-1.037c3.465.015 6.578.307 9.156.822 5.168 1.014 8.152 2.69 8.008 4.096-.146 1.47-3.295 2.424-8.09 3.315a380.22 380.22 0 0 1-8.327 1.394c-3.104.52-6.488 1.074-10.032 1.715-3.54.662-6.9 1.35-9.984 1.967-3.074.649-5.88 1.211-8.279 1.659-4.798.874-8.083 1.104-8.748-.215zm7.604 63.62c-1.435-.42-1.965-3.306-1.478-7.646.48-4.335 2.016-10.114 4.625-16.157 2.612-6.041 5.79-11.169 8.648-14.561 2.858-3.4 5.359-5.082 6.685-4.404 2.674 1.406-.258 11.433-5.223 22.979-5.006 11.529-10.327 20.605-13.257 19.789zm25.12 47.755c-1.874 2.241-9.731-1.17-17.55-7.62-7.818-6.452-12.636-13.5-10.763-15.741 1.874-2.241 9.73 1.17 17.55 7.62 7.818 6.452 12.636 13.5 10.763 15.74zm25.752 51.076c-1.502-.169-2.452-2.842-3.491-6.739l-1.75-6.7c-.692-2.471-1.464-5.145-2.38-7.923-.948-2.768-1.95-5.367-2.892-7.756-.993-2.393-1.891-4.558-2.659-6.404-1.526-3.735-2.384-6.44-1.283-7.461 1.034-.97 3.96.026 7.428 3.153a25.343 25.343 0 0 1 2.623 2.735c.907 1.023 1.734 2.213 2.594 3.48a41.532 41.532 0 0 1 4.308 8.939 41.33 41.33 0 0 1 1.961 9.704c.078 1.525.136 2.966.03 4.323a25.221 25.221 0 0 1-.445 3.737c-.887 4.555-2.629 7.08-4.044 6.912zm-446.603-57.739c.403 1.45-2.366 3.493-6.613 6.298-1.062.706-2.228 1.44-3.446 2.28-1.242.782-2.513 1.706-3.876 2.608-2.683 1.887-5.574 3.982-8.512 6.315-2.916 2.36-5.59 4.726-8.016 6.932-1.177 1.135-2.356 2.174-3.39 3.218-1.084 1.005-2.055 1.982-2.976 2.867-3.662 3.534-6.26 5.791-7.586 5.082-1.244-.656-.931-4.293 1.498-9.408a35.466 35.466 0 0 1 2.236-4.028c.856-1.427 1.92-2.839 3.058-4.323a57.588 57.588 0 0 1 8.574-8.588 57.453 57.453 0 0 1 10.246-6.498c1.696-.784 3.306-1.518 4.884-2.041a35.469 35.469 0 0 1 4.417-1.305c5.518-1.256 9.134-.768 9.502.591zm480.686 165.175c-.797 1.155-3.481.926-7.08-.81-3.588-1.721-8.023-5.036-11.908-9.644-3.88-4.614-6.395-9.548-7.482-13.378-1.099-3.844-.869-6.53.404-7.12 1.31-.611 3.394.903 5.942 3.507 2.55 2.615 5.636 6.29 9.03 10.334 3.408 4.033 6.504 7.699 8.649 10.657 2.13 2.953 3.268 5.264 2.445 6.454zm-61.101 48.673c-.226-1.45 2.035-3.078 5.61-4.887 3.587-1.807 8.477-3.878 13.845-6.197 5.363-2.332 10.218-4.485 13.993-5.868 3.766-1.372 6.506-1.912 7.427-.762.893 1.11-.266 3.762-3.267 6.91-1.493 1.577-3.462 3.235-5.809 4.854a50.67 50.67 0 0 1-8.114 4.459 50.818 50.818 0 0 1-8.813 2.877c-2.792.608-5.356.915-7.538.93-4.369.046-7.118-.911-7.334-2.316zm36.275 19.038c-1.027-1.038-.56-3.237.771-6.005 1.341-2.774 3.515-6.152 6.123-9.712 2.601-3.566 5.168-6.673 7.424-8.816 2.253-2.135 4.236-3.287 5.584-2.69 1.326.589 1.742 2.875 1.07 6.112-.663 3.226-2.473 7.377-5.394 11.378-2.926 3.997-6.365 7.025-9.283 8.697-2.926 1.684-5.286 2.057-6.295 1.036zm-42.616 46.31c-.082-1.53 3.22-2.958 8.262-4.807 1.262-.466 2.639-.938 4.097-1.501 1.469-.503 3.005-1.137 4.633-1.73 3.227-1.276 6.731-2.714 10.35-4.37 3.603-1.69 6.97-3.438 10.037-5.079 1.509-.86 2.987-1.625 4.327-2.424 1.375-.75 2.63-1.498 3.807-2.16 4.684-2.66 7.912-4.258 8.976-3.184 1.003 1-.429 4.588-4.322 9.105a39.66 39.66 0 0 1-3.376 3.478c-1.255 1.214-2.71 2.365-4.252 3.57a63.362 63.362 0 0 1-10.881 6.504 62.685 62.685 0 0 1-11.947 4.076c-1.902.391-3.703.75-5.422.915a38.165 38.165 0 0 1-4.775.3c-5.876.01-9.446-1.26-9.514-2.694zm-40.8 31.96c.43-1.478 4.204-1.62 9.782-1.981.7-.057 1.429-.103 2.181-.14.755-.042 1.54-.163 2.345-.227 1.612-.1 3.318-.388 5.103-.594 3.561-.556 7.42-1.306 11.4-2.4 3.966-1.149 7.647-2.525 10.975-3.915 1.628-.758 3.234-1.404 4.66-2.162.72-.366 1.452-.674 2.117-1.03.66-.364 1.306-.706 1.932-1.024 4.946-2.608 8.236-4.46 9.374-3.426.54.498.406 1.626-.358 3.294-.19.417-.42.868-.69 1.35-.28.469-.622.942-.991 1.457-.754 1.01-1.618 2.191-2.756 3.291a83.24 83.24 0 0 1-1.778 1.762c-.632.6-1.35 1.144-2.075 1.74-1.438 1.22-3.125 2.297-4.91 3.44a54.425 54.425 0 0 1-12.61 5.459 54.395 54.395 0 0 1-13.605 1.942c-2.118-.042-4.12-.078-5.984-.368-.93-.129-1.826-.218-2.678-.397a90.712 90.712 0 0 1-2.436-.572c-1.547-.345-2.9-.899-4.07-1.366-.584-.245-1.124-.47-1.608-.723a19.38 19.38 0 0 1-1.292-.791c-1.524-1.022-2.227-1.913-2.027-2.619zm14.807-53.04c-1.075-.914-.388-3.849 2.166-7.623 1.266-1.89 3.028-3.935 5.204-5.986a48.152 48.152 0 0 1 7.765-5.82 48.095 48.095 0 0 1 8.798-4.083c2.834-.944 5.467-1.527 7.728-1.746 4.528-.458 7.43.33 7.722 1.71.31 1.442-1.934 3.204-5.446 5.329a258.19 258.19 0 0 1-6.124 3.53c-2.273 1.31-4.752 2.72-7.328 4.247-2.565 1.547-4.98 3.063-7.21 4.446a261.328 261.328 0 0 1-6.01 3.723c-3.534 2.087-6.147 3.228-7.265 2.273zm-38.845-327.485c-1.305.365-3.293-1.778-4.643-6.044a22.954 22.954 0 0 1-.823-3.54c-.243-1.292-.324-2.686-.395-4.16a37.227 37.227 0 0 1 1.062-9.507 36.733 36.733 0 0 1 3.537-8.837c.755-1.254 1.48-2.427 2.3-3.433a21.682 21.682 0 0 1 2.38-2.675c3.184-3.043 5.926-3.91 6.893-2.931 1.04 1.038.284 3.622-.972 7.155-.312.888-.677 1.825-1.016 2.851-.39.993-.717 2.09-1.12 3.198-.729 2.259-1.486 4.712-2.16 7.33-.64 2.626-1.133 5.15-1.556 7.491-.168 1.172-.398 2.296-.526 3.361-.184 1.067-.307 2.07-.45 3.003-.564 3.719-1.116 6.358-2.511 6.738zm-13.991 27.329c-.903-1.189.78-4.152 3.983-8.13 3.211-3.98 7.91-9.022 13.218-14.45 5.3-5.436 10.225-10.25 14.119-13.545 3.89-3.288 6.798-5.023 7.98-4.122 1.156.882.343 4.268-2.183 8.938-2.518 4.663-6.802 10.567-12.382 16.286-5.583 5.714-11.364 10.117-15.94 12.718-4.58 2.608-7.913 3.468-8.795 2.305zm-66.827-34.092c-.94-1.041.598-4.257 4.371-8.281 1.878-2.016 4.341-4.178 7.266-6.332a70.337 70.337 0 0 1 10.128-6.074 70.315 70.315 0 0 1 11.03-4.234c3.504-.979 6.729-1.588 9.479-1.827 5.505-.496 9 .268 9.247 1.647.262 1.444-2.676 3.232-7.316 5.45a517.81 517.81 0 0 1-8.105 3.728c-3.02 1.398-6.317 2.916-9.75 4.575-3.422 1.68-6.65 3.342-9.611 4.857a514.178 514.178 0 0 1-7.929 4.084c-4.607 2.29-7.828 3.5-8.81 2.407zm-22.905 35.56c-.91-2.836 11.114-9.362 26.86-14.58 15.747-5.216 29.25-7.146 30.163-4.312.91 2.835-11.116 9.362-26.862 14.58-15.745 5.217-29.25 7.148-30.161 4.312zm76.122 22.906c-1.416.405-3.78-2.413-5.866-7.644-1.05-2.61-1.961-5.821-2.642-9.455a66.558 66.558 0 0 1-1.008-11.96c.053-4.267.52-8.32 1.234-11.95.749-3.626 1.72-6.83 2.82-9.428 2.184-5.21 4.602-8.007 6.01-7.588 1.478.433 1.721 3.906 1.571 9.11-.088 2.605-.216 5.66-.375 9.019-.12 3.363-.252 7.033-.301 10.89-.023 3.855.04 7.525.095 10.89.096 3.36.165 6.417.204 9.021.053 5.204-.255 8.676-1.742 9.095zm30.286 38.178c-1.406-.147-2.404-3.736-2.322-9.51.031-2.883.387-6.292 1.076-10.03a80.58 80.58 0 0 1 3.274-11.91 80.662 80.662 0 0 1 5.115-11.25c1.866-3.317 3.778-6.167 5.602-8.408 3.638-4.497 6.708-6.628 7.885-5.847 1.227.81.39 4.32-1.434 9.453a408.706 408.706 0 0 1-3.315 8.86l-4.008 10.723-3.789 10.8a413.739 413.739 0 0 1-3.126 8.93c-1.889 5.11-3.493 8.344-4.958 8.19zm43.315 48.079c-2.714.804-8.368-10.906-12.627-26.154s-5.512-28.258-2.797-29.063c2.715-.801 8.368 10.906 12.627 26.154 4.26 15.247 5.512 28.26 2.797 29.063zm17.4 34.056c-1.45-.527-1.45-4.016-1.142-9.186.073-1.297.187-2.696.25-4.2.124-1.492.153-3.09.257-4.753.113-3.338.191-6.977.114-10.8-.115-3.82-.376-7.449-.657-10.777-.187-1.654-.297-3.25-.496-4.733-.139-1.499-.324-2.89-.461-4.18-.569-5.147-.745-8.631.679-9.235 1.33-.575 4.082 1.962 6.71 7.078a36.499 36.499 0 0 1 1.87 4.285c.621 1.567 1.104 3.291 1.602 5.116a58.312 58.312 0 0 1 1.652 12.154 58.412 58.412 0 0 1-1.039 12.227c-.405 1.85-.799 3.598-1.342 5.196a36.549 36.549 0 0 1-1.652 4.38c-2.366 5.249-4.986 7.929-6.345 7.428zm-21.805 56.805c-.846-1.215 1.193-4.143 4.693-8.21a489.391 489.391 0 0 1 6.183-6.964c2.303-2.603 4.827-5.437 7.427-8.458 2.583-3.037 4.993-5.967 7.208-8.646a475.037 475.037 0 0 1 5.927-7.184c3.476-4.085 6.055-6.554 7.394-5.914 1.283.608 1.048 4.29-.96 9.644-.996 2.676-2.48 5.73-4.398 8.97a76.161 76.161 0 0 1-7.16 9.93 76.325 76.325 0 0 1-8.71 8.613c-2.908 2.4-5.7 4.344-8.196 5.746-4.988 2.824-8.601 3.638-9.408 2.473zm-28.069-11.362c-1.413-.23-2.36-3.04-1.949-7.501.107-1.11.281-2.323.599-3.59.269-1.288.713-2.614 1.2-4.01a40.734 40.734 0 0 1 4.452-8.534 41.577 41.577 0 0 1 6.425-7.25c1.144-.971 2.237-1.875 3.36-2.608a25.888 25.888 0 0 1 3.189-1.907c4.091-2.072 7.128-2.292 7.885-1.113.807 1.243-.663 3.602-3.05 6.75-1.2 1.546-2.604 3.36-4.156 5.363-1.51 2.007-3.14 4.187-4.775 6.532-1.61 2.363-3.064 4.658-4.398 6.78l-3.522 5.776c-2.083 3.343-3.77 5.562-5.26 5.312zM927.031 113.282c-1.276-.596-1.038-4.473 1.001-10.142 1.01-2.834 2.517-6.073 4.469-9.519a81.362 81.362 0 0 1 7.297-10.573 80.77 80.77 0 0 1 8.903-9.212c2.977-2.574 5.837-4.668 8.395-6.19 5.11-3.065 8.814-4.003 9.621-2.832.848 1.223-1.277 4.286-4.9 8.592a704.55 704.55 0 0 1-6.38 7.401c-2.374 2.774-4.966 5.8-7.63 9.034-2.642 3.248-5.101 6.39-7.354 9.265a711.36 711.36 0 0 1-6 7.722c-3.508 4.403-6.086 7.083-7.422 6.454zm-38.243 71.5c-.636.333-1.585-.11-2.793-1.283-.302-.293-.62-.632-.952-1.013-.317-.389-.611-.836-.934-1.32-.622-.972-1.36-2.099-1.918-3.443-.3-.667-.603-1.373-.908-2.118-.3-.745-.515-1.545-.774-2.37-.55-1.652-.867-3.47-1.207-5.397-.535-3.86-.62-8.2.008-12.671a45.87 45.87 0 0 1 3.622-12.115c.877-1.737 1.701-3.38 2.7-4.79.484-.713.919-1.413 1.417-2.036.505-.619.998-1.202 1.475-1.748.918-1.118 1.947-1.972 2.82-2.715.448-.364.857-.703 1.272-.978.426-.265.827-.492 1.2-.68 1.489-.758 2.524-.894 3.036-.386 1.066 1.078-.337 4.204-2.182 8.83-.224.586-.465 1.189-.725 1.805-.254.62-.45 1.303-.704 1.975-.535 1.328-.934 2.817-1.44 4.326-.876 3.079-1.691 6.468-2.25 10.093-.503 3.631-.695 7.117-.74 10.323.05 1.595.006 3.14.137 4.57.051.718.044 1.43.108 2.1.07.668.13 1.317.174 1.944.44 4.978.886 8.392-.442 9.097zm6.187 56.513c-1.269-.854.21-5.173 2.574-11.753.298-.823.61-1.68.931-2.576.33-.89.616-1.838.956-2.798.704-1.908 1.318-3.993 2.039-6.147 1.328-4.353 2.676-9.142 3.839-14.233 1.118-5.104 1.939-10.008 2.593-14.51.266-2.254.599-4.403.774-6.427.101-1.012.248-1.992.329-2.935l.254-2.726c.666-6.956 1.168-11.49 2.68-11.73 1.389-.23 3.561 4.012 4.854 11.426.152.926.298 1.898.44 2.915.136 1.016.194 2.076.284 3.178.206 2.204.194 4.564.18 7.053a87.422 87.422 0 0 1-1.98 16.056 87.473 87.473 0 0 1-5.055 15.378c-1.049 2.26-2.045 4.401-3.169 6.311-.552.96-1.056 1.898-1.614 2.76-.562.862-1.11 1.68-1.642 2.455-4.331 6.17-8.107 9.095-9.267 8.303zm99.585-107.642c.147 3.033-15.386 6.247-34.694 7.178-19.307.932-35.079-.773-35.225-3.806-.148-3.032 15.384-6.245 34.693-7.177 19.307-.931 35.078.773 35.226 3.805zm42.333 4.416c-.639.342-1.8-.235-3.3-1.485a23 23 0 0 1-1.183-1.062l-1.43-1.212c-1.018-.862-2.023-1.93-3.33-2.934a96.299 96.299 0 0 1-1.93-1.647c-.666-.571-1.44-1.085-2.177-1.668-1.445-1.202-3.167-2.264-4.882-3.468-3.566-2.242-7.604-4.461-12.068-6.339-4.495-1.803-8.936-3.066-13.058-3.982-2.074-.351-4.05-.808-5.932-.973-.938-.104-1.852-.284-2.73-.348a93.754 93.754 0 0 1-2.544-.19c-1.643-.208-3.116-.157-4.453-.264l-1.879-.144a25.667 25.667 0 0 1-1.597-.08c-1.952-.169-3.186-.577-3.392-1.265-.205-.687.65-1.6 2.474-2.68.455-.271.972-.55 1.546-.84.578-.266 1.225-.483 1.922-.733 1.4-.464 3.016-1.052 4.858-1.33.918-.171 1.886-.337 2.902-.498 1.016-.15 2.075-.172 3.178-.248 2.215-.2 4.566-.036 7.059.11a57.783 57.783 0 0 1 15.686 3.859 57.423 57.423 0 0 1 13.832 8.265c1.864 1.643 3.64 3.176 5.06 4.866.723.828 1.456 1.584 2.063 2.402.602.825 1.165 1.622 1.69 2.385 1.1 1.486 1.819 3.032 2.474 4.34.312.665.613 1.271.83 1.865.198.606.36 1.165.488 1.675.513 2.04.462 3.281-.177 3.623zm-11.282 41.861c-.746-1.255.974-3.717 3.956-6.949 1.499-1.611 3.294-3.455 5.3-5.445l6.46-6.467 6.395-6.533a192.054 192.054 0 0 1 5.386-5.362c3.199-3.02 5.644-4.767 6.916-4.046 1.229.694 1.016 3.808-.822 8.183-.911 2.187-2.263 4.652-4.003 7.238a57.796 57.796 0 0 1-6.44 7.805 58.026 58.026 0 0 1-7.739 6.534c-2.569 1.771-5.024 3.155-7.205 4.096-4.366 1.899-7.487 2.16-8.204.946zm-61.41 30.4c-.72-.068-1.28-1.102-1.664-2.986a22.528 22.528 0 0 1-.253-1.57c-.056-.573-.064-1.188-.075-1.855-.002-1.326-.018-2.862.232-4.511.104-.83.226-1.7.366-2.608.145-.906.393-1.821.614-2.785.416-1.939 1.118-3.928 1.859-6.032a60.618 60.618 0 0 1 6.816-12.77 60.834 60.834 0 0 1 9.794-10.678c1.743-1.398 3.387-2.722 5.082-3.763.836-.53 1.62-1.068 2.428-1.508.811-.436 1.594-.84 2.343-1.216 1.476-.788 2.934-1.286 4.189-1.729.633-.212 1.217-.41 1.777-.549.569-.123 1.093-.22 1.57-.288 1.91-.271 3.076-.091 3.381.563.636 1.378-2.358 4.033-6.739 8.123a79.89 79.89 0 0 1-1.713 1.599c-.596.549-1.168 1.181-1.792 1.784-1.271 1.183-2.5 2.577-3.844 3.964-2.592 2.882-5.305 6.128-7.895 9.735-2.544 3.64-4.705 7.275-6.563 10.673-.862 1.728-1.77 3.348-2.463 4.936-.361.788-.765 1.537-1.086 2.28a81.107 81.107 0 0 1-.938 2.145c-2.403 5.483-3.91 9.183-5.426 9.047zm65.962-9.654c-.205-1.473 2.756-3.132 7.35-5.197l7.985-3.501c2.963-1.333 6.186-2.793 9.53-4.416 3.33-1.65 6.458-3.301 9.323-4.825 2.864-1.558 5.454-2.966 7.653-4.16 4.441-2.365 7.57-3.693 8.64-2.64 1.021.992-.283 4.263-3.856 8.394-1.776 2.068-4.151 4.286-7.008 6.49a63.231 63.231 0 0 1-9.996 6.158 63.638 63.638 0 0 1-11.016 4.14c-3.508.916-6.736 1.444-9.481 1.592-5.5.316-8.935-.633-9.124-2.035zm8.36 30.447c-.597 1.296-4.077 1.217-9.07-.803a33.799 33.799 0 0 1-3.95-1.9c-1.402-.734-2.805-1.666-4.281-2.664a55.892 55.892 0 0 1-8.685-7.663 56.508 56.508 0 0 1-6.868-9.374c-.866-1.57-1.675-3.06-2.29-4.537a34.825 34.825 0 0 1-1.566-4.141c-1.603-5.206-1.416-8.733-.096-9.239 1.399-.542 3.647 1.896 6.694 5.711l5.255 6.607c2 2.422 4.197 5.038 6.605 7.7 2.432 2.639 4.836 5.064 7.063 7.271 2.278 2.18 4.34 4.15 6.089 5.823 3.515 3.374 5.74 5.836 5.1 7.209zm11.81 4.52c-.617-1.337 1.263-3.564 4.55-6.288 3.296-2.727 7.972-6.007 13.2-9.511 5.222-3.511 10.035-6.602 13.823-8.633 3.784-2.023 6.592-2.943 7.657-1.907 1.04 1.011.1 3.83-2.573 7.437-2.664 3.6-7.118 7.929-12.783 11.739-5.67 3.802-11.41 6.316-15.815 7.46-4.415 1.154-7.456 1.008-8.06-.298zm25.149 67.074c-.525.492-1.482.404-2.83-.26a12.58 12.58 0 0 1-1.082-.605c-.37-.247-.73-.552-1.125-.883-.77-.673-1.678-1.453-2.458-2.479-.408-.5-.828-1.036-1.257-1.607-.422-.572-.776-1.214-1.176-1.869-.83-1.302-1.47-2.807-2.148-4.404a36.733 36.733 0 0 1-2.3-10.994 36.743 36.743 0 0 1 1.296-11.157c.531-1.653 1.031-3.209 1.74-4.58.338-.689.632-1.36 1.002-1.967.375-.608.746-1.18 1.107-1.715.683-1.09 1.517-1.95 2.222-2.689.364-.365.694-.701 1.041-.98.36-.271.702-.505 1.021-.7 1.284-.784 2.23-.957 2.796-.515 1.178.939.423 3.854-.43 7.994-.1.525-.212 1.063-.339 1.615-.12.554-.177 1.154-.289 1.749-.25 1.18-.348 2.479-.544 3.8-.251 2.684-.402 5.603-.29 8.679.168 3.071.582 5.966 1.076 8.614.313 1.3.527 2.585.885 3.737.165.583.276 1.176.446 1.716.175.538.337 1.065.483 1.578 1.225 4.047 2.241 6.882 1.153 7.922zm36.426 26.151c-.26-1.462 3.125-3.276 8.33-5.802.65-.323 1.33-.65 2.04-.979.71-.333 1.43-.724 2.185-1.088 1.521-.707 3.093-1.564 4.769-2.393 3.31-1.75 6.893-3.718 10.558-5.948 3.646-2.261 7.016-4.565 10.069-6.726 1.494-1.117 2.968-2.131 4.283-3.167.664-.51 1.338-.973 1.953-1.455a84.088 84.088 0 0 1 1.792-1.375c4.596-3.494 7.74-5.693 8.95-4.815 1.134.813.05 4.668-3.516 9.843-.45.64-.932 1.304-1.447 1.991-.517.684-1.105 1.347-1.702 2.05-1.18 1.425-2.583 2.81-4.07 4.267a69.563 69.563 0 0 1-10.756 8.226 70.046 70.046 0 0 1-12.223 5.894c-1.98.672-3.858 1.302-5.672 1.717-.903.217-1.765.447-2.613.6-.85.152-1.667.286-2.447.403-6.273.869-10.248.122-10.483-1.243zm-10.352 17.553c-.918 1.067-3.555.511-6.802-1.941-1.624-1.215-3.334-2.932-4.984-5.062a36.529 36.529 0 0 1-4.39-7.6 37.156 37.156 0 0 1-2.408-8.493c-.39-2.697-.446-5.162-.204-7.216.469-4.129 1.867-6.503 3.248-6.474 1.45.026 2.65 2.29 3.967 5.585a348.944 348.944 0 0 1 2.153 5.666c.81 2.087 1.68 4.343 2.656 6.689 1.001 2.334 2.01 4.528 2.94 6.56a344.835 344.835 0 0 1 2.558 5.484c1.443 3.24 2.236 5.686 1.266 6.802zm-46.123 29.856c.064-1.493 3.149-2.608 7.787-3.909 2.306-.638 5.02-1.39 8.022-2.224 2.971-.876 6.196-1.858 9.545-3.008 3.337-1.18 6.472-2.413 9.344-3.571 2.867-1.212 5.459-2.31 7.661-3.24 4.439-1.862 7.55-2.906 8.542-1.78.941 1.056-.505 4.186-4.3 7.93a33.85 33.85 0 0 1-3.279 2.847c-1.216.986-2.612 1.899-4.095 2.85a55.674 55.674 0 0 1-10.348 4.902 55.875 55.875 0 0 1-11.167 2.593c-1.757.178-3.423.331-4.995.317a34.047 34.047 0 0 1-4.353-.188c-5.326-.566-8.43-2.112-8.364-3.519zm-3.494 30.456c.587-1.41 3.667-1.457 8.137-1.066 2.236.211 4.848.474 7.706.78 2.866.27 5.983.56 9.265.781 3.282.193 6.412.297 9.288.389a629.5 629.5 0 0 1 7.739.194c4.483.173 7.535.608 7.956 2.08.405 1.401-2.01 3.623-6.63 5.48-2.304.935-5.152 1.707-8.377 2.227-3.227.482-6.831.69-10.6.466a51.76 51.76 0 0 1-10.468-1.794c-3.143-.923-5.882-2.045-8.06-3.264-4.376-2.423-6.519-4.934-5.956-6.273zm-114.204-194.41c-1.38.267-3.14-1.87-4.508-5.78-1.37-3.891-2.243-9.565-1.848-15.806.404-6.241 1.994-11.743 3.848-15.408 1.856-3.683 3.872-5.558 5.206-5.102 1.375.468 1.849 3.1 1.898 6.902.04 3.813-.273 8.82-.633 14.33-.346 5.51-.674 10.516-1.2 14.288-.534 3.762-1.34 6.305-2.763 6.576zm15.777 21.5c-.4-1.444 1.114-3.223 3.646-5.135 2.545-1.916 6.097-4.017 10.093-6.147 3.994-2.139 7.714-3.924 10.72-4.978 3.001-1.043 5.324-1.312 6.306-.18.961 1.107.347 3.46-1.733 6.246-2.067 2.779-5.646 5.927-10.217 8.373-4.572 2.44-9.184 3.667-12.646 3.843-3.477.184-5.78-.61-6.169-2.023zm39.892 52.618c-1.16.775-3.644-.566-6.09-4.127a20.791 20.791 0 0 1-1.738-3.049c-.579-1.133-1.028-2.408-1.49-3.765a34.622 34.622 0 0 1-1.482-9.184 34.563 34.563 0 0 1 1.112-9.228c.406-1.374.803-2.663 1.337-3.815a20.529 20.529 0 0 1 1.614-3.108c2.3-3.644 4.73-5.07 5.92-4.337 1.277.77 1.234 3.394.976 6.97-.064.898-.163 1.853-.217 2.88-.109 1.01-.13 2.1-.223 3.215-.1 2.253-.182 4.682-.149 7.242.07 2.559.248 4.985.44 7.23.139 1.112.205 2.2.353 3.205.095 1.026.232 1.975.332 2.873.403 3.564.551 6.184-.695 6.998zm23.5 35.529c-.692.24-1.649-.504-2.81-2.125a22.54 22.54 0 0 1-.906-1.376c-.297-.516-.569-1.094-.867-1.717-.572-1.254-1.246-2.696-1.728-4.358-.263-.828-.526-1.701-.79-2.616-.257-.916-.427-1.885-.64-2.888-.457-2.006-.675-4.183-.91-6.484a65.03 65.03 0 0 1 .682-14.994 65.069 65.069 0 0 1 4.278-14.384c.976-2.095 1.896-4.078 2.987-5.82.529-.878 1.007-1.737 1.552-2.517a98.909 98.909 0 0 1 1.603-2.208c1-1.412 2.111-2.551 3.063-3.545.486-.491.932-.948 1.384-1.336.463-.38.9-.715 1.306-1 1.628-1.148 2.776-1.535 3.35-1.08 1.2.96-.36 4.81-2.574 10.653a89.046 89.046 0 0 1-.868 2.286c-.305.788-.554 1.642-.86 2.493-.645 1.693-1.161 3.562-1.787 5.48-1.114 3.893-2.182 8.18-2.983 12.753-.745 4.582-1.143 8.983-1.368 13.026-.04 2.019-.166 3.954-.112 5.765.01.905-.034 1.794-.006 2.637.035.845.058 1.661.07 2.446.173 6.25.382 10.4-1.066 10.909zm-9.16 29.8c-.606-1.373 1.733-3.717 5.22-7.07.433-.425.888-.86 1.368-1.3.477-.446.937-.953 1.44-1.435 1.02-.948 2.017-2.056 3.109-3.149 2.115-2.272 4.352-4.798 6.542-7.587 2.157-2.814 4.046-5.61 5.72-8.22.786-1.329 1.61-2.57 2.274-3.792.342-.607.72-1.18 1.031-1.75a57.03 57.03 0 0 1 .92-1.648c2.376-4.206 4.062-7.052 5.55-6.812.717.118 1.242 1.01 1.562 2.585.17.791.272 1.748.244 2.84-.02 1.093-.044 2.358-.287 3.705-.106.678-.23 1.39-.37 2.13-.146.739-.372 1.483-.583 2.266-.4 1.576-1.035 3.184-1.712 4.884a48.79 48.79 0 0 1-6.023 10.227 48.91 48.91 0 0 1-8.415 8.384c-1.479 1.082-2.88 2.097-4.31 2.881-.707.402-1.373.807-2.054 1.133a62.32 62.32 0 0 1-1.975.893c-1.247.574-2.469.916-3.527 1.21a12.242 12.242 0 0 1-2.818.48c-1.612.088-2.608-.194-2.905-.855zm11.096 26.615c-.854-1.183 1.08-4.145 4.579-8.18 3.51-4.04 8.538-9.22 14.09-14.926 5.543-5.715 10.575-10.893 14.51-14.516 3.931-3.614 6.831-5.629 8.032-4.802 1.17.8.385 4.335-2.195 9.286-2.57 4.943-7.014 11.245-12.9 17.314-5.896 6.06-12.06 10.679-16.918 13.384-4.868 2.714-8.37 3.59-9.198 2.44zm-14.35 75.6c-.502-1.315 2.756-3.994 8.736-6.815 2.984-1.416 6.656-2.815 10.823-4.088a108.063 108.063 0 0 1 13.82-3.136 108.174 108.174 0 0 1 14.122-1.241c4.36-.063 8.286.143 11.563.58 6.562.855 10.491 2.407 10.42 3.812-.071 1.464-4.06 2.52-10.313 3.547a539.133 539.133 0 0 1-10.915 1.62c-4.078.605-8.55 1.267-13.247 1.961a30983.7 30983.7 0 0 1-13.212 2.185 525.563 525.563 0 0 1-10.886 1.795c-6.267.935-10.39 1.151-10.911-.22zm38.679 24.967c-.3-2.996 13.643-6.874 31.206-7.6 17.562-.75 31.782 1.942 31.738 4.952-.04 3.054-14.051 5.28-31.273 6.018-17.22.71-31.371-.332-31.671-3.37zm-104.31-1.286c.686-1.356 4.346-.904 9.774.087 1.36.244 2.828.543 4.41.807 1.565.32 3.254.565 5.003.89 3.522.561 7.37 1.128 11.434 1.569 4.065.402 7.948.639 11.51.815 1.78.042 3.482.151 5.08.158 1.603.069 3.1.077 4.482.118 5.515.146 9.19.458 9.58 1.927.376 1.376-2.727 3.698-8.473 5.55-1.434.453-3.025.898-4.76 1.227-1.73.393-3.603.625-5.582.862-3.96.38-8.364.43-12.944-.03a66.935 66.935 0 0 1-12.674-2.633c-1.889-.637-3.673-1.251-5.285-1.99a40.849 40.849 0 0 1-4.405-2.182c-5.242-2.992-7.8-5.903-7.15-7.175zm33.962-25.715c-1.308-.639-1.31-3.488.16-7.536 1.453-4.036 4.463-9.223 8.872-14.164 4.417-4.933 9.327-8.61 13.299-10.645 3.98-2.049 6.959-2.53 7.847-1.423.917 1.139-.362 3.617-2.814 6.863-2.465 3.251-6.06 7.327-10.056 11.786-3.984 4.468-7.634 8.5-10.613 11.34-2.977 2.83-5.351 4.439-6.695 3.78zm-3.8-58.787c-.373-1.36 2.485-3.643 7.864-5.391a35.098 35.098 0 0 1 4.458-1.138c1.622-.358 3.379-.549 5.234-.74a56.904 56.904 0 0 1 12.11.375 56.843 56.843 0 0 1 11.74 3.054c1.732.706 3.368 1.385 4.83 2.185 1.483.74 2.803 1.56 3.976 2.35 4.696 3.198 6.825 6.196 6.098 7.398-.77 1.291-4.147.653-9.092-.549-1.243-.297-2.576-.651-4.02-.97-1.42-.378-2.964-.677-4.554-1.06-3.21-.674-6.716-1.357-10.428-1.91-3.716-.515-7.271-.848-10.54-1.103-1.632-.081-3.195-.228-4.663-.266-1.475-.1-2.85-.135-4.125-.2-5.079-.24-8.497-.577-8.888-2.035zm-38.75-30.764c-.835-1.157.8-4.009 4.572-7.347 1.876-1.673 4.306-3.414 7.162-5.093a61.518 61.518 0 0 1 9.77-4.527 61.907 61.907 0 0 1 10.434-2.706c3.279-.515 6.27-.714 8.79-.616 5.051.181 8.144 1.34 8.244 2.759.109 1.476-2.7 2.945-7.069 4.589a265.268 265.268 0 0 1-7.618 2.679c-2.83.982-5.928 2.06-9.184 3.191-3.233 1.19-6.31 2.325-9.122 3.361-2.807 1.065-5.376 2-7.587 2.764-4.42 1.502-7.527 2.15-8.393.946zm-4.553-31.047c-1.098-.906-.602-3.714 1.592-7.348 1.088-1.817 2.626-3.796 4.545-5.792a44.423 44.423 0 0 1 6.904-5.731 44.068 44.068 0 0 1 7.92-4.168c2.567-.999 4.967-1.652 7.044-1.948 4.16-.61 6.9.038 7.288 1.417.406 1.43-1.51 3.315-4.587 5.556a141.919 141.919 0 0 1-5.397 3.686l-6.518 4.305-6.474 4.372a145.72 145.72 0 0 1-5.471 3.573c-3.247 1.978-5.71 3.021-6.846 2.078zM762.577 163.527c-1.607-2.458 8.444-11.992 22.447-21.296 7.005-4.654 13.66-8.362 18.788-10.613 2.601-1.17 5.096-1.93 6.912-1.984 1.83-.072 2.885.437 3.052 1.137.177.725-.448 1.573-1.46 2.688a108.505 108.505 0 0 1-4.404 4.46c-4.051 3.844-10.073 8.56-17.072 13.21-14.003 9.305-26.658 14.856-28.263 12.398zm58.095 15.78c-1.47-.23-2.386-3.119-2.24-7.682.137-4.548 1.444-10.747 4.239-17.137 2.804-6.385 6.524-11.651 9.835-14.974 3.317-3.337 6.134-4.785 7.352-3.976 1.255.831.728 3.709-.722 7.753-1.46 4.053-3.774 9.317-6.325 15.115-2.536 5.804-4.836 11.073-6.837 14.917-2.002 3.83-3.786 6.223-5.302 5.985zm46.375 76.197c-1.473-.399-2.15-2.94-2.236-6.684-.085-3.75.381-8.712 1.266-14.12.88-5.41 2.015-10.27 3.288-13.815 1.276-3.538 2.727-5.755 4.256-5.699 1.51.057 2.811 2.415 3.51 6.259.704 3.836.76 9.155-.174 14.906-.94 5.75-2.688 10.795-4.577 14.238-1.89 3.45-3.878 5.31-5.333 4.915zm-15.946-149.452c.022-1.444 2.633-2.755 6.941-3.447 4.296-.695 10.283-.705 16.745.4 6.46 1.113 12.101 3.12 15.921 5.208 3.83 2.088 5.857 4.196 5.396 5.565-.468 1.396-3.288 1.81-7.436 1.622-4.153-.195-9.648-.943-15.665-1.98-6.02-1.029-11.45-2.156-15.432-3.358-3.972-1.204-6.494-2.537-6.47-4.01zm51.46 259.048c-1.016.99-3.363.525-6.007-1.774-1.32-1.135-2.636-2.744-3.81-4.726a25.723 25.723 0 0 1-2.712-6.968 25.902 25.902 0 0 1-.53-7.477c.213-2.304.711-4.336 1.416-5.945 1.4-3.24 3.315-4.7 4.652-4.26 1.407.454 2.088 2.541 2.677 5.285.28 1.378.587 2.945.885 4.632.334 1.689.68 3.496 1.09 5.389.437 1.886.898 3.667 1.316 5.336.452 1.65.843 3.198 1.18 4.563.638 2.732.916 4.913-.157 5.945zm90.894-31.444c-2.39 1.596-7.845-2.4-12.183-8.925-4.339-6.526-5.917-13.11-3.526-14.707 2.39-1.597 7.845 2.399 12.182 8.925 4.339 6.525 5.918 13.11 3.527 14.707zM933.15 416.76c-.702.195-1.539-.344-2.469-1.598-.232-.313-.47-.67-.711-1.07-.226-.403-.413-.855-.622-1.345-.391-.984-.864-2.133-1.098-3.44a56.12 56.12 0 0 1-.401-2.072c-.118-.725-.139-1.479-.198-2.27-.148-1.585-.022-3.264.112-5.047a36.965 36.965 0 0 1 3.137-11.116 37.042 37.042 0 0 1 6.57-9.51c1.29-1.241 2.503-2.412 3.821-3.312.647-.46 1.242-.927 1.878-1.3.64-.366 1.259-.706 1.853-1.016 1.16-.658 2.348-1.03 3.356-1.357.512-.154.98-.3 1.435-.385.463-.07.891-.115 1.281-.137 1.56-.09 2.512.206 2.81.87.613 1.399-1.536 3.629-4.363 6.946-.351.425-.72.856-1.108 1.293-.384.441-.73.958-1.125 1.442-.812.945-1.536 2.077-2.363 3.181-1.54 2.315-3.095 4.901-4.474 7.762-1.326 2.884-2.325 5.73-3.126 8.39-.324 1.34-.735 2.618-.944 3.846-.12.61-.297 1.207-.393 1.784a42.562 42.562 0 0 1-.29 1.674c-.75 4.29-1.097 7.36-2.568 7.787zm-20.634 24.462c.096-1.512 3.007-2.56 7.254-3.9a42.442 42.442 0 0 1 1.662-.512c.575-.17 1.164-.396 1.775-.585 1.228-.357 2.505-.849 3.853-1.285 2.676-.975 5.561-2.087 8.526-3.416 2.95-1.366 5.682-2.814 8.174-4.196 1.215-.73 2.424-1.372 3.5-2.065.543-.338 1.1-.634 1.607-.956.503-.325.996-.632 1.478-.92 3.8-2.326 6.501-3.837 7.699-2.915 1.12.848.44 4.139-2.54 8.354a57.048 57.048 0 0 1-1.215 1.608c-.437.55-.94 1.07-1.45 1.626-1.009 1.132-2.22 2.19-3.51 3.302a44.798 44.798 0 0 1-9.368 5.832 44.666 44.666 0 0 1-10.538 3.24c-1.683.244-3.274.463-4.787.48-.753.019-1.476.058-2.175.026-.7-.036-1.37-.083-2.006-.14-5.124-.522-8.04-2.172-7.939-3.578zm-53.445 13.69c.759-1.26 4.483-.535 9.96 1.315 5.482 1.855 12.753 4.775 20.749 8.052 8 3.265 15.233 6.278 20.441 8.792 5.199 2.516 8.354 4.605 7.996 6.026-.348 1.386-4.191 1.831-10.134 1.076-5.934-.748-13.945-2.778-22.341-6.206-8.394-3.438-15.517-7.597-20.255-11.213-4.75-3.619-7.157-6.618-6.416-7.843zm.365-18.89c-.632-.35-.929-1.195-.875-2.501a7.986 7.986 0 0 1 .406-2.24c.26-.824.574-1.782 1.095-2.723.249-.48.522-.978.819-1.495.3-.512.669-.995 1.038-1.518.724-1.06 1.648-2.048 2.64-3.09a30.976 30.976 0 0 1 7.537-5.42 30.793 30.793 0 0 1 8.824-2.82c1.421-.17 2.763-.322 4.038-.269.634.015 1.24.01 1.826.076.588.07 1.148.15 1.677.237 1.06.145 2.007.468 2.818.754a7.794 7.794 0 0 1 2.02 1.019c1.067.74 1.558 1.488 1.458 2.207-.226 1.485-2.637 2.358-5.94 3.46-.414.145-.845.283-1.29.416-.445.137-.9.328-1.37.481-.944.284-1.92.698-2.948 1.049-2.036.802-4.214 1.715-6.445 2.816-2.212 1.135-4.244 2.344-6.104 3.503-.896.619-1.811 1.154-2.603 1.746-.403.286-.829.538-1.205.814-.371.28-.74.543-1.105.79-2.858 2-4.999 3.42-6.311 2.709zm-59.516 28.417c.61-1.333 3.025-1.611 6.423-1.173 3.404.444 7.804 1.573 12.542 3.156 4.739 1.579 8.945 3.324 11.954 5.02 3 1.696 4.796 3.382 4.527 4.827-.265 1.428-2.585 2.339-6.171 2.47-3.58.137-8.416-.55-13.493-2.24-5.074-1.698-9.38-4.063-12.2-6.333-2.827-2.274-4.182-4.412-3.582-5.727zm-6.307-39.933c.508-1.314 3.486-1.663 7.9-.87 4.404.787 10.214 2.779 16.078 5.983 5.862 3.213 10.604 6.995 13.548 10.23 2.956 3.24 4.157 5.875 3.234 6.96-.943 1.11-3.792.5-7.707-1.11-3.919-1.618-8.94-4.19-14.382-7.173-5.447-2.974-10.31-5.812-13.757-8.226-3.435-2.411-5.432-4.453-4.914-5.794zm13.881-320.896c.262 1.475-2.533 3.232-6.845 5.486l-7.476 3.857c-2.764 1.475-5.763 3.1-8.857 4.906-3.078 1.832-5.952 3.67-8.58 5.374l-6.996 4.675c-4.06 2.68-6.95 4.273-8.113 3.332-1.104-.888-.203-4.25 2.87-8.653.77-1.093 1.66-2.26 2.715-3.423 1.02-1.2 2.224-2.364 3.506-3.583a57.66 57.66 0 0 1 9.239-6.827 57.616 57.616 0 0 1 10.444-4.775c1.688-.533 3.288-1.023 4.833-1.334a35.23 35.23 0 0 1 4.306-.717c5.338-.555 8.714.286 8.954 1.682zm11.584 211.58c-2.345-1.676 1.363-10.58 8.28-19.886 6.918-9.308 14.423-15.493 16.767-13.817 2.344 1.676-1.363 10.579-8.28 19.886-6.917 9.308-14.423 15.493-16.767 13.817zm46.765 40.927c-1.04.967-3.633.203-6.61-2.529-1.49-1.353-3-3.218-4.384-5.487a33.427 33.427 0 0 1-3.384-7.942 33.587 33.587 0 0 1-1.164-8.567c.024-2.666.362-5.051.945-6.987 1.151-3.895 2.98-5.905 4.366-5.62 1.463.293 2.285 2.657 3.081 5.974.385 1.665.82 3.584 1.273 5.669.492 2.082 1.023 4.329 1.654 6.672.658 2.335 1.353 4.536 1.997 6.575.678 2.021 1.287 3.89 1.81 5.517 1.013 3.256 1.519 5.711.416 6.725zm2.147-49.981c-1.409.497-3.256-.413-4.866-2.593-1.607-2.157-2.882-5.604-3.018-9.533-.13-3.928.908-7.459 2.366-9.723 1.46-2.287 3.241-3.325 4.68-2.928 1.472.403 2.374 2.065 2.959 4.262.577 2.212.878 4.976.973 8.002.11 3.027-.005 5.806-.43 8.054-.435 2.231-1.224 3.953-2.664 4.459zM796.27 366.51c.108-1.388 3.087-2.51 7.923-2.82 4.82-.318 11.485.27 18.528 2.188 7.04 1.93 13.028 4.801 16.953 7.508 3.939 2.71 5.858 5.169 5.186 6.405-.687 1.27-3.779 1.115-8.24.212-4.47-.911-10.347-2.505-16.817-4.28-6.474-1.762-12.343-3.38-16.643-4.866-4.289-1.488-7.001-2.92-6.89-4.347zm72.322 30.017c-1.288-2.611 4.612-7.946 13.177-11.916 8.563-3.969 16.55-5.071 17.838-2.46 1.287 2.612-4.613 7.948-13.177 11.918-8.564 3.967-16.551 5.07-17.838 2.458zm-94.615 2.181c-.043-1.503 2.996-2.99 8.035-3.93 5.031-.944 12.064-1.278 19.76-.513 7.696.772 14.547 2.495 19.323 4.418 4.787 1.921 7.511 3.983 7.203 5.452-.312 1.494-3.56 2.127-8.514 2.193-4.96.064-11.64-.385-18.982-1.122-7.343-.728-13.983-1.613-18.846-2.657-4.856-1.047-7.934-2.31-7.98-3.84zm-35.052 51.554c-.54-1.315 1.238-3.507 4.826-5.706 3.57-2.196 8.983-4.307 15.234-5.352 6.253-1.034 12.055-.788 16.142.134 4.105.92 6.496 2.42 6.407 3.839-.088 1.458-2.563 2.576-6.34 3.548-3.79.967-8.884 1.859-14.501 2.787-5.616.94-10.724 1.746-14.622 2.056-3.887.304-6.591.046-7.146-1.306zm-27.577 37.61c.09-1.485 4.031-2.483 10.125-3.597l10.604-1.906c3.955-.76 8.272-1.62 12.777-2.647 4.498-1.059 8.752-2.184 12.638-3.24l10.36-2.95c5.96-1.678 9.94-2.514 10.681-1.22.705 1.22-2.045 4.395-7.58 7.972a53.593 53.593 0 0 1-4.654 2.69c-1.7.926-3.587 1.763-5.582 2.633a87.855 87.855 0 0 1-13.472 4.339 88.044 88.044 0 0 1-14.011 2.028c-2.177.094-4.241.172-6.179.09a53.646 53.646 0 0 1-5.368-.37c-6.554-.778-10.43-2.418-10.34-3.821zm-27.086-207.866c.67-1.319 4.067-1.016 9.055.111 4.996 1.136 11.624 3.018 18.946 5.032 7.325 2 13.986 3.76 18.863 5.328 4.867 1.574 7.947 3.046 7.852 4.522-.088 1.43-3.4 2.593-8.788 2.88-5.373.295-12.81-.394-20.703-2.552-7.892-2.167-14.645-5.367-19.12-8.36-4.493-2.995-6.754-5.686-6.105-6.961zm-81.374-3.013c-.665-.304-.913-1.303-.713-2.966.05-.415.128-.873.234-1.367.122-.483.327-.972.538-1.513.449-1.058.943-2.329 1.798-3.506a59.77 59.77 0 0 1 1.315-1.905c.48-.649 1.073-1.23 1.657-1.876 1.148-1.328 2.612-2.46 4.158-3.683a36.819 36.819 0 0 1 11.486-5.434 37.055 37.055 0 0 1 12.698-.984c1.956.29 3.797.545 5.465 1.127.832.269 1.64.48 2.385.801.742.336 1.443.67 2.103.998 1.338.598 2.41 1.451 3.335 2.145.456.362.88.684 1.233 1.043.342.375.641.731.894 1.066 1.017 1.341 1.309 2.327.888 2.92-.422.593-1.507.757-2.983.611-.37-.038-.764-.095-1.18-.172l-1.384-.148c-.979-.102-1.991-.368-3.188-.417a48.363 48.363 0 0 1-1.802-.201c-.62-.071-1.288-.043-1.952-.088-1.323-.133-2.764-.012-4.24-.018-2.975.195-6.198.618-9.514 1.46-3.297.913-6.3 2.143-8.975 3.449-1.274.735-2.582 1.343-3.659 2.113-.551.368-1.145.677-1.646 1.043-.491.376-.977.731-1.455 1.068-1.01.636-1.753 1.366-2.55 1.938l-1.122.815c-.32.272-.632.516-.933.732-1.203.858-2.225 1.253-2.891.95zm-10.059 51.922c-1.286-.684-1.174-3.621.318-7.783 1.485-4.154 4.402-9.504 8.542-14.782 4.147-5.276 8.693-9.432 12.435-11.933 3.748-2.51 6.646-3.407 7.675-2.397 1.048 1.03.07 3.745-2.115 7.388-2.193 3.646-5.553 8.26-9.442 13.204-3.88 4.95-7.572 9.318-10.617 12.342-3.044 3.015-5.486 4.658-6.796 3.96zm120.713-4.436c-.541 1.324-4.999 1.02-11.707-.951-6.7-1.964-15.611-5.686-24.779-11.01-9.16-5.336-16.777-11.223-21.762-16.055-4.997-4.836-7.425-8.537-6.512-9.644.942-1.143 5.013.485 10.986 3.666 5.978 3.19 13.915 7.866 22.7 12.981 8.789 5.105 16.779 9.692 22.503 13.307 5.715 3.615 9.13 6.34 8.571 7.706zm36.05 7.085c-.692-.201-1.16-.953-1.38-2.232a7.558 7.558 0 0 1-.062-2.263c.09-.856.2-1.857.532-2.878.152-.519.323-1.06.516-1.624.198-.56.47-1.104.735-1.686.512-1.178 1.247-2.32 2.035-3.527a29.842 29.842 0 0 1 6.52-6.66 29.911 29.911 0 0 1 8.317-4.214c1.39-.39 2.702-.746 3.983-.882.635-.079 1.237-.175 1.831-.195a37.018 37.018 0 0 1 1.707-.005c1.074-.01 2.065.183 2.911.354a7.62 7.62 0 0 1 2.144.737c1.158.593 1.735 1.263 1.721 1.982-.046 1.489-2.325 2.636-5.405 4.167-.386.2-.788.397-1.204.586-.416.196-.833.45-1.27.667-.882.408-1.772.961-2.723 1.454-1.863 1.09-3.843 2.317-5.832 3.748-1.966 1.468-3.73 2.986-5.33 4.435-.756.757-1.552 1.439-2.207 2.156-.336.351-.705.672-1.017 1.01-.307.339-.614.663-.92.971-2.387 2.474-4.164 4.3-5.602 3.899zm35.076 13.505c-.27-1.362 2.168-3.156 6.534-4.638 4.35-1.483 10.639-2.561 17.618-2.48 6.98.088 13.228 1.319 17.523 2.908 4.311 1.585 6.686 3.44 6.368 4.793-.327 1.392-3.22 2.044-7.552 2.323-4.342.273-10.137.243-16.518.16-6.383-.072-12.177-.182-16.506-.562-4.32-.383-7.19-1.105-7.467-2.504zm-66.996 33.695c-.178-1.498 2.326-3.057 6.055-5.025.935-.496 1.955-.999 3.025-1.585 1.086-.53 2.204-1.177 3.397-1.788 2.355-1.301 4.896-2.736 7.503-4.354 2.589-1.646 4.986-3.313 7.181-4.87 1.067-.81 2.138-1.537 3.088-2.286.99-.709 1.888-1.41 2.74-2.036 3.395-2.507 5.884-4.086 7.151-3.27 1.197.76.877 3.923-1.462 8.168a26.983 26.983 0 0 1-2.143 3.304c-.82 1.161-1.829 2.285-2.905 3.464a43.94 43.94 0 0 1-8.022 6.537 43.805 43.805 0 0 1-9.368 4.386c-1.528.458-2.974.877-4.376 1.11-1.38.285-2.696.422-3.897.491-4.83.258-7.808-.835-7.967-2.246zm-2.77 44.016c-.918-1.114.232-3.942 3.256-7.36 1.505-1.713 3.497-3.526 5.875-5.311a52.503 52.503 0 0 1 8.255-4.965 51.926 51.926 0 0 1 9.011-3.307c2.862-.727 5.497-1.13 7.744-1.214 4.5-.187 7.356.724 7.602 2.159.256 1.486-2.053 3.217-5.718 5.193-3.68 1.976-8.7 4.287-14.194 6.91-5.488 2.637-10.437 5.102-14.275 6.73-3.83 1.613-6.609 2.32-7.556 1.165zm-50 38.036c.521-3 13.662-2.955 29.528-1.469 15.863 1.53 28.8 3.965 28.814 7.014.023 2.987-13.327 5.448-29.732 3.871-16.407-1.544-29.134-6.482-28.61-9.416zm-1.271-35.608c-1.264-.633-1.183-3.91.89-8.5a28.323 28.323 0 0 1 1.949-3.605c.752-1.276 1.706-2.53 2.725-3.847a46.464 46.464 0 0 1 7.786-7.513 46.803 46.803 0 0 1 9.387-5.433c1.553-.622 3.027-1.198 4.469-1.576a28.73 28.73 0 0 1 4.027-.9c5.022-.758 8.232.038 8.511 1.411.307 1.465-2.201 3.24-5.969 5.584-.943.59-1.976 1.198-3.053 1.896-1.1.644-2.224 1.416-3.428 2.156-2.368 1.564-4.918 3.294-7.514 5.228-2.573 1.963-4.936 3.935-7.086 5.78-1.042.952-2.093 1.82-3.012 2.698-.967.842-1.833 1.667-2.66 2.409-3.283 2.974-5.68 4.895-7.022 4.212zm-43.105 69.11c.335-2.986 11.043-4.17 23.976-4.304 12.933-.084 23.663.92 24.053 3.898.17 1.465-2.364 3.14-6.697 4.486-4.324 1.347-10.452 2.317-17.254 2.377-6.803.055-12.949-.812-17.298-2.085-4.358-1.272-6.923-2.905-6.78-4.373zm-106.996-40.336c1.135-.998 5.442 2.09 12.013 7.088l2.57 1.965 2.803 2.09c1.903 1.477 4.01 2.956 6.173 4.565 4.396 3.136 9.258 6.497 14.487 9.842 5.252 3.308 10.364 6.275 15.07 8.917 2.376 1.27 4.61 2.55 6.756 3.641l3.082 1.646 2.871 1.487c7.316 3.816 11.943 6.4 11.53 7.855-.378 1.355-5.821 1.306-14.196-.86-1.042-.291-2.132-.596-3.268-.911-1.131-.33-2.283-.746-3.486-1.155-2.417-.794-4.923-1.837-7.562-2.94a126.373 126.373 0 0 1-16.436-8.732 126.83 126.83 0 0 1-14.903-11.158c-2.125-1.92-4.138-3.746-5.89-5.598-.883-.917-1.75-1.782-2.534-2.666-.77-.894-1.511-1.752-2.22-2.572-5.54-6.666-7.917-11.58-6.86-12.504zm107.77 5.677c-.264 1.419-4.894 1.94-12.183 1.191-3.642-.367-7.934-1.095-12.64-2.169-4.7-1.1-9.811-2.56-15.068-4.416a144.373 144.373 0 0 1-14.493-6.07c-4.338-2.133-8.135-4.277-11.204-6.29-6.15-4.018-9.438-7.35-8.766-8.623.696-1.315 5.18-.357 11.957 1.831 6.783 2.196 15.902 5.534 25.998 9.124 10.102 3.576 19.286 6.73 25.937 9.3 6.643 2.573 10.737 4.656 10.462 6.122zm32.705-12.475c-.947-2.724 7.73-8.222 19.38-12.278 11.65-4.057 21.862-5.137 22.809-2.412.946 2.724-7.73 8.223-19.38 12.279-11.65 4.057-21.862 5.137-22.81 2.411zm.776-72.834c-1.281-.587-1.166-4.242 1.047-9.473.283-.647.591-1.32.924-2.02.336-.698.746-1.383 1.156-2.109.798-1.465 1.818-2.919 2.905-4.451a55.642 55.642 0 0 1 8.35-8.882 55.71 55.71 0 0 1 10.16-6.758c1.693-.818 3.299-1.584 4.88-2.131.785-.282 1.531-.572 2.276-.79a70.492 70.492 0 0 1 2.151-.578c5.54-1.322 9.178-.837 9.549.518.41 1.452-2.359 3.5-6.569 6.341-.524.363-1.077.731-1.652 1.103-.575.374-1.15.808-1.759 1.215-1.231.796-2.483 1.74-3.828 2.662-2.64 1.93-5.479 4.08-8.348 6.479-2.844 2.43-5.436 4.868-7.778 7.148-1.132 1.172-2.272 2.248-3.26 3.328-.503.535-1.026 1.028-1.491 1.53-.463.507-.916.99-1.362 1.447-3.502 3.674-5.98 6.061-7.351 5.421zm-25.308-5.067c-1.343.32-3.244-2.081-4.803-6.496-.786-2.202-1.435-4.901-1.882-7.947a57.558 57.558 0 0 1-.485-9.985c.156-3.55.635-6.907 1.305-9.9.695-2.991 1.564-5.618 2.527-7.735 1.916-4.25 4.007-6.46 5.319-6.012 1.362.458 1.732 3.405 1.697 7.726-.026 2.165-.112 4.69-.255 7.455l-.414 8.954-.322 8.956a198.008 198.008 0 0 1-.36 7.45c-.322 4.307-.932 7.207-2.327 7.534zm-15.74 32.858c-.463-2.827 6.714-6.372 16.03-7.919 9.314-1.548 17.24-.51 17.703 2.316.461 2.827-6.714 6.37-16.03 7.92-9.314 1.545-17.241.51-17.703-2.317zm42.288-60.811c-1.226.812-3.246.376-5.24-1.548-.998-.95-1.928-2.27-2.685-3.87a17.455 17.455 0 0 1-1.464-5.51 17.404 17.404 0 0 1 .437-5.685c.454-1.71 1.128-3.177 1.935-4.29 1.613-2.25 3.52-3.042 4.874-2.464 1.403.595 2.113 2.288 2.607 4.316.482 2.053.783 4.48 1.015 7.136.254 2.655.4 5.095.301 7.2-.117 2.084-.507 3.879-1.78 4.715zm-61.158 45.936c-.547.467-1.415.424-2.567-.136a7.593 7.593 0 0 1-1.859-1.26c-.643-.57-1.387-1.243-2.035-2.11a39.741 39.741 0 0 1-1.036-1.368c-.347-.487-.643-1.03-.971-1.587-.68-1.107-1.218-2.377-1.78-3.735a33.106 33.106 0 0 1-2.002-9.315c-.19-3.4.166-6.653.848-9.494.391-1.416.77-2.744 1.31-3.928.258-.593.485-1.167.77-1.694.29-.527.576-1.023.86-1.487.538-.94 1.192-1.701 1.762-2.347a7.6 7.6 0 0 1 1.69-1.481c1.075-.699 1.93-.85 2.532-.455 1.233.83 1.074 3.458.79 7.007-.031.448-.073.91-.126 1.38-.048.473-.05.979-.094 1.482-.11 1.002-.11 2.086-.192 3.192-.06 2.237-.075 4.65.061 7.188.175 2.534.486 4.929.82 7.14.214 1.088.348 2.164.58 3.144.104.494.168.995.274 1.458.11.461.206.914.292 1.354.717 3.488 1.195 6.075.073 7.052zm-67.658-31.917c-.512-1.398 1.472-3.517 4.886-6.014 3.424-2.498 8.259-5.424 13.68-8.477 5.417-3.063 10.422-5.686 14.327-7.325 3.9-1.63 6.736-2.23 7.66-1.064.908 1.138-.309 3.862-3.266 7.194-2.946 3.326-7.676 7.208-13.503 10.5-5.83 3.285-11.593 5.324-15.958 6.121-4.374.804-7.326.434-7.826-.935zm-.725 36.628c.175-2.795 10.132-4.493 22.194-3.298 12.064 1.182 21.465 4.785 21.057 7.557-.41 2.792-10.286 3.725-22.116 2.565-11.83-1.172-21.311-4.01-21.135-6.824zm72.58 33.425c.41-2.856 5.462-4.53 11.283-3.735 5.822.793 10.208 3.753 9.796 6.61-.41 2.855-5.462 4.53-11.283 3.736-5.822-.794-10.208-3.753-9.796-6.61zm-150.718-60.835c.471-1.416 4.26-1.517 9.988-1.009 2.865.264 6.232.636 9.939 1.096l12.025 1.44 12.039 1.333c3.713.396 7.076.8 9.926 1.196 5.694.807 9.358 1.767 9.49 3.252.128 1.436-3.369 3.135-9.301 4.261-2.963.568-6.526.945-10.495 1.077a93.302 93.302 0 0 1-12.893-.561 93.229 93.229 0 0 1-12.68-2.386c-3.833-1.033-7.215-2.209-9.967-3.438-5.515-2.443-8.528-4.893-8.071-6.26zm22.84 40.632c.196-1.444 3.54-2.375 8.852-2.368 5.3 0 12.555 1.018 20.24 3.362 7.681 2.354 14.266 5.568 18.664 8.533 4.409 2.967 6.666 5.61 6.024 6.918-.658 1.343-4.045 1.127-9.013.028-4.974-1.106-11.561-3.031-18.793-5.249-7.233-2.207-13.77-4.294-18.513-6.16-4.734-1.868-7.665-3.583-7.461-5.064zm36.794 75.457c-.948 1.064-3.61.483-7.092-1.485-3.478-1.962-7.75-5.342-11.786-9.723-4.035-4.383-7.044-8.91-8.702-12.523-1.662-3.618-2.006-6.3-.852-7.14 2.37-1.678 9.61 4.403 17.26 12.676 7.616 8.302 13.07 16.004 11.172 18.195zm-52.105.884c-.523 1.3-3.708 1.616-8.335.126a25.916 25.916 0 0 1-3.65-1.48c-1.297-.587-2.581-1.37-3.932-2.212a41.266 41.266 0 0 1-7.781-6.7 40.188 40.188 0 0 1-5.73-8.416c-.666-1.415-1.283-2.758-1.696-4.084a24.108 24.108 0 0 1-.99-3.71c-.857-4.647-.076-7.654 1.327-7.969 1.496-.344 3.34 1.878 5.76 5.177.611.827 1.238 1.732 1.956 2.67.665.963 1.457 1.937 2.218 2.987 1.603 2.054 3.371 4.259 5.341 6.489 1.996 2.207 3.996 4.218 5.866 6.05.964.88 1.845 1.778 2.734 2.552.857.824 1.691 1.555 2.45 2.259 3.024 2.793 5.03 4.879 4.462 6.261zm.309 25.37c-.28-2.983 9.085-6.325 20.914-7.469 11.83-1.142 21.647.347 21.925 3.329.279 2.98-9.085 6.325-20.915 7.468-11.83 1.142-21.646-.348-21.924-3.329zm-29.155-132.312c-.673 1.338-4.362.879-9.83-.526-5.476-1.414-12.772-3.69-20.834-6.149-8.065-2.445-15.392-4.614-20.731-6.49-5.33-1.878-8.662-3.552-8.502-5.047.152-1.449 3.829-2.438 9.722-2.434 5.88-.004 13.96 1.094 22.532 3.693 8.569 2.612 15.915 6.205 20.83 9.49 4.928 3.285 7.466 6.166 6.813 7.463zm-10.753 41.97c-1.097-.953-.772-3.46.895-6.683 1.657-3.216 4.702-7.1 8.788-10.565 4.088-3.461 8.387-5.801 11.786-6.87 3.408-1.079 5.882-.94 6.596.335.728 1.301-.39 3.471-2.561 6.053-2.182 2.586-5.398 5.624-9.103 8.758-3.699 3.142-7.216 5.806-10.105 7.521-2.886 1.703-5.18 2.423-6.296 1.452zm49.525 36.204c-1.041 1.032-3.559.418-6.745-1.546-3.182-1.958-7.008-5.284-10.558-9.542-3.548-4.261-6.127-8.62-7.474-12.096-1.351-3.48-1.495-6.06-.285-6.89 2.469-1.65 9.227 4.11 15.979 12.186 6.725 8.095 11.164 15.774 9.083 17.888zm-113.46 2.102c-.755-2.776 7.965-7.508 19.654-9.794 11.684-2.303 21.57-1.223 21.943 1.628.379 2.88-8.584 6.409-19.886 8.637-11.306 2.21-20.95 2.335-21.71-.471zm351.748-83.192c-1.369-.577-1.845-2.85-1.157-6.084.676-3.221 2.588-7.365 5.721-11.27 3.14-3.903 6.84-6.748 9.93-8.214 3.1-1.48 5.532-1.64 6.477-.536.966 1.129.334 3.27-1.155 5.904-1.5 2.64-3.823 5.812-6.535 9.18-2.704 3.374-5.313 6.34-7.595 8.41-2.28 2.058-4.286 3.2-5.686 2.61zM393.181 507.318c.061-1.447 2.462-2.617 6.136-3.65 3.684-1.032 8.646-1.993 14.123-2.957 5.476-.977 10.466-1.782 14.284-2.081 3.81-.293 6.475-.02 7.044 1.315.558 1.3-1.15 3.45-4.63 5.616-3.464 2.164-8.732 4.26-14.83 5.346-6.103 1.077-11.782.924-15.797.084-4.028-.833-6.391-2.262-6.33-3.673zm-83.865-1.28c.701-1.292 4.247-.853 9.476.28 2.613.579 5.679 1.278 9.047 2.064 3.378.75 7.067 1.565 10.96 2.338 3.898.747 7.625 1.378 11.041 1.953a875.47 875.47 0 0 1 9.165 1.488c5.275.917 8.72 1.84 8.85 3.295.13 1.387-3.176 3.056-8.858 4.018-2.835.49-6.249.736-10.044.688-3.79-.08-7.96-.477-12.259-1.303a73.425 73.425 0 0 1-11.825-3.393c-3.519-1.381-6.569-2.887-8.988-4.402-4.857-3.017-7.238-5.797-6.565-7.026zm-23.235-10.462c-.583-.436-.578-1.558 0-3.295.144-.434.324-.906.54-1.413.229-.495.531-.99.852-1.533.662-1.065 1.411-2.327 2.475-3.488a78.79 78.79 0 0 1 1.654-1.868c.592-.635 1.283-1.202 1.974-1.832 1.367-1.291 3.015-2.396 4.757-3.58a45.103 45.103 0 0 1 12.491-5.325 44.83 44.83 0 0 1 13.504-1.127c2.082.236 4.048.445 5.847.952.9.233 1.77.413 2.585.7.813.295 1.586.59 2.315.881 1.47.532 2.709 1.301 3.78 1.938.532.33 1.025.629 1.454.96.422.35.795.683 1.12 1.001 1.303 1.27 1.817 2.263 1.498 2.925-.32.659-1.432.935-3.066.91-.41-.008-.852-.034-1.323-.08l-1.551-.061c-1.102-.046-2.284-.245-3.633-.25a61.371 61.371 0 0 1-2.066-.123c-.712-.046-1.467 0-2.23-.02-1.523-.082-3.157.067-4.853.108-3.398.265-7.08.756-10.881 1.663-3.786.975-7.277 2.265-10.412 3.621-1.523.757-3.04 1.391-4.355 2.176-.667.376-1.358.688-1.97 1.062-.604.38-1.198.742-1.776 1.08-1.195.632-2.154 1.365-3.11 1.92-.48.279-.93.54-1.348.781-.398.261-.78.492-1.138.69-1.44.788-2.55 1.063-3.134.627zm19.19 22.455c-1.083 2.762-8.531 2.229-16.632-1.19-8.103-3.42-13.793-8.432-12.71-11.193 1.085-2.762 8.53-2.229 16.634 1.19 8.101 3.42 13.792 8.43 12.708 11.193zm60.496-27.753c-1.377-2.623 6.611-9.645 17.841-15.686 11.23-6.042 21.45-8.813 22.826-6.191 1.377 2.623-6.61 9.646-17.84 15.687-11.231 6.04-21.451 8.812-22.827 6.19zm193.07-23.828c.643-1.335 3.58-1.324 7.81-.543 4.238.787 9.797 2.287 15.88 4.073 6.088 1.778 11.578 3.516 15.577 5.14 3.989 1.628 6.48 3.205 6.324 4.683-.151 1.443-2.978 2.51-7.509 2.747-4.52.242-10.732-.424-17.303-2.344-6.566-1.928-12.174-4.725-15.87-7.373-3.708-2.649-5.54-5.08-4.91-6.383zM289.414 362.513c-.66-.322-.892-1.37-.676-3.103.054-.434.138-.91.247-1.424.128-.505.333-1.015.544-1.577.45-1.106.946-2.424 1.791-3.664.4-.64.833-1.307 1.3-1.998.474-.68 1.058-1.3 1.635-1.982 1.13-1.4 2.572-2.622 4.095-3.933a38.207 38.207 0 0 1 11.377-6.09 37.866 37.866 0 0 1 12.752-1.703c1.988.179 3.86.329 5.577.81.86.219 1.688.381 2.462.66.773.29 1.505.58 2.196.868 1.393.518 2.549 1.303 3.543 1.94.492.337.95.633 1.34.97.383.355.72.696 1.01 1.016 1.161 1.29 1.568 2.281 1.212 2.931-.357.651-1.432.914-2.947.886-.379-.007-.786-.034-1.218-.079l-1.426-.047c-1.01-.032-2.076-.226-3.305-.196a46.235 46.235 0 0 1-1.87-.084c-.643-.029-1.328.04-2.015.04-1.374-.049-2.848.159-4.37.246-3.052.379-6.346.999-9.717 2.049-3.348 1.12-6.39 2.547-9.098 4.028-1.292.821-2.614 1.515-3.709 2.36-.56.406-1.158.75-1.666 1.151-.5.41-.994.798-1.48 1.166-1.019.698-1.782 1.48-2.587 2.098l-1.138.876c-.327.29-.646.55-.95.78-1.221.91-2.249 1.328-2.909 1.005zm-18.784 26.51c.018-1.487 2.965-2.653 7.235-4.292 4.288-1.622 9.923-3.927 15.639-7.331a81.727 81.727 0 0 0 7.78-5.262c2.295-1.781 4.3-3.507 6.042-4.99.437-.364.968-.895 1.597-1.38.623-.493 1.465-1.018 2.172-1.22.728-.24 1.468-.299 2.085-.178.618.13 1.116.411 1.49.749.759.682.979 1.558.8 2.247-.178.696-.404 1.307-.348 1.837-.006.156.164.194.231.1.077-.094-.073-.29-.355-.321a.84.84 0 0 0-.483.094c-.176.094-.344.283-.462.497-.151.243-.113.39-.23.696-.119.315-.265.723-.575 1.315-1.216 2.357-3 5.011-5.403 7.61-2.413 2.578-5.45 5.075-8.964 7.164-7.046 4.206-14.519 5.797-19.815 5.656-5.349-.116-8.466-1.607-8.436-2.991zm105.725.296c-.716 1.27-3.856 1-8.402.015-4.55-1-10.542-2.668-17.172-4.384-3.324-.851-6.487-1.662-9.378-2.401-1.507-.394-2.67-.718-3.837-.967a35.509 35.509 0 0 0-3.097-.547c-1.848-.24-3.147-.21-4.276-.082-1.119.12-2.059.36-2.693-.034-.585-.349-.856-1.437.022-3.022.432-.793 1.195-1.603 2.223-2.35 1.032-.738 2.32-1.325 3.747-1.748 1.427-.424 2.988-.672 4.616-.764 1.61-.105 3.388-.007 4.956.132a63.13 63.13 0 0 1 10.469 1.803c7.308 1.891 13.506 4.889 17.535 7.715 4.053 2.824 5.98 5.404 5.287 6.634zm-21.296 35.578c-1.623-2.447 7.599-11.621 20.6-20.49 13-8.868 24.855-14.073 26.48-11.625 1.624 2.448-7.599 11.622-20.6 20.489-13 8.87-24.856 14.074-26.48 11.626zm-29.535 24.016c-.665.329-1.601-.026-2.77-1.056a13.749 13.749 0 0 1-.914-.895c-.3-.347-.574-.746-.874-1.182-.577-.876-1.267-1.896-1.745-3.12a56.114 56.114 0 0 1-.787-1.93c-.253-.681-.414-1.408-.62-2.162-.442-1.509-.623-3.159-.817-4.91a34.98 34.98 0 0 1 1.12-11.329 35.471 35.471 0 0 1 4.88-10.343c1.07-1.419 2.079-2.756 3.24-3.845.567-.552 1.082-1.101 1.652-1.565a54.63 54.63 0 0 1 1.677-1.284c1.044-.824 2.168-1.37 3.118-1.845.485-.227.926-.443 1.366-.593.45-.139.868-.248 1.253-.327 1.541-.319 2.534-.168 2.939.442.839 1.289-.922 3.794-3.145 7.45-.271.466-.562.942-.87 1.424-.303.486-.554 1.042-.861 1.57-.64 1.041-1.154 2.253-1.778 3.449-1.114 2.48-2.196 5.222-3.053 8.2-.797 2.995-1.277 5.894-1.593 8.584-.079 1.34-.258 2.637-.242 3.85-.01.608-.077 1.211-.069 1.78.02.57.025 1.12.02 1.658.034 4.247.263 7.275-1.127 7.979zm-62.929-19.023c-1.125-2.719 7.141-8.753 18.466-13.475 11.324-4.722 21.415-6.346 22.542-3.627 1.126 2.72-7.142 8.754-18.467 13.476-11.323 4.722-21.416 6.346-22.54 3.626zm11.743 51.42c-1.259-.646-1.33-3.359-.165-7.203 1.158-3.838 3.606-8.775 7.205-13.621 3.604-4.841 7.636-8.622 10.991-10.853 3.36-2.24 5.995-2.976 6.99-1.975 1.016 1.02.24 3.549-1.594 6.893-1.84 3.351-4.702 7.55-8.042 12.034-3.333 4.49-6.532 8.443-9.214 11.177-2.68 2.725-4.889 4.209-6.17 3.548zm972.56-245.537c-1.21 2.67-10.383 1.06-20.488-3.598-10.107-4.656-17.319-10.597-16.109-13.269 1.21-2.67 10.383-1.06 20.488 3.598 10.106 4.657 17.318 10.598 16.108 13.269zm-230.904 191.814c-.992-1.074-.965-2.974.24-5.107 1.185-2.121 3.6-4.403 6.827-5.864 3.228-1.457 6.533-1.76 8.904-1.245 2.392.507 3.828 1.746 3.974 3.202.151 1.486-.902 2.917-2.457 4.223-1.572 1.306-3.65 2.525-6.028 3.593-2.375 1.08-4.66 1.833-6.677 2.151-2.006.302-3.774.145-4.783-.953zm-174.892 63.72c-.728-1.225.29-3.32 2.75-5.585 2.446-2.26 6.361-4.637 11.087-6.288 4.728-1.645 9.3-2.226 12.662-1.992 3.374.23 5.525 1.22 5.76 2.618.24 1.42-1.423 2.976-4.134 4.522-2.72 1.544-6.483 3.119-10.715 4.59-4.229 1.479-8.164 2.588-11.273 3.076-3.1.48-5.397.306-6.137-.94zm102.761-207.585c-1.055-.987-.783-3.143.244-5.864 1.037-2.727 2.796-6.054 4.94-9.578 2.137-3.529 4.275-6.624 6.216-8.804 1.939-2.167 3.724-3.403 5.088-2.923 1.339.47 1.986 2.634 1.667 5.8-.311 3.154-1.65 7.282-4.095 11.315-2.448 4.03-5.492 7.125-8.146 8.857-2.66 1.744-4.878 2.169-5.914 1.197zM542.36 449.088c-1.59 2.417-6.8 1.803-11.638-1.372-4.836-3.175-7.469-7.709-5.878-10.125 1.59-2.418 6.8-1.803 11.636 1.372 4.837 3.175 7.469 7.707 5.88 10.125zm3.798-33.675c-.24-3.012 8.272-6.16 19.01-7.03 10.738-.87 19.638.867 19.877 3.882.238 3.013-8.273 6.161-19.012 7.031-10.738.869-19.637-.87-19.875-3.883z" fill="#2CCBBB" fill-rule="nonzero"/><path d="M1442 210L-1 379.888V750c309.03-71.006 544.316-106.509 705.857-106.509 161.54 0 407.254 35.503 737.143 106.509l-3-223.414L1442 210z" fill="#2CCBBB"/><g transform="matrix(-1 0 0 1 1519 0)"><use fill="#2CCBBB" xlink:href="#a"/><use fill-opacity=".33" fill="url(#b)" xlink:href="#a"/></g></g></svg>