<svg width="448" height="105" xmlns="http://www.w3.org/2000/svg"><g fill="none" fill-rule="evenodd"><path d="M5.059 100.158c-7.87-8.205-6.343-26.793 3.086-36.264 13.022-13.081 37.822-5.458 50.611 6.252C67.911 78.53 75.875 93.55 71.1 100.784c-2.286 3.464-6.332 2.92-33.33 2.661-25.814-.248-29.347.221-32.711-3.287" fill="#FFF"/><path d="M181.68 104.238c.84-32.305-7.051-80.395-16.79-80.395-9.738 0 16.79 80.395 16.79 80.395" fill="#030D54"/><path d="M181.951 103.714C189.843 82.054 193.872.375 184.134.375s-2.183 103.339-2.183 103.339" fill="#030D54"/><path d="M181.893 103.542c9.403-15.786 24.178-49.375 16.79-50.66-10.81-1.88-16.79 50.66-16.79 50.66M182.04 104.37c-4.7-14.685-18.972-44.787-26.192-38.18-8.393 7.682 26.193 38.18 26.193 38.18" fill="#030D54"/><path d="M377.722 101.666c0-13.557-37.573-15.903-30.882-26.592 5.666-9.05 15.698 7.3 19.301 2.346 3.603-4.953-21.683-18.314-13.124-25.027 7.977-6.257 13.045 24.93 21.102 16.424 6.32-6.672-30.369-31.03-20.073-38.583 7.463-5.475 14.778 25.037 19.301 17.988 3.346-5.214-20.236-34.995-5.919-36.759 11.119-1.37 2.059 29.199 11.58 29.72 11.567.633 10.288-32.07 20.846-25.809 10.551 6.257-18.014 30.502-13.125 34.934 7.189 6.515 20.658-17.406 24.19-4.432 2.06 7.56-9.308 11.507-22.646 16.163-11.37 3.969-12.539 17.477 3.603 11.732 9.522-3.39 18.786-19.814 25.477-14.339 8.513 6.965-14.411 17.728-25.477 20.335-9.607 2.263-11.33 9.228 2.574 10.167 11.58.782 7.72 9.385-2.06 8.082-11.583-1.544-14.668 12.253-14.668 3.65" fill="#2CCBBB"/><path d="M426.03 104.288c-.066-2.557-2.304-4.46-4.453-5.804-2.15-1.344-4.579-2.681-5.503-5.062-.405-1.043-.411-2.371.395-3.139.942-.898 2.502-.6 3.608.081 1.106.682 2.027 1.681 3.231 2.162.376.15.801.245 1.18.104.887-.331.899-1.634.481-2.493-.878-1.807-2.755-2.84-4.218-4.203a11.427 11.427 0 0 1-3.49-6.745c-.24-1.758.213-3.955 1.876-4.516 1.554-.522 3.138.733 4.093 2.08a12.956 12.956 0 0 1 1.826 3.733c.354 1.17.639 2.53 1.685 3.142 1.182.693 2.8-.05 3.459-1.264.657-1.213.563-2.703.239-4.048a13.222 13.222 0 0 0-3.131-5.853c-1.561-1.686-3.642-3.079-4.307-5.29-.524-1.747-.02-3.663.862-5.255 1.195-2.154 3.52-4.026 5.895-3.462 1.684.4 2.917 1.956 3.42 3.632.505 1.677.401 3.473.244 5.218a93.268 93.268 0 0 1-1.003 7.614c-.21 1.213-.303 2.76.757 3.364.848.484 1.998-.054 2.454-.926.457-.871.364-1.937.085-2.882-.274-.925-.713-1.916-.354-2.811.315-.786 1.171-1.222 2.001-1.336 2.7-.368 5.291 2.555 4.64 5.235-.822 3.38-5.097 4.463-7.153 7.251-.169.23-.33.505-.273.785.112.545.868.594 1.395.435 1.66-.505 3.005-1.744 4.601-2.429 1.597-.685 3.83-.566 4.613 1 .636 1.271-.061 2.886-1.18 3.747-1.12.861-2.55 1.16-3.921 1.47-1.371.312-2.8.694-3.825 1.668-.357.339-.67.79-.641 1.284.035.616.583 1.08 1.149 1.308 1.305.527 2.78.204 4.138-.16 1.358-.365 2.794-.765 4.145-.376 1.352.39 2.486 1.924 1.918 3.226-.262.602-.813 1.016-1.36 1.37-1.838 1.187-4.004 2.027-6.17 1.769-1.278-.152-2.48-.676-3.723-1.018a13.401 13.401 0 0 0-4.39-.455c-.43.027-.897.094-1.194.41-.6.637.007 1.77.832 2.046.825.276 1.718.032 2.585-.03.867-.064 1.896.167 2.243.973.441 1.024-.6 2.151-1.681 2.37-1.081.22-2.195-.105-3.297-.077a5.242 5.242 0 0 0-3.497 1.485c-.221.217-.452.469-.759.5-.306.033-.633-.34-.44-.582" fill="#030D54"/><path d="M208.435 53.802c-1.792 10.218 1.104 18.4 4.117 26.591 2.21 6.007 6.203 14.81 13.554 24.158-3.707-53.353-7.78-65.417-10.98-65.522-2.861-.095-5.74 9.344-6.691 14.773" fill="#2CCBBB"/><path d="M226.565 103.824c-2.655-.53 1-26.822 5.377-44.47 1.28-5.162 2.223-7.975 2.977-7.9 1.47.145 1.979 11.216 1.169 20.453-1.422 16.207-7.396 32.341-9.523 31.917" fill="#2CCBBB"/><path d="M226.975 104.568c-1.39 1.533-27.43-16.544-25.863-28.113.08-.597.34-2.509 1.405-2.86 2.174-.72 5.658 5.736 10.793 13.295 8.983 13.223 14.295 16.983 13.665 17.678M240.66 95.306c.779 3.826-9.044 9.974-10.638 8.517-1.165-1.067 2.078-6.193 2.23-6.43 1.232-1.926 3-4.687 5.319-4.52 1.308.094 2.82 1.121 3.088 2.433" fill="#2CCBBB"/><path d="M291.75 104.066c8.795-.682 17.477-10.765 15.098-18.075-2.362-7.254-15.516-11.479-22.819-5.388-5.662 4.723-6.782 14.796-2.058 19.987 3.527 3.876 8.958 3.54 9.779 3.476M311.883 103.472c-2.188-2.28-1.763-7.447.857-10.08 3.62-3.636 10.514-1.517 14.069 1.738 2.545 2.33 4.758 6.505 3.43 8.516-.634.963-1.76.941-9.263.87-7.176-.07-8.158-.069-9.093-1.044M103.13 103.47c2.187-2.282 1.763-7.448-.858-10.081-3.62-3.636-10.513-1.517-14.068 1.738-2.545 2.33-4.759 6.505-3.431 8.516.635.963 1.76.94 9.264.869 7.176-.069 8.158-.068 9.093-1.043M361.09 101.354c.026-1.689 2.943-3.57 5.318-2.781 1.956.649 3.376 3.052 2.745 4.519-.693 1.61-3.714 1.755-5.662.869-.24-.11-2.425-1.134-2.402-2.607" fill="#FFF"/></g></svg>