<svg width="333" height="117" xmlns="http://www.w3.org/2000/svg"><g fill="none" fill-rule="evenodd"><path d="M149.627 95.92c-.206-.523-1.786-3.138-2.192-3.852-.873-1.536-2.302-1.838-4.879-.381l-3.318-1.16a5.736 5.736 0 0 0-.141-1.075c-.333-1.433-1.391-3.37-4.543-4.457-.272-.094-.465-.332-.986-1.103-.834-1.235-2.23-3.302-5.383-3.597-2.058-.192-4.234-2.039-5.82-4.939-2.445-4.469-2.868-7.8-3.24-10.738-.514-4.038-1.043-8.213-7.273-11.24-1.807-.88-2.153-1.63-2.677-2.765-.585-1.268-1.385-3.005-3.735-4.163-2.244-1.106-4.378-1.265-5.935-1.38-.5-.038-1.17-.088-1.448-.162-1.582-1.197-4.414-2.55-7.395-2.55-1.706 0-3.243.433-4.574 1.288-.388-.096-1.074-.37-1.556-.563-1.498-.6-3.363-1.346-5.57-1.346-2.068 0-4.021.67-5.817 1.996-.362-.08-.824-.2-1.199-.3-1.357-.355-3.046-.798-4.733-.799-2.289 0-3.783.833-4.707 1.67a19.624 19.624 0 0 1-.62-.095c-.72-.118-1.617-.265-2.667-.265-1.739 0-3.36.405-4.951 1.237-.13-.048-.42-.187-.887-.574-.581-.482-1.154-1.116-1.615-1.625-.276-.305-.515-.57-.753-.804-.748-.734-1.087-1.386-1.516-2.212-.818-1.572-1.837-3.53-5.185-4.96-1-.428-1.171-.788-1.738-1.98-.881-1.85-2.212-4.647-7.297-6.651-1.42-.56-1.78-1.449-2.46-3.406-.362-1.043-.773-2.226-1.508-3.313-.22-.323-.457-.693-.71-1.085-.714-1.11-1.503-2.333-2.406-3.376.267-.28.516-.573.74-.88 1.146-1.562 2.03-5.351 1.452-7.898-.136-.627-.578-1.108-1.154-1.257-.668-.173-1.393.115-1.991.794L26.4 6.986a3.356 3.356 0 0 0-.804-1.404c.826-1.871.407-3.186-.094-3.962C24.838.59 23.702 0 22.386 0h-.008c-.381 0-1.52.007-3.659 1.074-2.806 1.399-5.608 5.451-6.246 9.034-.158.89-.189 1.751-.097 2.567-1.472.678-2.8 1.633-3.733 2.739-1.308 1.55-1.487 2.975-1.406 3.897.031.356.122.692.257 1.004-2.56 1.316-4.917 2.904-6.59 4.162-1.124.845-.16 2.42-.465 3.004-.579 1.108-.623 2.704.093 3.385 2.162 2.056 7.384 3.117 10.515 2.683a32.594 32.594 0 0 0 1.562-.255c.464 2.328 2.968 3.637 4.514 4.444.137.071.323.168.388.206 2.785 1.75 3.03 3.234 3.37 5.286.352 2.128.835 5.042 4.41 6.878.288.147.624 1.202.87 1.972.557 1.749 1.32 4.143 3.691 5.656 1.492.951 1.674 2.512 1.489 5.06-.048.66-.086 1.182-.007 1.731.109.763.307 1.454.56 2.086 1.092 3.538-.992 4.297-1.467 5.776-.723 2.25 1.62 4.172-.564 6.248-1.782 1.696-3.184 4.374-1.686 7.075.636 1.146 1.284 1.962 1.683 3.158.583 1.752.081 3.433-.197 5.092-.277 1.658-.236 3.626 1.125 5.09.699.751 1.634 1.217 2.612 1.434.07 1.713.13 3.326.14 3.926.027 1.492-.262 2.094-.834 3.595-.575 1.51-.745 2.57.395 3.668.718.692 1.989.69 2.848.023.444-.345 2.512-2.597 3.084-3.187 1.23-1.27 1.116-2.721-1.015-4.773l.192-3.827c1.465-.33 3.134-.937 3.486-3.446.205.152.417.3.639.442.314.257 1.103 1.215 1.682 1.918 2.135 2.59 4.792 5.815 8.113 6.643 1.94.483 4.212 1.746 5.872 2.669 1.78.989 2.674 1.486 3.79 1.5l.13.001c2.058 0 3.435-.673 4.33-1.416 1.57.739 3.052 1.441 3.595 1.712 1.338.668 1.739 1.201 2.81 2.402 1.074 1.207 1.939 1.848 3.443 1.35.946-.314 1.534-1.438 1.338-2.507-.1-.552-1.145-3.422-1.405-4.2-.559-1.676-1.902-2.247-4.712-1.314l-3.012-1.766c.093-1.607-.299-3.433-1.178-5.373a17.173 17.173 0 0 0-.871-1.668 28.3 28.3 0 0 1-.27-.466c-.748-1.307-1.771-3.098-4.228-4.036-1.122-.428-2.028-1.6-2.685-2.55.29-.69.62-1.563.943-2.599 1.082.6 2.342.927 3.746.957l.169.002c1.583 0 2.775-.458 3.645-.793.112-.043.242-.093.36-.136.085.088.193.211.326.381 1.16 1.487 2.736 2.273 4.558 2.273 1.037 0 1.964-.247 2.782-.465.538-.143 1.094-.292 1.451-.292.147 0 .197.024.256.06.947.573 1.941.864 2.955.864 1.752 0 3.016-.85 3.853-1.413l.231-.155c.559.089 1.095.133 1.6.133 1.597 0 2.772-.442 3.627-.93.877 1.582 2.06 2.713 3.44 2.782 2.108.105 3.258 2.79 3.87 4.85 1.05 3.535 3.326 4.826 3.326 4.826s1.225.31 1.984 1.524c.764 1.224.675 1.787 1.356 3.023.582 1.054 1.356 1.873 2.236 2.367a5.788 5.788 0 0 0 4.812.51c1.614 1.535 3.467 3.302 4.029 3.862 1.057 1.055 1.269 1.688 1.903 3.165.637 1.484 1.254 2.364 2.839 2.365.998 0 1.911-.88 2.065-1.956.079-.555-.002-3.607 0-4.428 0-1.766-1.093-2.73-4.056-2.731l-3.214-3.672c.564-1.37.635-2.992-.134-4.41-.879-1.621-.04-2.79-.056-3.694l-.009-.468c1.496 1.62 3.564 2.554 5.788 2.554a8.02 8.02 0 0 0 1.754-.195.76.76 0 0 1 .172-.019c.425 0 1.108.289 1.83.594.922.39 1.966.832 3.218 1.036.752.123 1.534.185 2.324.185 4.193 0 7.446-1.689 9.015-4.593 1.686.423 3.28.828 3.867.99 1.442.397 1.939.843 3.221 1.816 1.289.977 2.261 1.44 3.64.66.868-.49 1.227-1.706.828-2.716l-39.024 46.075" fill="#030D54"/><path d="M13.772 24.905c-.133.128-.437.036-.81-.16-.368-.191-.821-.47-1.237-.571a2.034 2.034 0 0 0-.606-.06c-.18.01-.326.042-.46.095a1.47 1.47 0 0 0-.317.15c-.088.061-.15.134-.24.147-.086.014-.21-.042-.27-.22-.061-.176-.017-.476.155-.726.16-.258.465-.504.838-.627a2.17 2.17 0 0 1 1.219-.04c.432.108.764.32 1.018.535.253.219.429.445.55.645.242.402.29.707.16.832" fill="#FFF"/><path d="M133.554 87.876c-2.785-.961-2.49-4.25-5.654-4.546-3.312-.31-6.216-2.95-8.116-6.33-.262-.425-.52-.871-.767-1.34-.762-1.451-1.45-3.086-2.108-4.773-.663-1.687-1.248-3.272-1.852-4.64-.592-1.378-1.21-2.526-1.815-3.418a12.38 12.38 0 0 0-1.656-1.972c-.217-.241-.41-.406-.524-.568-.115-.158-.164-.29-.128-.39.037-.098.157-.158.364-.176.205-.016.507-.013.862.096.723.177 1.727.68 2.698 1.583.273.248.542.528.807.83-.531-2.482-1.62-4.398-5.152-6.115-4.993-2.426-3.302-5.393-6.428-6.934-3.218-1.586-6.323-.63-7.798-1.786-1.594-1.249-5.796-3.152-8.747-1.051-2.782 1.981-7.482-4.623-13.172.315-1.274 1.106-7.412-2.767-10.011.105-1.631 1.803-4.426-1.156-8.746 1.156-2.77 1.482-5.584-2.432-6.745-3.573-2.737-2.69-1.86-4.876-5.759-6.542-4.642-1.984-1.824-5.787-8.954-8.598-4.092-1.613-3.778-5.483-5.379-7.847-1.012-1.497-2.224-3.63-3.522-4.834-.356-.33-4.201-2.337-4.214-1.963-.054-2.71 3.009-6.22 2.34-6.886-.599-.597-2.095 1.193-2.095 1.193s0-1.193 1.496-4.475c.999-2.19-1.496-1.193-2.693-.597-2.65 1.321-6.645 7.675-3.627 10.868-3.105.263-6.325 2.674-6.176 4.378.082.946 4.573-2.052 5.303-.774.461.807-1.109 2.142-.463 2.863.783.875 4.657-1.456 5.155-.438.528 1.078-2.418 2.089-2.338 3.023.096 1.124 2.697 1.183 2.777 2.118.127 1.477-3.475.765-3.395 1.7.08.935 3.164 1.166 3.032 2.331-.135 1.188-2.303.667-4.098 1.76-2.31 1.409 2.06 3.219 2.871 3.727 7.243 4.544 2.69 9.54 7.564 12.041 2.819 1.447 1.913 5.924 4.809 7.771 4.106 2.62 2.694 7.771 2.86 8.928.629 4.388 5.669 5.618 4.353 9.673-1.15 3.546-1.227 5.463 1.618 10.192 1.746 2.902-1.121 7.343 3.688 10.401 1.688 1.075 5.267 7.255 8.853 8.148 3.82.953 8.08 4.068 8.96 4.08 4.038.053 3.995-3.54 2.513-6.809a14.082 14.082 0 0 0-.716-1.37c-.778-1.309-1.31-2.578-2.96-3.208-2.96-1.13-4.415-4.402-5.124-5.065l.018-.033c-.124-.12-.101-.41.035-.82.07-.208.175-.442.267-.726.05-.14.106-.285.168-.435.03-.077.065-.152.094-.232l.082-.252c.056-.17.117-.346.183-.527.067-.18.106-.38.166-.576.13-.389.2-.829.309-1.272.161-.913.268-1.932.315-3.039.05-1.106.04-2.194.052-3.2.011-1.004.036-1.93.103-2.708.13-1.565.421-2.541.768-2.55.354-.008.696.924 1.023 2.437.163.76.323 1.666.441 2.698.118 1.03.205 2.184.149 3.43-.004.085-.01.169-.015.254.724 1.434 1.966 2.484 4.127 2.53 3.055.064 4.242-2.713 6.85.63 2.213 2.836 5.269-.946 8.22.84 2.49 1.509 3.793-1.54 5.479-1.19 4.494.933 4.386-2.124 6.604-1.681 4.535.904 5.77-.791 6.523-1.936a13.42 13.42 0 0 1-.956-.402 8.992 8.992 0 0 1-1.556-.922 7.206 7.206 0 0 1-1.153-1.087c-.62-.734-.937-1.423-1.093-1.92-.136-.51-.115-.834.06-.948.368-.25 1.198.482 2.466 1.258.318.19.666.375 1.046.546.384.167.798.322 1.266.466.468.145.992.279 1.579.44a15.47 15.47 0 0 1 1.909.642 9.255 9.255 0 0 1 1.9 1.073c.573.428 1.058.909 1.474 1.389.812.975 1.319 1.95 1.657 2.78l.072.195.015.037c.949 2.521 2.318 4.517 5.058 4.412 1.041-.04 2.846.496 4.32 2.942 1.125 1.863 3.183 2.78 5.27 2.312 2.258-.508 4.101 1.204 6.386 1.577 2.807.458 7.393-.007 8.549-3.793.469-1.537 1.219-3.714-2.221-4.9" fill="#FCFC51"/><path d="M74.967 76.953c-.94-.36-2.229-.753-3.653-1.175-1.423-.425-2.718-.8-3.702-1.013-.982-.212-1.66-.25-1.807.034-.144.277.283.828 1.148 1.44.862.613 2.17 1.269 3.707 1.727 1.536.456 2.991.622 4.049.58 1.06-.04 1.72-.268 1.751-.577.034-.318-.555-.657-1.493-1.016m2.22 4.71c-1.876-.596-3.552-.593-3.745.008-.191.602 1.174 1.572 3.049 2.167 1.876.596 3.552.591 3.744-.01.192-.6-1.173-1.57-3.049-2.166M54.64 70.29c-.495-1.606-1.387-2.758-1.991-2.573-.605.186-.693 1.638-.198 3.245.496 1.606 1.388 2.758 1.993 2.573.604-.186.692-1.638.196-3.245M130.3 87.601c-.55-.31-1.28-.612-2.116-.911-.836-.3-1.666-.53-2.322-.586-.656-.06-1.128.05-1.251.34-.124.291.116.704.606 1.141.491.435 1.24.91 2.197 1.255.96.345 1.917.438 2.596.35.684-.09 1.107-.334 1.145-.643.039-.316-.308-.64-.855-.946m-18.87-15.513c-.628-.895-1.652-1.998-2.941-3.032-1.29-1.032-2.593-1.791-3.604-2.209-1.013-.419-1.728-.509-1.89-.241-.165.272.245.846.996 1.588.752.742 1.838 1.663 3.064 2.643 1.224.981 2.36 1.84 3.25 2.412.888.57 1.539.846 1.77.626.226-.215-.016-.892-.645-1.787m-19.107-1.362l-.536.067c-.187.03-.388.048-.594.08-.44.068-.89.102-1.333.14-.472.032-.92.049-1.339.065-.207 0-.41.013-.599.011-.192.006-.373.01-.54.016-.672.026-1.175.094-1.31.387-.132.277.164.752.877 1.169.177.102.379.203.604.286.223.092.47.157.733.221a6.259 6.259 0 0 0 1.75.121 6.256 6.256 0 0 0 1.71-.386c.25-.104.484-.205.69-.33.21-.116.394-.247.554-.375.64-.52.86-1.035.688-1.29-.179-.268-.686-.258-1.355-.182m10.355-17.96c-.429-.394-1.144-.756-1.993-.898-.85-.14-1.644-.03-2.177.203-.538.232-.816.568-.772.877.044.315.38.55.844.736.468.184 1.066.328 1.727.436.662.112 1.274.17 1.776.147.499-.025.894-.138 1.038-.422.143-.278-.01-.685-.443-1.08m-6.187 6.678a3.68 3.68 0 0 0-.983-.767 4.888 4.888 0 0 0-1.443-.5 4.885 4.885 0 0 0-1.527-.015 3.687 3.687 0 0 0-1.186.391c-.634.352-.886.788-.767 1.07.124.298.556.416 1.105.51.276.043.587.09.92.132.333.05.69.1 1.063.162.372.067.724.14 1.055.205.328.072.637.132.91.185.549.097.996.13 1.213-.108.208-.225.118-.72-.36-1.265M81.965 60c-.671.082-1.46.193-2.33.328l-2.825.432c-1.002.15-1.957.291-2.826.42-.871.129-1.659.256-2.324.376-1.329.244-2.173.498-2.18.818-.008.31.834.628 2.228.796.696.086 1.529.124 2.453.107a24.329 24.329 0 0 0 2.992-.26 24.362 24.362 0 0 0 2.935-.634c.888-.257 1.671-.54 2.31-.827 1.283-.572 1.992-1.124 1.893-1.418-.103-.303-.984-.298-2.326-.138M27.088 38.436c-.142-.525-.414-1.152-.769-1.809-.352-.657-.726-1.23-1.086-1.638-.36-.405-.717-.643-1.025-.56-.302.082-.495.486-.504 1.092-.01.603.177 1.404.597 2.186.422.782.987 1.38 1.497 1.705.51.328.956.39 1.19.185.24-.21.239-.638.1-1.161m17.578 18.983c-1.38-2.46-2.944-4.205-3.497-3.897-.551.307.119 2.551 1.497 5.01 1.379 2.46 2.944 4.206 3.496 3.898.552-.308-.118-2.551-1.496-5.011m3.258-6.089c-.3.115-.787-.393-1.402-1.227-.616-.837-1.389-1.978-2.281-3.224-.897-1.243-1.734-2.377-2.298-3.267-.56-.89-.838-1.538-.613-1.768.216-.222.895.019 1.79.658.891.635 1.997 1.681 2.984 3.05.984 1.37 1.617 2.793 1.885 3.868.272 1.079.226 1.8-.065 1.91" fill="#FF7264"/><path d="M52.058 87.254c.414-.454.678-1.022.885-1.6a9.874 9.874 0 0 0 .51-4.62c-.127-.95-.416-1.906-1.02-2.65-.179-.22-.622-.645-.893-.37-.242.246-.22.736-.218 1.049a63.86 63.86 0 0 1-.105 3.988c-.061 1.063-.15 2.127-.105 3.19.013.302.037.607.131.894.05.148.13.303.277.353a.182.182 0 0 0 .018.006c.19.053.384-.092.52-.24m.26 8.611c-.444-.64-1.13-1.414-1.946-2.205-.815-.792-1.608-1.456-2.261-1.883-.653-.425-1.17-.607-1.416-.405-.242.2-.16.752.203 1.475.362.722 1.012 1.61 1.875 2.448.864.84 1.77 1.465 2.504 1.807.734.344 1.29.41 1.484.164.196-.25 0-.761-.443-1.4m58.978-16.668c-1.492-.684-2.903-.91-3.223-.361-.155.273.006.694.411 1.144.405.45 1.057.924 1.853 1.29.797.367 1.582.553 2.188.568.607.016 1.033-.136 1.14-.431.21-.598-.877-1.522-2.369-2.21m12.09 11.195c-1.133-.57-2.693-1.271-4.424-2.058-1.731-.789-3.331-1.492-4.552-1.907-1.22-.417-2.05-.546-2.202-.268-.15.277.405.905 1.437 1.692 1.034.784 2.553 1.733 4.368 2.562 1.818.826 3.581 1.33 4.887 1.52 1.308.19 2.154.098 2.23-.202.08-.31-.613-.77-1.744-1.339m-19.04-31.296c-1.653-1.154-3.286-1.67-3.65-1.154-.362.517.684 1.87 2.337 3.024 1.652 1.154 3.286 1.67 3.648 1.153.363-.516-.683-1.87-2.335-3.023m-13.878-6.579c-1.206.038-2.836.27-4.584.63-1.747.358-3.304.74-4.436 1.104-1.129.361-1.823.72-1.788 1.036.034.31.796.52 2.01.563 1.213.044 2.883-.099 4.672-.465 1.787-.368 3.346-.847 4.458-1.287 1.11-.443 1.77-.86 1.71-1.172-.06-.308-.837-.449-2.042-.409M65.277 56.07c-1.09-.604-2.62-1.294-4.251-2.078a74.222 74.222 0 0 1-2.257-1.15c-.335-.192-.666-.36-.961-.537l-.438-.246c-.137-.083-.27-.162-.4-.235-1.027-.595-1.72-.982-1.966-.766-.118.105-.097.344.051.697.037.088.082.184.136.286.055.1.121.201.194.31.147.218.32.467.542.708.108.124.225.251.348.384.125.128.263.253.404.385.28.269.606.518.95.784.698.51 1.51 1.002 2.395 1.433 1.777.854 3.47 1.327 4.715 1.548 1.248.217 2.064.184 2.165-.113.102-.3-.537-.81-1.627-1.41M45.33 80.607c-.167-.947-.385-2.06-.562-3.312a93.122 93.122 0 0 1-.51-4.08c-.14-1.456-.249-2.85-.347-4.122l-.134-1.812c-.037-.57-.086-1.1-.128-1.586-.04-.486-.087-.927-.138-1.315-.05-.389-.097-.724-.155-1-.113-.55-.25-.86-.409-.868-.158-.008-.32.287-.481.831a10.49 10.49 0 0 0-.235.996c-.07.39-.138.835-.202 1.329a36.516 36.516 0 0 0-.15 1.619 44.462 44.462 0 0 0-.078 1.866 39.648 39.648 0 0 0 .179 4.29c.156 1.52.405 2.963.717 4.258a22.784 22.784 0 0 0 1.082 3.37c.785 1.868 1.565 2.876 1.843 2.755.301-.129.064-1.333-.292-3.219m-9.66-30.34c-.132.072-.302-.004-.43-.09-.378-.257-.688-.6-.975-.955-.889-1.097-1.6-2.325-2.238-3.584-.983-1.942-1.802-3.987-2.163-6.132-.032-.187-.06-.379-.024-.565.08-.418.482-.597.834-.34.148.108.255.261.358.412 1.272 1.874 2.264 3.923 3.184 5.992.536 1.209 1.05 2.43 1.411 3.702.111.392.208.794.198 1.2-.004.131-.028.28-.139.35a.208.208 0 0 1-.016.01" fill="#030D54"/><g><path d="M326.055 90.707l-.147.106-7.036-4.206-2.529 4.224s4.315 2.299 5.501 3.008c1.186.709 4.708 2.21 6.352 2.885 1.398.574 2.605 1.13 3.808.27.757-.543.97-1.709.5-2.61-.244-.466-1.97-2.742-2.417-3.367-1.063-1.483-2.539-1.378-4.032-.31M294.55 70.16c-.923-.684-7.303-1.444-8.475-1.206-4.98 1.015-.88 13.8-1.8 18.16-.712 3.376.544 5.452.544 5.452s.862.804.935 2.14c.073 1.348-.254 1.769-.254 3.088 0 1.126.264 2.145.76 2.946a5.382 5.382 0 0 0 4.65 2.666c1.398 0 2.12-.414 2.642-.693 1.495-.798 2.73-2.36 2.743-4.247.013-1.725 1.227-2.306 1.62-3.054.888-1.683.86-1.62.86-3.579 0-1.626-.904-2.47-.879-3.347.042-1.466 1.544-1.794 1.755-4 .13-1.372.096-1.853-.29-2.48-1.537-2.448-4.024-11.264-4.811-11.847" fill="#030D54"/><path d="M289.383 99.032l-2.033 7.16c-.558 1.213-.878 1.336-1.696 1.758-1.344.692-2.437 1.458-2.437 2.937 0 .93.826 1.782 1.833 1.925.52.073 3.377-.004 4.145-.004 1.827 0 2.287-1.287 2.6-3.095.304-1.75 2.515-10.681 2.515-10.681h-4.927zM256.847 99.061s3.295 5.947 3.91 7.16c.616 1.213-.395 1.342-1.216 1.758-.772.393-2.208 1.067-2.436 2.774-.147 1.105.638 2.09 1.65 2.09 1.5 0 2.897-.055 4.345-.055 2.184 0 3.58-1.336 3.58-3.045 0-1.082-.838-2.587-1.396-3.983-.56-1.396-2.952-6.699-2.952-6.699h-5.485zM244.277 99.061s3.295 5.947 3.911 7.16c.616 1.213-.395 1.342-1.216 1.758-.772.393-2.208 1.067-2.436 2.774-.148 1.105.638 2.09 1.65 2.09 1.5 0 2.897-.055 4.344-.055 1.493 0 3.58-1.336 3.58-3.045 0-1.082-.837-2.587-1.396-3.983-.559-1.396-2.952-6.699-2.952-6.699h-5.485z" fill="#030D54"/><path d="M245.035 71.643c-1.06-.44-10.524-1.894-11.595-1.36-2.234 1.117 5.564 15.84 5.725 20.292.125 3.449 1.846 5.16 1.846 5.16s1.03.572 1.424 1.852c.397 1.289.181 1.777.5 3.057.273 1.092.775 2.018 1.451 2.675a5.384 5.384 0 0 0 5.156 1.464c1.357-.337 1.957-.913 2.397-1.31 1.258-1.136 2.077-2.948 1.635-4.784-.405-1.676-.86-2.062-1.064-2.882-.27-1.087.441-1.78-.032-3.68-.393-1.578-1.474-2.179-1.662-3.036-.313-1.433 1.065-2.113.736-4.305-.204-1.363-.806-2.235-1.331-2.75-2.084-2.005-4.28-10.018-5.186-10.393M195.035 41.735c1.546-.85 2.83-2.146 3.618-3.651.838-1.603 1.125-5.232.236-7.508-.213-.56-.689-.945-1.24-1.002-.642-.067-1.27.3-1.728 1.012l-5.942 10.1a1.443 1.443 0 0 0-.154 1.102c.16.619.696 1.054 1.336 1.084 1.043.049 2.492-.376 3.874-1.137M194.495 50.741s-1.04 5.024-10.864 7.268c-2.876.657-7.819.09-9.995-1.652-.721-.577-.81-2.068-.362-3.147.237-.569-.788-1.959.19-2.838 3.104-2.791 8.99-7.244 13.768-7.487" fill="#030D54"/><path d="M258.67 102.935c-2.36 0-4.59-1.384-5.546-3.443-.278-.597-.439-1.193-.594-1.77-.2-.742-.374-1.384-.734-1.776-.292-.319-.805-.568-1.348-.831-.875-.425-1.866-.906-2.54-1.918-.69-1.039-.748-2.192-.798-3.21-.037-.745-.072-1.45-.367-1.78-.203-.228-.638-.4-1.1-.583-.525-.209-1.12-.445-1.671-.862-1.576-1.192-1.905-3.122-2.17-4.673-.04-.233-.079-.465-.122-.691-.365-1.914-.536-2.308-1.523-3.513-.155-.19-.31-.236-.908-.352-1.063-.207-2.669-.52-3.989-2.938-1.47-2.695-2.458-3.237-3.574-3.237a3.68 3.68 0 0 0-.328.016 8.45 8.45 0 0 1-.755.035c-3.825 0-5.183-2.764-6.081-4.592l-.179-.361c-.721-1.442-1.518-1.64-2.272-1.64-.35 0-.752.055-1.195.165-1.267.315-2.772.637-4.33.637-.304 0-.606-.012-.897-.037-1.702-.143-3.064-1.054-4.265-1.858-.732-.49-1.423-.953-2.129-1.218-1.17-.44-2.418-.654-3.817-.654-1.07 0-2.065.128-2.863.23-.616.079-1.149.147-1.608.147-.116 0-.225-.005-.326-.013-2.078-.173-2.9-.764-3.688-1.46-.582-.515-1.184-1.047-4.853-1.047-.64 0-2.196-.311-3.334-.604-2.405-.618-3.292-1.148-3.517-2.1-.144-.612.086-1.417.927-1.836a6.39 6.39 0 0 1 1.777-.56c-.653-.41-1.252-.98-1.252-1.892 0-1.207.91-1.624 1.742-1.78-.477-.402-.864-.951-.864-1.73 0-.386.108-.713.282-.997-.187.02-.37.032-.545.032-1.038 0-1.588-.442-1.866-.812-.58-.774-.436-1.58-.174-2.2-.256.07-.513.147-.739.214-.796.237-1.426.425-1.973.425-1.137 0-1.734-.817-1.735-1.623-.002-.854.413-1.723 1.2-2.511.958-.96 2.34-1.717 3.808-2.14-1.86-2.864-3.043-5.882-3.401-7.772-.116-.614.031-1.225.406-1.677.384-.464.96-.72 1.623-.72.223 0 .46.03.701.088 2.556.61 4.312 2.464 5.407 4.1.114-.025.23-.037.349-.037.405 0 1.016.145 1.627.833.806.907 1.626 2.82 1.57 5.444a17.313 17.313 0 0 1 5.541 2.775c.211.158.426.321.644.487 1.653 1.26 3.526 2.687 5.121 2.687.2 0 .395-.023.58-.069.36-.088.745-.223 1.152-.365.84-.294 1.792-.626 2.809-.626.422 0 .832.057 1.22.172.684.201 1.216.594 1.643.909.29.214.59.435.78.47a.42.42 0 0 0 .078.006c.286 0 .733-.218 1.166-.43.151-.073.301-.146.451-.215.615-.281 1.34-.418 2.218-.418 1.153 0 2.421.237 3.648.466 1.072.2 2.18.406 3.02.406.311 0 .566-.027.758-.082 1.66-.474 2.767-1.04 3.838-1.587 1.341-.686 2.609-1.333 4.507-1.53.872-.091 1.65-.103 2.294-.103l.598.002.55.003c1.25 0 2.395-.05 3.757-.669.446-.203.895-.436 1.37-.683 1.467-.762 3.13-1.626 5.007-1.626.159 0 .32.006.477.019.916.071 1.756.356 2.497.607.66.224 1.283.435 1.858.469.069.004.136.006.204.006 1.192 0 2.355-.622 3.587-1.28 1.391-.743 2.968-1.585 4.833-1.62l.126-.002c.916 0 1.96.18 3.064.37 1.117.192 2.271.39 3.253.39.678 0 1.19-.096 1.52-.285 1.045-.597 2.11-.888 3.257-.888 1.029 0 1.94.241 2.671.435.477.126.927.246 1.225.246.13 0 .175-.024.19-.032 1.266-.674 2.435-1.002 3.574-1.002 1.404 0 2.492.507 3.366.915.673.314 1.205.562 1.75.562.117 0 .232-.01.352-.033a8.253 8.253 0 0 1 1.5-.14c2.091 0 4.088.855 5.775 2.474.249.239.347.239.45.239.148 0 .352-.031.589-.068.365-.056.82-.126 1.36-.126.433 0 .855.044 1.288.135 2.298.48 3.116 1.964 3.657 2.946.446.809.585.99 1.037 1.07l.37.064c2.998.522 3.544.787 4.426 3.27l.065.183c.102.289.353.462.942.817.807.486 2.027 1.22 2.268 2.951.094.671.314.888.716 1.28.47.462 1.115 1.093 1.303 2.3.274 1.767-.056 2.674-.297 3.335-.171.471-.229.63 0 1.319.663 1.996.215 4.779-1.066 6.617-.413.592-.97 1.011-1.463 1.381-.39.293-.874.657-.9.87-.064.511.163 1.082.716 1.796.858 1.11 1.22 1.991 1.437 3.495.135.932.382 1.355.569 1.44.184.084.38.138.605.2.663.183 1.666.459 2.318 1.691l.06.114c.34.643 1.244 2.354 1.909 2.537.212.058.51.068.825.078.219.007.446.015.69.038 1.169.11 2.092.61 2.6 1.407.338.529.428 1.085.495 1.492.02.126.05.309.077.394.074.053.245.141.364.201.183.094.39.2.603.339 1.758 1.15 2.293 3.742 1.166 5.661-.924 1.575-2.759 2.553-4.787 2.553-1.83-.007-3.244-.737-4.503-1.524-.207-.129-.324-.163-.361-.163-.137 0-.534.21-.885.395l-.252.133a3.365 3.365 0 0 1-1.564.405c-1.042 0-1.811-.522-2.429-.942-.4-.271-.744-.506-1.057-.54a3.394 3.394 0 0 0-.38-.02c-.352 0-.74.04-1.15.082-.454.046-.923.093-1.402.093-1.149 0-2.057-.298-2.776-.912-.656-.56-1.012-1.29-1.298-1.877-.203-.415-.412-.844-.611-.954-.024-.013-.097-.053-.285-.053-.356 0-.834.139-1.297.273l-.038.01c-.673.195-1.255.29-1.78.29-.891 0-1.64-.266-2.224-.79-.469-.42-.72-.917-.922-1.315-.085-.168-.213-.421-.28-.479-.04-.034-.161-.054-.326-.054-.243 0-.545.042-.865.085-.386.053-.785.108-1.21.112h-.049c-1.619 0-3.258-.825-4.498-2.266-.74-.86-1.251-1.767-1.747-2.644-.573-1.015-1.113-1.973-1.948-2.706-.981-.862-2.335-1.356-3.714-1.356-.166 0-.333.008-.496.022-.369.034-.864.37-1.343.695-.653.443-1.394.945-2.289 1.005a3.058 3.058 0 0 1-.195.007c-.975 0-1.622-.487-2.05-.81-.24-.181-.362-.266-.435-.266a.486.486 0 0 0-.082.008c-.336.061-.905.526-1.363.9-.568.463-1.155.942-1.851 1.237-.435.185-.951.275-1.576.275-.709 0-1.477-.113-2.22-.222-.607-.09-1.234-.182-1.698-.186.1.304.312.806.768 1.586.123.21.255.42.387.63.629 1.003 1.342 2.139 1.38 3.57.033 1.225-.447 2.259-.87 3.17-.293.632-.57 1.228-.611 1.759-.07.884.462 1.793 1.077 2.846.529.904 1.128 1.93 1.388 3.1.642 2.892-1.12 6.019-3.928 6.969a5.637 5.637 0 0 1-1.812.294" fill="#63FFD4"/><path d="M184.465 28c-1.079 0-2.071.45-2.722 1.235-.646.78-.905 1.82-.71 2.852.333 1.75 1.252 4.25 2.695 6.79-1.038.486-1.978 1.118-2.708 1.85-1.34 1.341-1.62 2.655-1.619 3.52.004 1.709 1.393 3.047 3.163 3.047.386 0 .77-.059 1.171-.15.105.375.287.759.573 1.14.29.386.869.967 1.857 1.236.025.304.086.584.175.84-.612.527-1.066 1.302-1.066 2.356 0 .45.08.848.217 1.2-1.3.674-1.955 2.04-1.63 3.416.46 1.95 2.414 2.604 4.55 3.153.102.027 2.535.649 3.69.649 1.942 0 2.874.169 3.314.31.259.084.297.117.593.379.909.802 2.006 1.604 4.514 1.813.142.012.291.018.445.018.55 0 1.124-.074 1.79-.159.797-.102 1.701-.218 2.681-.218 1.225 0 2.309.184 3.315.562.55.208 1.176.626 1.837 1.069 1.278.855 2.87 1.92 4.94 2.094.33.028.672.042 1.016.042 1.712 0 3.324-.343 4.675-.68.33-.081.616-.123.85-.123.306 0 .57 0 .996.852l.174.353c.925 1.883 2.648 5.389 7.362 5.389.286 0 .583-.014.883-.041.07-.006.137-.01.2-.01.36 0 .96 0 2.321 2.494 1.642 3.006 3.806 3.428 4.968 3.654l.233.047c.68.847.77 1.115 1.07 2.686.042.218.08.44.118.664.29 1.704.688 4.037 2.714 5.57.705.534 1.427.82 2.007 1.05.158.063.357.142.497.207.038.233.057.624.07.902.054 1.082.127 2.563 1.036 3.928.889 1.336 2.17 1.958 3.105 2.411.319.155.802.39.92.512.125.139.301.794.407 1.185.163.605.348 1.29.677 1.998 1.187 2.553 3.936 4.269 6.84 4.269.783 0 1.547-.125 2.27-.37 3.478-1.176 5.66-5.047 4.864-8.628-.308-1.387-.967-2.515-1.549-3.51-.453-.775-.92-1.577-.887-2.016.022-.275.267-.803.483-1.269.465-1.002 1.044-2.25 1.003-3.81-.045-1.66-.794-2.994-1.422-4.006.458.054.919.093 1.378.093.82 0 1.518-.127 2.133-.388.884-.374 1.581-.944 2.197-1.446.132-.108.298-.243.452-.363.55.382 1.396.853 2.575.853.097 0 .195-.004.291-.01 1.28-.086 2.23-.73 2.994-1.249.232-.157.575-.39.74-.46.098-.006.198-.01.298-.01 1.022 0 2.058.375 2.773 1.002.652.572 1.113 1.389 1.647 2.334.504.894 1.076 1.908 1.907 2.874 1.51 1.755 3.545 2.762 5.58 2.762h.065c.513-.006.978-.069 1.388-.125l.159-.021c.227.423.554.954 1.087 1.432.587.527 1.615 1.155 3.176 1.155.662 0 1.374-.113 2.178-.346l.038-.01c.134-.04.3-.087.456-.128l.057.117c.326.668.772 1.583 1.654 2.336.988.844 2.2 1.254 3.703 1.254.552 0 1.08-.053 1.546-.1.373-.038.726-.074 1.007-.074.055 0 .106.001.152.004.113.058.332.206.482.308.697.474 1.75 1.189 3.231 1.189.755 0 1.504-.19 2.225-.567l.258-.136.153-.08c1.358.817 2.9 1.529 4.9 1.537h.029c2.532 0 4.838-1.248 6.018-3.257 1.526-2.598.8-5.997-1.616-7.577a6.142 6.142 0 0 0-.47-.276c-.087-.467-.247-1.097-.646-1.723-.75-1.175-2.053-1.907-3.67-2.06a12.203 12.203 0 0 0-.778-.043c-.114-.004-.255-.008-.363-.016-.382-.377-.935-1.425-1.155-1.84l-.06-.114c-.941-1.777-2.467-2.197-3.2-2.399l-.053-.015a4.027 4.027 0 0 1-.088-.454c-.253-1.76-.704-2.85-1.721-4.164a3.551 3.551 0 0 1-.32-.478c.08-.062.163-.124.233-.176.549-.413 1.232-.927 1.776-1.706 1.542-2.213 2.056-5.454 1.25-7.882a2.503 2.503 0 0 1-.067-.232l.053-.149c.337-.925.67-2.077.366-4.042-.26-1.675-1.206-2.601-1.714-3.099-.098-.095-.23-.225-.262-.272 0 0-.021-.054-.04-.186-.334-2.405-2.032-3.428-2.945-3.977a9.26 9.26 0 0 1-.396-.247l-.002-.007c-.414-1.165-.804-2.265-1.962-3.08-.94-.662-1.927-.834-3.564-1.119l-.183-.032a12.993 12.993 0 0 1-.219-.385c-.585-1.062-1.675-3.039-4.614-3.653a7.635 7.635 0 0 0-1.582-.166c-.648 0-1.184.083-1.576.143l-.05.007c-1.912-1.747-4.17-2.67-6.546-2.67-.58 0-1.173.056-1.762.165a.495.495 0 0 1-.09.01c-.23 0-.675-.209-1.148-.429-.949-.443-2.249-1.049-3.97-1.049-1.28 0-2.568.33-3.93 1.008-.19-.04-.47-.114-.692-.172-.812-.215-1.822-.483-3.037-.483-1.383 0-2.717.362-3.966 1.077 0 0-.205.097-.811.097-.86 0-1.953-.188-3.01-.37-1.167-.201-2.269-.39-3.307-.39h-.154c-2.207.042-4.02 1.011-5.478 1.79-1.116.596-2.08 1.11-2.914 1.11-.04 0-.08 0-.122-.003-.381-.022-.916-.203-1.481-.395-.82-.278-1.75-.593-2.845-.679a7.432 7.432 0 0 0-.588-.023c-2.226 0-4.053.95-5.666 1.787-.457.238-.89.462-1.302.65-1.013.46-1.828.541-3.166.541l-.54-.002c-.2-.002-.402-.003-.608-.003-.681 0-1.504.013-2.441.11-2.164.225-3.61.965-5.01 1.68-1.01.516-2.054 1.05-3.58 1.485-.004 0-.105.028-.366.028-.708 0-1.75-.195-2.758-.383-1.29-.24-2.625-.49-3.91-.49-1.087 0-2.007.18-2.812.548-.16.073-.321.151-.483.23-.12.059-.272.133-.406.193l-.144-.106c-.49-.36-1.162-.856-2.087-1.129a5.735 5.735 0 0 0-1.624-.23c-1.26 0-2.38.391-3.28.706-.374.13-.727.254-1.02.326a1.007 1.007 0 0 1-.24.028c-1.114 0-2.93-1.384-4.257-2.394a97.718 97.718 0 0 0-.652-.495 18.621 18.621 0 0 0-4.99-2.678c-.151-2.483-1.008-4.33-1.91-5.347-.795-.894-1.638-1.206-2.3-1.287-1.259-1.68-3.147-3.41-5.819-4.049a4.46 4.46 0 0 0-1.033-.126m0 2.852c.109 0 .232.015.37.048 4.098.979 5.844 5.998 5.844 5.998s-.14-1.77.148-1.879a.267.267 0 0 1 .095-.017c.683 0 2.126 2.297 1.693 5.916 1.107.3 3.498.834 6.19 2.85 1.973 1.48 4.299 3.46 6.62 3.46.308 0 .615-.035.92-.11 1.205-.295 2.422-.95 3.62-.95.274 0 .546.033.816.113.946.28 1.602 1.237 2.572 1.414.112.02.223.03.334.03.764 0 1.496-.447 2.211-.774.456-.209 1.01-.289 1.624-.289 2.026 0 4.706.873 6.668.873.421 0 .809-.04 1.15-.138 3.91-1.117 5.083-2.757 8.1-3.07.774-.08 1.479-.095 2.147-.095.393 0 .774.005 1.148.005 1.427 0 2.759-.075 4.347-.797 1.894-.86 3.738-2.181 5.787-2.181.121 0 .243.005.365.014 1.505.118 2.877.99 4.384 1.078.097.006.192.009.287.009 3.072 0 5.376-2.843 8.447-2.901h.1c1.679 0 4.224.76 6.316.76.846 0 1.619-.125 2.23-.474.917-.526 1.765-.7 2.547-.7 1.544 0 2.831.68 3.896.68.305 0 .592-.055.86-.199 1.153-.613 2.093-.834 2.903-.834 2.095 0 3.323 1.477 5.118 1.477.196 0 .4-.018.611-.057.432-.08.845-.117 1.24-.117 2.134 0 3.732 1.065 4.786 2.077.522.5.969.637 1.44.637.56 0 1.154-.194 1.947-.194.3 0 .63.028.997.105 3.142.657 2.267 3.59 4.74 4.024 3.123.548 2.995.438 3.762 2.592.613 1.72 2.868 1.514 3.142 3.485.297 2.14 1.773 2.002 2.022 3.603.444 2.858-1 2.603-.241 4.884.545 1.64.101 3.94-.883 5.353-.724 1.038-2.442 1.557-2.609 2.89-.134 1.076.38 2.038 1.004 2.844.73.943.976 1.59 1.154 2.826.143.997.472 2.117 1.389 2.535.932.425 1.727.266 2.254 1.26.579 1.094 1.547 3 2.851 3.358.569.157 1.171.105 1.759.161.587.056 1.215.257 1.532.754.37.58.21 1.393.61 1.953.318.443.894.601 1.35.9 1.176.768 1.428 2.536.718 3.747-.708 1.205-2.158 1.848-3.557 1.848h-.018c-1.428-.006-2.566-.58-3.728-1.307-.433-.27-.784-.38-1.118-.38-.554 0-1.058.304-1.798.69a1.93 1.93 0 0 1-.903.243c-1.191 0-1.98-1.324-3.33-1.474a4.873 4.873 0 0 0-.535-.027c-.845 0-1.733.175-2.553.175-.686 0-1.324-.123-1.85-.571-.946-.81-1.056-2.394-2.146-2.995a1.98 1.98 0 0 0-.974-.23c-.571 0-1.173.177-1.732.339-.44.127-.923.233-1.384.233-.472 0-.92-.111-1.27-.425-.547-.491-.668-1.336-1.226-1.815-.357-.306-.79-.398-1.255-.398-.67 0-1.41.19-2.089.197h-.035c-1.322 0-2.553-.767-3.416-1.77-1.502-1.746-2.049-3.922-3.834-5.49-1.263-1.109-2.973-1.712-4.657-1.712-.209 0-.418.01-.624.028-1.396.127-2.522 1.625-3.6 1.697a1.392 1.392 0 0 1-.099.004c-1.014 0-1.39-1.076-2.485-1.076-.106 0-.217.01-.337.031-1.233.224-2.345 1.73-3.517 2.228-.276.117-.625.161-1.018.161-1.197 0-2.798-.408-3.95-.408-1.48 0-2.222.67-.432 3.732.657 1.123 1.538 2.218 1.572 3.518.046 1.68-1.346 3.104-1.477 4.78-.18 2.301 1.994 4.112 2.495 6.366.482 2.171-.885 4.596-2.993 5.31a4.222 4.222 0 0 1-1.354.218c-1.748 0-3.51-1.02-4.252-2.618-.597-1.283-.613-2.864-1.57-3.908-1.035-1.13-2.902-1.3-3.751-2.576-.998-1.5-.089-3.805-1.288-5.149-.76-.85-2.067-.945-2.976-1.632-1.316-.996-1.442-2.875-1.751-4.495-.39-2.041-.635-2.701-1.82-4.149-1.23-1.501-3.073 0-4.749-3.07-1.423-2.607-2.756-3.98-4.827-3.98-.148 0-.3.007-.457.021-.218.02-.427.03-.626.03-3.146 0-4.076-2.352-4.984-4.165-.85-1.7-2.024-2.429-3.548-2.429-.478 0-.992.072-1.54.208-1.305.325-2.644.595-3.985.595-.26 0-.518-.01-.777-.032-2.25-.189-3.898-2.195-6.011-2.99-1.526-.573-3.001-.744-4.32-.744-1.954 0-3.562.376-4.471.376-.074 0-.143-.003-.208-.008-4.22-.352-1.396-2.512-8.659-2.512-.92 0-6.53-1.218-5.287-1.838 1.756-.876 3.73-.219 3.95-1.315.215-1.076-2.635-1.536-2.635-2.413 0-.878 3.294.07 3.294-1.317 0-.877-2.416-1.139-2.416-2.193 0-.878 2.82-1.586 2.416-2.633-.085-.219-.336-.298-.683-.298-.907 0-2.468.54-3.423.54-.333 0-.592-.065-.725-.242-.542-.724 1.024-1.844.66-2.632-.123-.265-.418-.364-.808-.364-1.15 0-3.121.865-3.879.865-.194 0-.309-.057-.309-.2-.003-1.6 3.184-3.592 6.093-3.592-2.552-3.214-4.114-7.006-4.51-9.094-.072-.382.125-.704.627-.704" fill="#030D54"/><path d="M301.456 54.514c.06-.078.177-.106.354-.08.088.012.192.039.31.079.116.043.238.107.377.182.548.305 1.24.92 1.867 1.827.62.906 1.173 2.082 1.587 3.413.415 1.33.71 2.815.9 4.356.195 1.535.268 3.01.375 4.223.029.292.063.582.097.766.009.033.01.056.018.097l.074.203.142.399c.188.507.373.993.54 1.32.04.09.074.14.107.211.025.04.042.091.085.131-.003.004.045.036.08.061l.109.076c.063.058.133.105.186.17a.932.932 0 0 1 .149.193c.047.065.076.14.105.21.067.139.099.286.13.423.037.149.033.238.044.346.02.213.009.373-.001.523-.046.598-.182.93-.372.967-.196.038-.432-.238-.712-.727-.07-.12-.142-.265-.217-.376a.731.731 0 0 0-.21-.255.288.288 0 0 0-.123-.062c-.023-.008-.049-.008-.072-.011l-.035-.004c-.013-.002-.014.004-.063-.024a2.323 2.323 0 0 1-.453-.301c-.12-.11-.255-.233-.356-.35-.427-.472-.734-.965-1.056-1.508l-.23-.412a69.7 69.7 0 0 1-.116-.212 6.472 6.472 0 0 1-.144-.337 8.277 8.277 0 0 1-.3-1.113c-.278-1.388-.42-2.798-.61-4.274-.182-1.47-.378-2.84-.615-4.057a22.332 22.332 0 0 0-.826-3.126c-.308-.852-.633-1.505-.872-1.985-.06-.118-.11-.232-.153-.332a1.824 1.824 0 0 1-.108-.265c-.05-.16-.05-.286.008-.365" fill="#030D54"/><path d="M184.838 48.374a1.536 1.536 0 1 1-3.071-.001 1.536 1.536 0 0 1 3.07 0" fill="#FFF"/><path d="M258.44 69.865c.4-.033.806.691 1.232 1.835.43 1.145.907 2.71 1.44 4.422.532 1.713 1.036 3.245 1.365 4.4.328 1.15.478 1.948.153 2.182-.312.227-1.082-.204-1.928-1.228-.842-1.018-1.726-2.618-2.312-4.505-.586-1.887-.78-3.677-.712-4.973.073-1.3.377-2.102.762-2.133M276.876 68.749c.382-.116.985.676 1.754 1.984.38.657.818 1.44 1.274 2.32.466.877.96 1.845 1.469 2.868.514 1.02.994 1.995 1.417 2.893.432.892.797 1.713 1.095 2.412.585 1.401.855 2.359.533 2.594-.313.23-1.177-.333-2.235-1.515-.532-.587-1.097-1.334-1.676-2.195a29.064 29.064 0 0 1-1.683-2.914 28.98 28.98 0 0 1-1.327-3.093c-.342-.98-.602-1.88-.753-2.659-.31-1.556-.24-2.584.132-2.695" fill="#030D54"/><path d="M213.049 51.504c.005.29-.796.581-2.119.729-1.32.149-3.163.131-5.162-.181-1.999-.315-3.758-.864-4.969-1.41-1.214-.547-1.886-1.07-1.792-1.344.206-.568 3.304.06 7.093.643 3.786.607 6.927.958 6.949 1.563M266.397 43.198c.095.276-.198.666-.793 1.03-.592.364-1.49.688-2.522.816-1.032.127-1.982.03-2.645-.178-.666-.209-1.045-.516-1.02-.807.025-.297.436-.524 1.051-.703.618-.18 1.441-.32 2.352-.432.91-.113 1.743-.176 2.386-.153.64.025 1.094.145 1.19.427M291.561 50.446c-.22.22-1.168-.405-2.67-1.321l-.59-.358c-.203-.125-.425-.24-.647-.369-.44-.265-.931-.509-1.436-.782a37.086 37.086 0 0 0-3.405-1.515 37.199 37.199 0 0 0-3.558-1.11c-.56-.127-1.09-.269-1.595-.36-.252-.05-.494-.11-.73-.15l-.679-.12c-1.734-.304-2.857-.46-2.878-.771-.009-.147.263-.297.775-.442.128-.036.271-.072.428-.108.157-.031.329-.054.514-.08.369-.045.794-.103 1.262-.107l.738-.013c.257-.001.523.02.8.034.554.02 1.14.104 1.758.189a21.29 21.29 0 0 1 3.92 1.04 21.282 21.282 0 0 1 3.63 1.806c.521.344 1.016.668 1.446 1.02.216.171.43.33.622.5l.546.498c.35.312.63.635.877.914.121.14.235.27.332.399.095.13.179.251.25.363.29.447.395.738.29.843M301.356 67.448c-.188.217-.846.022-1.689-.615a8.38 8.38 0 0 1-1.325-1.279 10.94 10.94 0 0 1-1.253-1.88 10.955 10.955 0 0 1-.823-2.102 8.366 8.366 0 0 1-.289-1.819c-.039-1.054.179-1.705.464-1.735.3-.033.616.534 1.01 1.398l.672 1.498c.258.553.543 1.153.862 1.774.326.617.655 1.194.96 1.723l.843 1.409c.484.818.768 1.4.568 1.629M226.727 58.816c.108.265-.39.775-1.38 1.257a9.22 9.22 0 0 1-1.81.64c-.705.169-1.498.288-2.335.319-.838.025-1.636-.04-2.35-.16a9.24 9.24 0 0 1-1.851-.517c-1.02-.415-1.551-.89-1.461-1.161.094-.288.77-.332 1.771-.317l1.733.036c.645.004 1.348.006 2.086-.016.738-.028 1.439-.077 2.082-.125l1.727-.153c.997-.082 1.675-.084 1.788.197M237.63 66.915c.005.29-.412.574-1.13.717-.712.144-1.724.127-2.782-.162-1.058-.292-1.936-.793-2.475-1.281-.543-.49-.757-.946-.605-1.194.157-.254.635-.265 1.28-.158.647.11 1.468.325 2.366.573.9.245 1.715.48 2.327.715.609.238 1.015.491 1.02.79M256.647 67.789c.237.186.158.7-.033 1.392a53.43 53.43 0 0 1-.352 1.178c-.127.436-.267.906-.403 1.404-.13.499-.243.976-.349 1.417-.099.442-.195.847-.281 1.197-.18.696-.366 1.18-.665 1.224-.284.043-.635-.391-.847-1.197a5.592 5.592 0 0 1-.165-1.437 7.408 7.408 0 0 1 .241-1.754c.165-.609.4-1.166.665-1.642.27-.475.565-.87.858-1.165.585-.593 1.106-.796 1.33-.617M263.888 55.518c.007.596-3.787 1.123-8.457 1.495-4.67.364-8.5.44-8.586-.15-.086-.578 3.668-1.608 8.418-1.98 4.749-.378 8.618.051 8.625.635" fill="#FF7264"/><path d="M235.112 49.89c.074.283-.607.748-1.8 1.222-1.192.474-2.9.949-4.83 1.227-1.927.284-3.697.319-4.974.21-1.279-.106-2.067-.357-2.077-.646-.014-.604 3.033-1.13 6.743-1.678 1.86-.268 3.546-.494 4.797-.585 1.25-.09 2.065-.038 2.14.25M254.39 46.563c-.076.288-.658.396-1.5.45-.848.06-1.976.064-3.218.121-1.243.047-2.372.123-3.225.133-.43-.005-.785-.012-1.05-.068-.264-.055-.436-.151-.482-.291-.045-.14.04-.312.242-.505a3.46 3.46 0 0 1 .938-.605c.833-.403 2.082-.745 3.492-.798 1.41-.065 2.685.186 3.55.524.874.343 1.326.758 1.252 1.039M298.009 49.885c-.265.141-.653-.036-1.107-.341-.456-.31-.99-.74-1.58-1.21-.593-.466-1.135-.887-1.54-1.26-.401-.372-.663-.709-.586-.998.073-.28.502-.456 1.16-.4.65.054 1.517.37 2.293.984.776.614 1.282 1.385 1.483 2.006.206.626.132 1.084-.123 1.219M312.212 85.886c-.02.292-.243.55-.63.68-.383.131-.926.119-1.452-.104-.527-.224-.913-.605-1.085-.971-.175-.368-.145-.709.05-.926.2-.22.511-.295.839-.296.33.002.68.077 1.03.226.35.148.648.347.88.583.226.236.39.512.368.808M281.223 52.927c-.1.283-.641.364-1.42.363-.78-.002-1.803-.071-2.931-.129-1.128-.054-2.154-.087-2.93-.161-.775-.076-1.305-.21-1.377-.502-.07-.28.351-.672 1.149-.992.792-.32 1.966-.542 3.264-.478 1.297.065 2.443.402 3.2.799.762.397 1.143.828 1.045 1.1M210.815 56.328c.045.29-.27.62-.863.904-.59.283-1.442.507-2.393.58-1.91.15-3.449-.342-3.448-.925 0-.597 1.482-1.063 3.281-1.205.903-.07 1.723-.048 2.339.056.613.103 1.038.297 1.084.59M247.402 80.334c-.262.14-.612.044-.978-.173-.368-.22-.76-.556-1.138-.97-.379-.413-.68-.832-.867-1.217-.183-.385-.248-.74-.086-.99.16-.245.531-.329 1.008-.208.473.118 1.044.45 1.522.972s.76 1.12.836 1.601c.078.485-.038.848-.297.985M255.216 87.337c-.11.271-.493.409-1.032.368-.538-.038-1.228-.263-1.89-.682-.663-.42-1.161-.947-1.426-1.416-.266-.47-.306-.875-.107-1.09.2-.22.593-.217 1.067-.078.475.142 1.036.415 1.61.78.574.362 1.061.752 1.392 1.121.329.368.498.722.386.997M288.694 58.837c-.301-.026-.525-.412-.778-.922-.122-.254-.262-.544-.416-.86-.159-.312-.33-.644-.525-.985-.2-.339-.405-.652-.596-.944l-.543-.787c-.319-.472-.544-.857-.417-1.131.118-.26.617-.35 1.31-.087.346.128.723.354 1.094.666.363.319.716.727 1 1.21.279.485.46.992.556 1.466.089.476.1.915.04 1.279-.116.732-.44 1.12-.725 1.095M302.714 83.677c-.043.29-.468.502-1.14.561-.669.06-1.582-.048-2.526-.38-.944-.331-1.724-.82-2.208-1.285-.487-.466-.685-.898-.537-1.15.15-.257.608-.292 1.223-.195.616.098 1.394.32 2.231.616.838.293 1.584.606 2.126.915.54.31.874.624.83.918M278.148 49.297c-.076.292-.759.349-1.706.287-.952-.053-2.19-.162-3.591-.183-1.399-.032-2.694-.015-3.66-.067-.966-.056-1.604-.192-1.662-.488-.056-.283.485-.673 1.447-1.007.958-.337 2.35-.608 3.924-.573 1.574.022 3.002.409 3.93.858.929.458 1.39.893 1.318 1.173" fill="#030D54"/><path d="M263.888 48.245c.056.588-1.274 1.194-2.97 1.355-1.697.16-3.117-.185-3.173-.772-.056-.588 1.274-1.194 2.97-1.355 1.697-.16 3.117.185 3.173.772M290.703 78.945c.022.286-.322.596-.967.733-.32.07-.708.083-1.133.031a4.598 4.598 0 0 1-1.329-.397 4.593 4.593 0 0 1-1.142-.785 3.44 3.44 0 0 1-.686-.903c-.298-.588-.272-1.05-.034-1.212.247-.17.644-.05 1.116.158.475.214 1.039.51 1.67.816.633.3 1.218.552 1.682.788.459.237.801.47.823.77M258.63 99.297c-.29.076-.655-.293-1.064-.9-.41-.608-.876-1.452-1.371-2.389-.497-.936-.934-1.795-1.208-2.476-.272-.679-.371-1.189-.146-1.385.219-.191.733-.022 1.353.476.62.495 1.33 1.33 1.89 2.386.559 1.056.851 2.113.913 2.902.063.793-.085 1.313-.367 1.386" fill="#FF7264"/></g></g></svg>