<svg width="191" height="102" xmlns="http://www.w3.org/2000/svg" xmlns:xlink="http://www.w3.org/1999/xlink"><defs><linearGradient x1="50%" y1="0%" x2="50%" y2="100%" id="b"><stop stop-color="#FFF" stop-opacity="0" offset="0%"/><stop stop-color="#FFF" offset="100%"/></linearGradient><path d="M95.622 85.5c-.331-.715-.523-1.427-.709-2.116-.239-.889-.446-1.656-.875-2.125-.349-.382-.961-.68-1.61-.995-1.043-.507-2.226-1.082-3.03-2.293-.825-1.242-.893-2.621-.953-3.838-.044-.892-.085-1.734-.437-2.129-.243-.273-.763-.48-1.313-.698-.627-.25-1.338-.532-1.995-1.03-1.88-1.426-2.273-3.734-2.589-5.59-.047-.278-.095-.555-.146-.826-.436-2.29-.64-2.76-1.817-4.2-.186-.227-.371-.283-1.085-.422-1.268-.248-3.184-.622-4.76-3.514-1.755-3.223-2.934-3.87-4.266-3.87-.125 0-.257.006-.39.018-.308.028-.61.042-.902.042-4.564 0-6.185-3.305-7.257-5.492l-.214-.432c-.86-1.724-1.811-1.962-2.711-1.962-.418 0-.898.067-1.426.199-1.512.377-3.308.762-5.168.762-.363 0-.723-.015-1.07-.044-2.032-.172-3.657-1.261-5.09-2.223-.874-.586-1.699-1.14-2.54-1.456-1.396-.526-2.886-.782-4.556-.782-1.278 0-2.464.152-3.417.274-.736.095-1.371.176-1.92.176-.138 0-.268-.005-.389-.015-2.479-.207-3.46-.914-4.4-1.747-.695-.615-1.414-1.251-5.792-1.251-.765 0-2.621-.372-3.98-.723-2.87-.739-3.929-1.372-4.197-2.51-.172-.733.104-1.696 1.107-2.197.726-.363 1.457-.554 2.12-.67-.779-.491-1.493-1.171-1.493-2.263 0-1.443 1.085-1.942 2.078-2.127-.57-.482-1.03-1.139-1.03-2.07 0-.461.128-.853.335-1.193-.222.024-.44.039-.65.039-1.24 0-1.895-.529-2.227-.972-.693-.925-.52-1.889-.208-2.63-.305.084-.611.175-.881.256-.95.283-1.702.507-2.355.507-1.357 0-2.07-.976-2.071-1.94-.002-1.022.493-2.06 1.433-3.004 1.143-1.146 2.792-2.052 4.544-2.558-2.22-3.426-3.631-7.035-4.059-9.296-.139-.734.038-1.465.484-2.005.46-.555 1.147-.86 1.937-.86.267 0 .549.035.838.104 3.05.73 5.145 2.947 6.452 4.903.136-.029.275-.043.416-.043.484 0 1.213.173 1.943.996.962 1.085 1.94 3.372 1.874 6.51a20.645 20.645 0 0 1 6.612 3.319c.252.189.508.384.768.583 1.973 1.506 4.208 3.213 6.112 3.213.238 0 .471-.028.693-.082.43-.106.889-.267 1.374-.437 1.002-.351 2.138-.75 3.352-.75.504 0 .994.07 1.456.207.816.24 1.451.71 1.962 1.087.346.255.704.52.931.562a.5.5 0 0 0 .092.008c.341 0 .875-.262 1.392-.514.18-.088.36-.176.538-.258.734-.336 1.6-.5 2.647-.5 1.376 0 2.89.283 4.354.557 1.279.24 2.6.487 3.604.487.371 0 .675-.034.904-.1 1.981-.566 3.303-1.243 4.58-1.897 1.602-.82 3.114-1.595 5.38-1.83a25.936 25.936 0 0 1 2.738-.123c.241 0 .479.001.713.003l.657.003c1.49 0 2.858-.06 4.483-.8.533-.243 1.068-.522 1.635-.817 1.75-.911 3.735-1.944 5.976-1.944.19 0 .381.007.569.022 1.093.085 2.095.426 2.98.726.787.268 1.53.52 2.217.56.082.005.163.008.244.008 1.422 0 2.81-.744 4.28-1.53 1.66-.89 3.543-1.897 5.769-1.939l.15-.001c1.093 0 2.338.215 3.657.442 1.332.23 2.71.467 3.882.467.809 0 1.42-.115 1.814-.341 1.246-.715 2.518-1.062 3.886-1.062 1.229 0 2.315.288 3.189.52.569.15 1.106.294 1.461.294.156 0 .21-.029.227-.038 1.511-.807 2.907-1.199 4.265-1.199 1.675 0 2.974.607 4.017 1.095.804.376 1.438.672 2.09.672.139 0 .276-.013.419-.04a9.83 9.83 0 0 1 1.791-.168c2.495 0 4.878 1.024 6.891 2.96.297.285.414.285.538.285.176 0 .42-.037.702-.08.436-.068.979-.151 1.622-.151.518 0 1.021.053 1.539.161 2.742.575 3.718 2.349 4.364 3.523.532.968.698 1.184 1.238 1.28l.442.076c3.577.625 4.229.941 5.28 3.911l.078.22c.123.344.422.552 1.125.976.964.581 2.42 1.46 2.707 3.53.111.802.375 1.06.854 1.53.562.552 1.331 1.307 1.555 2.75.327 2.114-.067 3.198-.354 3.99-.205.562-.273.752 0 1.576.791 2.388.256 5.716-1.273 7.913-.492.709-1.158 1.21-1.746 1.653-.464.35-1.043.785-1.074 1.041-.076.61.195 1.293.855 2.147 1.024 1.327 1.457 2.381 1.715 4.18.16 1.115.456 1.62.679 1.723.22.1.452.164.722.239.792.218 1.988.548 2.767 2.022l.071.135c.406.77 1.484 2.815 2.278 3.034.254.07.609.082.985.094.261.009.532.017.822.045 1.396.132 2.498.73 3.105 1.683.403.633.51 1.298.59 1.784.024.15.06.37.092.471.088.065.293.17.434.242.218.111.466.238.72.404 2.098 1.375 2.737 4.476 1.392 6.771-1.104 1.883-3.293 3.053-5.713 3.053-2.184-.009-3.872-.881-5.375-1.822-.247-.155-.387-.196-.43-.196-.163 0-.638.251-1.057.473l-.3.159c-.615.321-1.243.484-1.866.484-1.245 0-2.162-.624-2.9-1.126-.476-.325-.888-.605-1.262-.647a4.042 4.042 0 0 0-.452-.022c-.421 0-.884.047-1.373.097-.541.055-1.101.112-1.673.112-1.371 0-2.455-.357-3.314-1.092-.782-.67-1.207-1.543-1.549-2.245-.241-.495-.49-1.008-.729-1.14-.028-.016-.115-.063-.339-.063-.425 0-.996.166-1.549.326l-.044.013c-.804.232-1.499.345-2.126.345-1.063 0-1.956-.317-2.653-.944-.56-.503-.86-1.097-1.1-1.573-.102-.2-.255-.504-.335-.572-.047-.04-.192-.065-.389-.065-.29 0-.65.05-1.032.102-.461.063-.938.128-1.443.133h-.06c-1.932 0-3.888-.987-5.367-2.71-.883-1.027-1.494-2.112-2.085-3.162-.684-1.213-1.33-2.36-2.325-3.235-1.171-1.031-2.787-1.622-4.433-1.622-.198 0-.397.009-.592.026-.44.04-1.031.442-1.603.83-.78.53-1.663 1.131-2.731 1.203-.08.005-.157.008-.233.008-1.163 0-1.936-.582-2.446-.968-.288-.217-.433-.319-.52-.319a.578.578 0 0 0-.098.01c-.4.073-1.08.629-1.626 1.076-.678.554-1.379 1.127-2.21 1.48-.519.221-1.134.328-1.88.328-.846 0-1.763-.135-2.649-.265-.725-.107-1.473-.217-2.027-.222.119.363.372.964.917 1.897.147.252.304.502.461.753.75 1.2 1.602 2.558 1.647 4.269.04 1.466-.533 2.702-1.038 3.793-.35.754-.68 1.467-.73 2.102-.082 1.057.552 2.144 1.286 3.403.631 1.082 1.346 2.309 1.656 3.708.767 3.46-1.336 7.198-4.688 8.334a6.714 6.714 0 0 1-2.162.352c-2.817 0-5.477-1.655-6.619-4.118z" id="a"/></defs><g fill="none" fill-rule="evenodd"><path d="M182.66 74.994l-.175.126-8.396-5.03-3.018 5.052s5.15 2.749 6.565 3.597c1.415.847 5.618 2.642 7.58 3.45 1.668.687 3.109 1.351 4.544.322.904-.648 1.158-2.043.596-3.12-.29-.557-2.35-3.28-2.883-4.026-1.27-1.775-3.03-1.65-4.812-.371M145.061 50.42c-1.1-.818-8.714-1.727-10.114-1.441-5.943 1.213-1.049 16.503-2.147 21.717-.851 4.038.648 6.52.648 6.52s1.03.962 1.116 2.56c.087 1.612-.303 2.115-.303 3.693 0 1.346.315 2.566.908 3.523a6.421 6.421 0 0 0 5.548 3.188c1.669 0 2.53-.494 3.153-.828 1.785-.955 3.258-2.822 3.274-5.08.015-2.063 1.464-2.757 1.934-3.652 1.059-2.013 1.025-1.938 1.025-4.28 0-1.944-1.078-2.954-1.048-4.003.05-1.753 1.843-2.145 2.094-4.783.157-1.641.115-2.217-.345-2.966-1.835-2.929-4.803-13.471-5.743-14.169" fill="#030D54"/><path d="M138.896 84.949l-2.427 8.563c-.666 1.45-1.048 1.599-2.025 2.102-1.603.828-2.907 1.745-2.907 3.513 0 1.113.985 2.132 2.186 2.302.622.088 4.031-.004 4.948-.004 2.18 0 2.73-1.54 3.104-3.702.361-2.093 3-12.774 3-12.774h-5.88zM100.066 84.984s3.932 7.112 4.667 8.563c.734 1.451-.472 1.604-1.452 2.103-.921.469-2.635 1.275-2.907 3.317-.176 1.321.761 2.5 1.97 2.5 1.79 0 3.457-.067 5.184-.067 2.606 0 4.273-1.597 4.273-3.642 0-1.293-1-3.093-1.667-4.762-.667-1.67-3.522-8.012-3.522-8.012h-6.546zM85.065 84.984s3.932 7.112 4.667 8.563c.734 1.451-.472 1.604-1.452 2.103-.921.469-2.635 1.275-2.907 3.317-.176 1.321.762 2.5 1.97 2.5 1.79 0 3.457-.067 5.184-.067 1.782 0 4.273-1.597 4.273-3.642 0-1.293-1-3.093-1.667-4.762-.667-1.67-3.522-8.012-3.522-8.012h-6.546z" fill="#030D54"/><path d="M85.97 52.194c-1.267-.527-12.56-2.265-13.838-1.626-2.667 1.336 6.64 18.942 6.831 24.268.15 4.124 2.203 6.17 2.203 6.17s1.23.684 1.7 2.215c.474 1.542.217 2.125.597 3.656.325 1.307.925 2.414 1.732 3.199a6.417 6.417 0 0 0 6.153 1.752c1.619-.404 2.335-1.093 2.86-1.567 1.502-1.359 2.48-3.526 1.951-5.722-.483-2.005-1.025-2.466-1.269-3.447-.323-1.299.527-2.128-.038-4.4-.47-1.888-1.76-2.606-1.983-3.632-.374-1.713 1.27-2.527.878-5.148-.244-1.63-.962-2.673-1.59-3.29-2.486-2.397-5.108-11.98-6.188-12.428M26.297 16.427c1.845-1.017 3.378-2.568 4.318-4.367 1-1.918 1.342-6.258.282-8.98-.255-.67-.822-1.129-1.481-1.198-.765-.08-1.515.36-2.061 1.21l-7.092 12.08a1.728 1.728 0 0 0-.188 1.3l.004.017c.192.74.831 1.26 1.595 1.297 1.245.058 2.974-.45 4.623-1.36M25.653 27.197s-1.241 6.008-12.965 8.691c-3.434.786-9.332.108-11.93-1.975-.86-.69-.966-2.474-.43-3.764.281-.68-.941-2.342.225-3.393 3.706-3.339 10.73-8.664 16.432-8.954" fill="#030D54"/><use fill="#FCFC51" xlink:href="#a"/><use fill-opacity=".2" fill="url(#b)" xlink:href="#a"/><path d="M13.683 0c-1.288 0-2.472.538-3.249 1.477-.771.933-1.08 2.176-.846 3.41.396 2.095 1.493 5.083 3.215 8.12-1.239.583-2.36 1.338-3.232 2.213-1.6 1.605-1.933 3.176-1.931 4.211.004 2.043 1.662 3.643 3.774 3.643.46 0 .92-.07 1.398-.18a4.098 4.098 0 0 0 2.9 2.843c.03.363.102.698.208 1.005-.73.63-1.271 1.556-1.271 2.816 0 .54.096 1.015.258 1.436-1.552.806-2.333 2.44-1.946 4.085.549 2.332 2.882 3.115 5.43 3.771.123.032 3.027.776 4.404.776 2.318 0 3.43.202 3.956.37.309.1.354.14.707.453 1.085.96 2.394 1.92 5.388 2.17.169.013.347.02.53.02.657 0 1.343-.087 2.136-.19.952-.121 2.031-.26 3.2-.26 1.462 0 2.756.22 3.956.672.658.248 1.404.748 2.193 1.278 1.526 1.023 3.424 2.297 5.895 2.505.395.033.803.05 1.213.05 2.043 0 3.967-.41 5.579-.812a4.332 4.332 0 0 1 1.015-.148c.365 0 .68 0 1.188 1.019l.208.421c1.105 2.253 3.16 6.445 8.786 6.445.342 0 .696-.016 1.054-.049.084-.007.164-.011.238-.011.43 0 1.147 0 2.771 2.982 1.959 3.595 4.542 4.1 5.93 4.37l.276.056c.813 1.013.92 1.334 1.278 3.213.05.26.095.526.14.793.347 2.038.822 4.829 3.24 6.662.841.639 1.703.98 2.394 1.256.19.075.427.17.594.247.045.28.068.746.084 1.08.064 1.293.152 3.064 1.236 4.697 1.06 1.598 2.589 2.34 3.705 2.883.381.186.957.466 1.097.613.15.165.361.949.487 1.417.195.723.416 1.543.808 2.39 1.417 3.053 4.697 5.104 8.164 5.104.934 0 1.845-.148 2.709-.441 4.15-1.408 6.753-6.037 5.804-10.32-.368-1.659-1.154-3.007-1.848-4.197-.54-.927-1.1-1.886-1.059-2.411.026-.329.319-.96.577-1.518.555-1.198 1.246-2.69 1.196-4.556-.053-1.987-.948-3.581-1.697-4.791.546.065 1.097.11 1.644.11.98 0 1.813-.151 2.547-.463 1.054-.448 1.886-1.129 2.62-1.73.16-.129.357-.29.541-.433.656.457 1.666 1.02 3.073 1.02.115 0 .232-.005.348-.013 1.527-.102 2.661-.873 3.573-1.492.276-.189.686-.467.882-.55.118-.009.237-.013.356-.013 1.22 0 2.457.448 3.309 1.198.778.684 1.328 1.661 1.965 2.792.603 1.07 1.285 2.281 2.277 3.437 1.803 2.099 4.23 3.303 6.66 3.303h.076c.613-.007 1.168-.083 1.657-.15l.19-.025c.27.507.662 1.141 1.298 1.713.7.63 1.927 1.38 3.79 1.38.79 0 1.64-.134 2.599-.412l.045-.013c.16-.047.358-.104.544-.153l.069.14c.388.799.921 1.893 1.973 2.793 1.18 1.01 2.626 1.501 4.42 1.501.658 0 1.288-.064 1.845-.12a12.99 12.99 0 0 1 1.201-.089c.067 0 .127.002.182.005.135.07.396.247.575.37.831.565 2.088 1.42 3.857 1.42.9 0 1.794-.228 2.654-.678l.309-.163.182-.096c1.62.978 3.462 1.83 5.848 1.839h.034c3.023 0 5.775-1.492 7.183-3.895 1.82-3.107.955-7.172-1.93-9.061a7.327 7.327 0 0 0-.56-.33c-.103-.559-.295-1.313-.771-2.061-.895-1.406-2.45-2.28-4.38-2.464a14.533 14.533 0 0 0-.928-.051c-.136-.005-.304-.01-.433-.019-.456-.451-1.117-1.704-1.379-2.2l-.072-.137c-1.123-2.125-2.944-2.628-3.82-2.87-.02-.005-.041-.01-.062-.017a4.826 4.826 0 0 1-.105-.543c-.302-2.104-.84-3.407-2.054-4.98a4.248 4.248 0 0 1-.381-.571c.096-.075.194-.149.277-.211.655-.494 1.471-1.108 2.12-2.04 1.84-2.647 2.454-6.523 1.491-9.426a2.998 2.998 0 0 1-.08-.278l.064-.178c.402-1.107.8-2.484.437-4.834-.31-2.003-1.44-3.11-2.046-3.706-.116-.114-.275-.27-.313-.326.001 0-.024-.064-.046-.222-.4-2.877-2.426-4.1-3.515-4.756-.153-.092-.348-.21-.473-.296l-.003-.009c-.493-1.392-.96-2.708-2.341-3.683-1.121-.791-2.3-.997-4.254-1.338l-.219-.038c-.08-.135-.18-.315-.26-.46-.699-1.27-2-3.635-5.507-4.37a9.093 9.093 0 0 0-1.888-.197c-.774 0-1.413.098-1.88.17l-.06.009c-2.283-2.09-4.977-3.193-7.813-3.193-.692 0-1.4.066-2.102.197a.59.59 0 0 1-.108.01c-.274 0-.806-.248-1.37-.511-1.132-.53-2.683-1.255-4.737-1.255-1.527 0-3.066.395-4.69 1.205-.227-.046-.563-.135-.827-.206-.969-.257-2.174-.576-3.625-.577-1.65 0-3.242.433-4.733 1.288 0 0-.244.116-.967.116-1.026 0-2.331-.225-3.594-.443-1.392-.24-2.706-.466-3.945-.466l-.184.001c-2.634.05-4.798 1.209-6.537 2.14-1.332.713-2.482 1.329-3.478 1.329-.048 0-.097-.002-.146-.005-.455-.026-1.093-.243-1.768-.472-.979-.333-2.088-.71-3.395-.812a8.851 8.851 0 0 0-.701-.028c-2.657 0-4.838 1.136-6.762 2.137-.546.285-1.062.553-1.554.778-1.209.55-2.181.647-3.778.647l-.645-.003c-.239-.002-.48-.004-.726-.004-.813 0-1.795.016-2.913.132-2.582.269-4.31 1.154-5.98 2.009-1.204.617-2.45 1.255-4.271 1.776-.005.001-.126.033-.437.033-.846 0-2.09-.232-3.291-.457-1.54-.288-3.133-.586-4.667-.586-1.297 0-2.395.214-3.356.655-.191.087-.384.181-.577.275-.142.07-.324.16-.484.231l-.172-.126c-.586-.432-1.387-1.024-2.491-1.35a6.831 6.831 0 0 0-1.938-.277c-1.503 0-2.84.469-3.915.845-.446.157-.867.304-1.217.39a1.2 1.2 0 0 1-.286.033c-1.33 0-3.497-1.655-5.08-2.863-.264-.202-.524-.4-.779-.591a22.207 22.207 0 0 0-5.955-3.203c-.18-2.97-1.203-5.18-2.28-6.394-.948-1.07-1.954-1.443-2.744-1.54C20.358 2.984 18.105.914 14.916.15A5.312 5.312 0 0 0 13.683 0m0 3.41c.13 0 .276.019.44.058 4.891 1.17 6.976 7.173 6.976 7.173s-.167-2.116.176-2.247a.318.318 0 0 1 .113-.02c.815 0 2.538 2.747 2.021 7.076 1.321.357 4.175.996 7.387 3.408 2.355 1.769 5.13 4.137 7.902 4.137.366 0 .733-.042 1.098-.131 1.438-.354 2.89-1.137 4.32-1.137.326 0 .65.04.973.136 1.129.334 1.912 1.479 3.07 1.691.133.025.266.036.398.036.912 0 1.786-.535 2.639-.926.544-.25 1.205-.345 1.937-.345 2.42 0 5.618 1.043 7.96 1.043.501 0 .964-.048 1.372-.165 4.666-1.335 6.066-3.297 9.667-3.671a24.252 24.252 0 0 1 2.56-.114c.47 0 .925.006 1.372.006 1.702 0 3.292-.09 5.188-.953 2.26-1.029 4.46-2.608 6.906-2.608.144 0 .29.006.436.017 1.796.14 3.433 1.184 5.231 1.289.116.007.23.01.343.01 3.665 0 6.416-3.4 10.08-3.469h.12c2.004 0 5.041.908 7.538.908 1.01 0 1.931-.148 2.66-.566 1.096-.629 2.107-.837 3.04-.837 1.843 0 3.38.814 4.65.814.364 0 .706-.067 1.028-.238 1.375-.734 2.497-.999 3.464-.999 2.5 0 3.966 1.767 6.107 1.767.234 0 .477-.02.73-.068a8.079 8.079 0 0 1 1.48-.14c2.547.001 4.453 1.274 5.712 2.485.622.598 1.155.76 1.717.76.67 0 1.378-.23 2.324-.23.359 0 .752.032 1.19.124 3.75.786 2.706 4.295 5.656 4.813 3.728.655 3.575.524 4.491 3.1.73 2.056 3.422 1.81 3.75 4.168.354 2.56 2.115 2.394 2.412 4.308.53 3.419-1.192 3.113-.287 5.841.65 1.963.12 4.713-1.054 6.402-.864 1.242-2.915 1.862-3.113 3.457-.16 1.287.454 2.437 1.197 3.4.871 1.129 1.165 1.902 1.378 3.381.17 1.191.564 2.531 1.657 3.031 1.112.508 2.062.318 2.69 1.507.691 1.308 1.847 3.587 3.403 4.017.679.187 1.398.125 2.099.192.7.066 1.45.307 1.828.9.442.695.251 1.667.729 2.336.379.531 1.066.72 1.611 1.077 1.403.919 1.704 3.034.856 4.481-.845 1.442-2.575 2.21-4.245 2.21h-.02c-1.706-.007-3.064-.693-4.45-1.562-.516-.323-.936-.456-1.335-.456-.66 0-1.262.365-2.145.826-.394.206-.748.291-1.077.291-1.423 0-2.365-1.584-3.974-1.763a5.803 5.803 0 0 0-.64-.032c-1.008 0-2.068.208-3.046.208-.818 0-1.58-.146-2.207-.682-1.13-.968-1.26-2.863-2.563-3.582-.362-.2-.755-.275-1.161-.275-.682 0-1.4.212-2.067.406-.525.152-1.102.278-1.652.278-.564 0-1.098-.133-1.515-.508-.653-.587-.798-1.598-1.464-2.17-.426-.367-.942-.476-1.498-.476-.8 0-1.682.227-2.493.235h-.042c-1.577 0-3.046-.917-4.076-2.116-1.794-2.089-2.445-4.692-4.577-6.567-1.506-1.326-3.548-2.047-5.557-2.047-.25 0-.498.012-.745.034-1.666.15-3.01 1.943-4.296 2.03-.04.002-.08.004-.118.004-1.21 0-1.658-1.287-2.966-1.287-.126 0-.26.012-.402.037-1.471.268-2.798 2.07-4.197 2.664-.33.14-.746.193-1.216.193-1.428 0-3.339-.488-4.714-.488-1.765 0-2.65.802-.515 4.463.784 1.343 1.835 2.653 1.877 4.207.054 2.01-1.607 3.713-1.763 5.717-.216 2.752 2.38 4.918 2.977 7.613.575 2.597-1.056 5.497-3.572 6.35a5.03 5.03 0 0 1-1.616.262c-2.086 0-4.188-1.22-5.074-3.131-.712-1.535-.731-3.426-1.873-4.674-1.236-1.35-3.465-1.555-4.478-3.08-1.19-1.794-.106-4.55-1.537-6.158-.906-1.017-2.467-1.13-3.55-1.953-1.572-1.19-1.722-3.437-2.091-5.375-.465-2.441-.757-3.23-2.172-4.961-1.468-1.796-3.667 0-5.667-3.672-1.699-3.119-3.29-4.76-5.762-4.76a6.03 6.03 0 0 0-.544.025 8.3 8.3 0 0 1-.748.036c-3.755 0-4.865-2.813-5.947-4.981-1.015-2.033-2.416-2.905-4.235-2.905-.571 0-1.183.086-1.837.25-1.558.387-3.157.71-4.757.71-.31 0-.618-.012-.927-.038-2.686-.226-4.652-2.625-7.174-3.576-1.82-.686-3.582-.89-5.155-.89-2.333 0-4.252.45-5.336.45-.089 0-.171-.003-.248-.01-5.037-.42-1.667-3.004-10.334-3.004-1.098 0-7.795-1.456-6.31-2.198 2.096-1.048 4.452-.262 4.714-1.573.257-1.287-3.144-1.837-3.144-2.886 0-1.05 3.93.085 3.93-1.574 0-1.05-2.882-1.362-2.882-2.624 0-1.049 3.365-1.896 2.882-3.148-.101-.261-.4-.356-.815-.356-1.082 0-2.945.646-4.085.646-.397 0-.706-.079-.865-.29-.647-.865 1.222-2.205.787-3.148-.147-.317-.499-.435-.963-.435-1.373 0-3.726 1.034-4.63 1.034-.231 0-.368-.068-.368-.238-.004-1.914 3.8-4.296 7.27-4.296-3.045-3.844-4.909-8.379-5.381-10.876-.087-.457.148-.842.747-.842" fill="#030D54"/><path d="M153.304 31.709c.07-.094.21-.127.422-.097.106.016.229.047.37.095.138.052.284.128.45.218.653.365 1.48 1.1 2.227 2.185.742 1.083 1.4 2.49 1.895 4.082.495 1.591.846 3.367 1.074 5.21.233 1.835.32 3.6.448 5.05.034.349.075.696.116.916.01.04.012.067.02.116l.09.243.168.476c.225.607.445 1.188.644 1.58.049.106.09.168.129.252.03.048.05.11.1.157-.003.005.055.043.097.073l.13.09c.075.07.158.126.221.204.07.07.13.147.178.23.057.078.091.167.126.252.08.166.118.342.155.506.044.178.04.284.053.413.023.256.01.446-.002.626-.055.715-.216 1.112-.444 1.156-.234.046-.515-.284-.849-.87-.084-.143-.17-.316-.26-.449a.874.874 0 0 0-.249-.304.343.343 0 0 0-.148-.075c-.027-.009-.058-.01-.086-.013l-.042-.005c-.015-.002-.017.005-.075-.028a2.772 2.772 0 0 1-.54-.36c-.143-.132-.305-.28-.425-.418-.51-.565-.876-1.155-1.26-1.804l-.274-.493a83.74 83.74 0 0 1-.14-.253 7.75 7.75 0 0 1-.17-.403 9.915 9.915 0 0 1-.36-1.332c-.33-1.66-.501-3.346-.727-5.11-.217-1.759-.451-3.397-.734-4.853-.283-1.454-.625-2.714-.986-3.739-.368-1.019-.756-1.8-1.04-2.373-.073-.141-.13-.278-.184-.397a2.184 2.184 0 0 1-.129-.318c-.058-.192-.06-.342.01-.436" fill="#030D54"/><path d="M14.128 24.366a1.835 1.835 0 1 1-3.667 0 1.835 1.835 0 1 1 3.667 0" fill="#FFF"/><path d="M101.967 50.068c.476-.04.961.826 1.47 2.194.514 1.37 1.083 3.241 1.718 5.289.635 2.049 1.238 3.88 1.63 5.262.39 1.376.57 2.33.182 2.61-.372.27-1.29-.245-2.3-1.47-1.006-1.217-2.06-3.13-2.76-5.387-.7-2.257-.931-4.398-.85-5.947.087-1.555.45-2.514.91-2.551M123.969 48.733c.456-.139 1.175.808 2.094 2.372.453.786.976 1.723 1.52 2.776a152.29 152.29 0 0 1 1.752 3.429c.614 1.22 1.187 2.386 1.692 3.46a66.005 66.005 0 0 1 1.306 2.884c.7 1.676 1.021 2.822.636 3.103-.373.274-1.404-.398-2.666-1.811-.636-.703-1.31-1.597-2.001-2.626a34.777 34.777 0 0 1-2.009-3.485 34.696 34.696 0 0 1-1.583-3.7c-.408-1.17-.718-2.247-.898-3.179-.371-1.86-.286-3.09.157-3.223" fill="#030D54"/><path d="M47.795 28.109c.007.347-.949.695-2.528.872-1.576.178-3.775.157-6.16-.217-2.386-.377-4.485-1.032-5.93-1.686-1.449-.653-2.252-1.279-2.14-1.607.246-.68 3.943.072 8.466.77 4.518.725 8.267 1.145 8.292 1.868M111.463 18.176c.113.33-.236.796-.946 1.232-.707.435-1.78.823-3.01.976-1.231.151-2.366.036-3.157-.214-.795-.25-1.247-.617-1.217-.965.03-.354.52-.626 1.254-.84.737-.215 1.72-.383 2.807-.517 1.086-.135 2.08-.21 2.847-.183.765.03 1.306.174 1.422.51M141.495 26.844c-.264.263-1.394-.484-3.187-1.58l-.703-.428c-.243-.15-.509-.286-.773-.441-.525-.317-1.111-.609-1.714-.935a44.214 44.214 0 0 0-4.063-1.812 44.326 44.326 0 0 0-4.247-1.327c-.667-.153-1.3-.322-1.903-.431-.3-.06-.59-.132-.871-.18l-.81-.144c-2.07-.363-3.411-.55-3.436-.922-.01-.176.314-.355.925-.528a9.75 9.75 0 0 1 .511-.129c.188-.038.393-.064.613-.095.44-.055.947-.125 1.507-.128l.88-.016c.307-.002.624.025.954.04.662.025 1.36.124 2.099.226 1.467.243 3.065.642 4.678 1.243a25.378 25.378 0 0 1 4.333 2.161c.621.412 1.212.8 1.725 1.219.258.206.513.396.743.6l.65.594c.418.373.752.76 1.047 1.093.146.169.282.324.397.477.113.156.213.3.299.434.345.535.47.884.346 1.009M153.184 47.178c-.224.258-1.01.025-2.016-.736-.503-.378-1.044-.896-1.581-1.53a13.085 13.085 0 0 1-1.495-2.248 13.117 13.117 0 0 1-.982-2.515c-.21-.804-.325-1.545-.345-2.174-.046-1.262.213-2.04.553-2.076.36-.04.736.639 1.205 1.673l.802 1.79c.309.662.648 1.38 1.03 2.122.388.739.78 1.429 1.146 2.06l1.005 1.686c.577.978.916 1.676.678 1.948M64.12 36.854c.129.317-.466.926-1.646 1.504-.588.29-1.323.554-2.162.765-.84.201-1.787.343-2.786.38-1 .031-1.953-.047-2.805-.19-.852-.155-1.603-.368-2.209-.618-1.217-.497-1.851-1.064-1.744-1.39.113-.344.92-.396 2.115-.378l2.067.042c.77.006 1.609.008 2.49-.018.88-.034 1.717-.092 2.485-.15l2.06-.182c1.191-.099 2-.1 2.135.235M77.132 46.54c.006.347-.493.686-1.349.857-.85.173-2.057.152-3.32-.194-1.263-.348-2.311-.948-2.954-1.532-.648-.585-.904-1.131-.722-1.427.187-.304.758-.317 1.528-.19.772.131 1.751.389 2.823.686 1.074.293 2.047.573 2.777.855.727.284 1.212.587 1.217.945M99.827 47.585c.283.223.188.836-.04 1.665a64 64 0 0 1-.419 1.409c-.152.52-.32 1.083-.481 1.678-.156.597-.29 1.168-.417 1.696a63.565 63.565 0 0 1-.336 1.43c-.213.833-.437 1.413-.792 1.465-.34.051-.759-.468-1.012-1.432a6.701 6.701 0 0 1-.197-1.718c.01-.652.097-1.37.288-2.098a8.87 8.87 0 0 1 .793-1.964 6.683 6.683 0 0 1 1.024-1.393c.698-.71 1.32-.952 1.589-.738M108.468 32.91c.01.712-4.518 1.342-10.092 1.788-5.574.435-10.145.525-10.247-.18-.102-.691 4.378-1.923 10.046-2.367 5.668-.453 10.286.06 10.293.758" fill="#FF7264"/><path d="M74.126 26.18c.088.337-.724.893-2.148 1.46-1.422.568-3.461 1.135-5.763 1.467-2.3.34-4.413.382-5.937.253-1.526-.128-2.467-.428-2.479-.773-.017-.723 3.62-1.352 8.047-2.007 2.22-.321 4.232-.59 5.725-.7 1.492-.108 2.465-.045 2.555.3M97.132 22.2c-.09.345-.784.474-1.788.54-1.012.07-2.359.075-3.842.143-1.483.056-2.83.147-3.849.16-.512-.007-.936-.015-1.252-.082-.315-.066-.52-.18-.575-.348-.054-.168.048-.374.289-.604.24-.23.617-.495 1.119-.724.994-.482 2.484-.891 4.167-.954 1.683-.078 3.205.223 4.238.626 1.042.411 1.582.907 1.493 1.243M149.19 26.173c-.316.169-.78-.044-1.322-.408-.543-.37-1.181-.885-1.885-1.447-.707-.557-1.355-1.061-1.839-1.506-.478-.445-.79-.848-.698-1.195.087-.334.599-.545 1.383-.477.777.064 1.811.442 2.738 1.176.925.735 1.53 1.656 1.77 2.4.245.748.157 1.295-.148 1.457M166.14 69.228c-.023.349-.29.658-.752.813-.457.157-1.104.142-1.733-.125s-1.09-.723-1.294-1.16c-.21-.441-.173-.848.06-1.108.237-.264.61-.353 1-.354.395.003.813.092 1.23.27a3.2 3.2 0 0 1 1.049.698c.27.282.465.612.44.966M129.157 29.811c-.12.338-.766.436-1.694.434-.931-.003-2.153-.085-3.5-.154-1.345-.065-2.569-.104-3.496-.193-.924-.091-1.558-.252-1.643-.6-.084-.336.419-.804 1.37-1.186.947-.382 2.348-.648 3.896-.572 1.549.078 2.916.48 3.82.955.91.475 1.363.99 1.247 1.316M45.13 33.879c.054.346-.323.74-1.03 1.08-.703.34-1.72.607-2.857.694-2.28.179-4.115-.41-4.114-1.107 0-.713 1.768-1.27 3.915-1.44 1.078-.083 2.056-.057 2.792.067.731.124 1.24.355 1.294.706M88.794 62.588c-.313.167-.73.052-1.168-.207-.439-.262-.906-.666-1.357-1.16-.453-.494-.813-.995-1.035-1.456-.22-.46-.297-.886-.103-1.183.19-.293.634-.394 1.203-.25.565.142 1.246.54 1.817 1.163.57.625.906 1.339.997 1.915.093.58-.045 1.014-.354 1.178M98.12 70.963c-.132.324-.589.489-1.233.44-.641-.046-1.464-.314-2.256-.816-.79-.502-1.385-1.133-1.7-1.693-.319-.563-.366-1.047-.129-1.305.24-.261.708-.258 1.274-.091.567.168 1.236.495 1.921.931.686.434 1.267.9 1.662 1.342.392.44.594.863.46 1.192M138.073 36.878c-.36-.03-.627-.491-.928-1.101l-.497-1.03c-.19-.372-.394-.769-.627-1.177-.24-.405-.483-.78-.711-1.129l-.648-.941c-.38-.564-.65-1.025-.497-1.353.14-.31.735-.418 1.563-.104.413.153.863.423 1.305.797.434.38.855.869 1.194 1.445.333.581.548 1.188.664 1.754.106.57.118 1.096.046 1.53-.138.876-.525 1.34-.864 1.31M154.805 66.586c-.05.346-.558.6-1.36.671-.799.071-1.889-.057-3.016-.454-1.126-.397-2.056-.98-2.634-1.537-.582-.557-.818-1.075-.641-1.376.18-.307.726-.35 1.46-.234.735.118 1.663.384 2.662.738 1 .35 1.89.725 2.537 1.094.644.37 1.044.746.992 1.098M125.487 25.47c-.09.349-.906.417-2.036.343-1.136-.063-2.613-.193-4.286-.218-1.67-.039-3.215-.019-4.368-.081-1.153-.068-1.914-.23-1.983-.584-.067-.338.578-.805 1.727-1.204 1.143-.403 2.803-.728 4.683-.685 1.879.026 3.583.488 4.69 1.026 1.108.548 1.659 1.068 1.573 1.403" fill="#030D54"/><path d="M108.469 24.212c.066.702-1.52 1.428-3.546 1.62-2.024.192-3.719-.221-3.785-.924-.067-.702 1.52-1.427 3.545-1.62 2.024-.192 3.72.222 3.786.924M140.47 60.926c.027.343-.384.713-1.153.877-.382.084-.846.1-1.353.038a5.479 5.479 0 0 1-1.586-.475 5.481 5.481 0 0 1-1.363-.94 4.114 4.114 0 0 1-.819-1.079c-.355-.703-.324-1.255-.04-1.45.294-.204.769-.06 1.332.19.567.255 1.24.61 1.992.975.756.358 1.454.66 2.008.942.548.284.957.564.982.922M102.193 85.267c-.345.09-.781-.35-1.27-1.076-.488-.728-1.045-1.737-1.636-2.858-.593-1.12-1.114-2.147-1.44-2.96-.325-.813-.444-1.423-.176-1.657.262-.23.875-.027 1.616.569.738.591 1.587 1.59 2.255 2.853.667 1.263 1.016 2.527 1.09 3.471.075.948-.102 1.57-.439 1.658" fill="#FF7264"/></g></svg>